<?xml version="1.0" encoding="utf-8"?>
<!-- Generator: Adobe Illustrator 28.0.0, SVG Export Plug-In . SVG Version: 6.00 Build 0)  -->
<svg version="1.1" id="Layer_1" xmlns="http://www.w3.org/2000/svg" xmlns:xlink="http://www.w3.org/1999/xlink" x="0px" y="0px"
	 viewBox="0 0 386 277" style="enable-background:new 0 0 386 277;" xml:space="preserve">
<style type="text/css">
	.st0{fill:url(#SVGID_1_);stroke:#F8AF18;stroke-width:6;stroke-miterlimit:10;}
	.st1{fill:none;stroke:#FBBF24;stroke-width:24;stroke-linecap:round;stroke-miterlimit:10;}
	.st2{clip-path:url(#SVGID_00000150790674989334765710000017573161575026669734_);}
	.st3{fill:none;stroke:#374151;stroke-width:18;stroke-linecap:round;stroke-linejoin:round;}
</style>
<symbol  id="c" viewBox="-192 -192 384 384">
	
		<linearGradient id="SVGID_1_" gradientUnits="userSpaceOnUse" x1="-233.9837" y1="-264.7718" x2="-150.0163" y2="-119.2282" gradientTransform="matrix(1 0 0 1 192 192)">
		<stop  offset="0" style="stop-color:#FBBF24"/>
		<stop  offset="0.5" style="stop-color:#FBBF24"/>
		<stop  offset="1" style="stop-color:#F59E0B"/>
	</linearGradient>
	<circle class="st0" cx="0" cy="0" r="84"/>
	<path class="st1" d="M0-130.3V-180 M0,180v-49.7 M92.2-92.2l35-35 M-127.2,127.2l35.1-35.1 M-92.1-92.3l-35-35 M127.4,127.2
		L92.3,92.1 M-130.3,0H-180 M180,0h-49.7"/>
</symbol>
<g>
	<g>
		<defs>
			<path id="SVGID_00000042719474007303017120000000723846860081707939_" d="M449,206H233c-5.2,0-10.1,1.9-14,5.3L193,234l-26-22.7
				c-3.9-3.4-8.8-5.3-14-5.3H-63v-306h512V206z"/>
		</defs>
		<clipPath id="SVGID_00000065783921533588183220000013654440933019164298_">
			<use xlink:href="#SVGID_00000042719474007303017120000000723846860081707939_"  style="overflow:visible;"/>
		</clipPath>
		<g style="clip-path:url(#SVGID_00000065783921533588183220000013654440933019164298_);">
			<g>
				<defs>
					<rect id="SVGID_00000148650842443725777850000006035072156197258131_" x="1" y="0" width="384" height="384"/>
				</defs>
				<clipPath id="SVGID_00000006697270548619426550000002064679752899150738_">
					<use xlink:href="#SVGID_00000148650842443725777850000006035072156197258131_"  style="overflow:visible;"/>
				</clipPath>
				<g style="clip-path:url(#SVGID_00000006697270548619426550000002064679752899150738_);">
					
						<use xlink:href="#c"  width="384" height="384" x="-192" y="-192" transform="matrix(1 0 0 1 193 192.0004)" style="overflow:visible;"/>
				</g>
			</g>
		</g>
	</g>
</g>
<path class="st3" d="M65,232h88l40,36l40-36h88"/>
</svg>
