<?xml version="1.0" encoding="UTF-8"?>
<svg id="Layer_1" data-name="Layer 1" xmlns="http://www.w3.org/2000/svg" xmlns:xlink="http://www.w3.org/1999/xlink" viewBox="0 0 300 300">
  <defs>
    <linearGradient id="linear-gradient" x1="77.99" y1="803.28" x2="222.01" y2="1052.72" gradientTransform="translate(0 -778)" gradientUnits="userSpaceOnUse">
      <stop offset="0" stop-color="#6b7280"/>
      <stop offset=".5" stop-color="#6b7280"/>
      <stop offset="1" stop-color="#374151"/>
    </linearGradient>
  </defs>
  <path d="m150,294c79.5,0,144-64.5,144-144S229.5,6,150,6,6,70.5,6,150s64.5,144,144,144Z" style="fill: url(#linear-gradient); stroke: #e5e7eb; stroke-miterlimit: 10; stroke-width: 12px;"/>
  <path d="m150,94v-48m108,104h-48m-116,0h-48m180-68l-24,24m-104,0l-24-24m128,112l24,24m-152,0l24-24" style="fill: none; stroke: #9ca3af; stroke-linecap: round; stroke-linejoin: round; stroke-width: 6px;"/>
  <path d="m137.6,170.6c11.4,6.8,26.1,3.2,32.9-8.2,6.8-11.4,3.2-26.1-8.2-32.9s-26.1-3.1-32.9,8.2c-6.8,11.3-3.1,26,8.2,32.9Z" style="fill: #ef4444; stroke-width: 0px;"/>
  <path d="m135.1,174.2l61.8-102.9" style="fill: none; stroke: #ef4444; stroke-linecap: round; stroke-miterlimit: 10; stroke-width: 12px;"/>
</svg>