<?xml version="1.0" encoding="utf-8"?>
<!-- Generator: Adobe Illustrator 28.0.0, SVG Export Plug-In . SVG Version: 6.00 Build 0)  -->
<svg version="1.1" id="Layer_1" xmlns="http://www.w3.org/2000/svg" xmlns:xlink="http://www.w3.org/1999/xlink" x="0px" y="0px"
	 viewBox="0 0 100 100" style="enable-background:new 0 0 100 100;" xml:space="preserve">
<style type="text/css">
	.st0{fill:#308CCE;}
</style>
<path id="Vector" class="st0" d="M11.5,61.3c0-4.6,1.2-9.9,3.7-15.8s5.7-11.8,9.7-17.3C33,17.4,40.1,9.3,46,3.8L49.9,0
	c1.3,1.4,2.8,2.6,4.3,3.8C56.3,6,59.6,9.6,64,14.7c4.4,5.1,8.2,9.7,11.3,13.9c3.7,5.3,6.9,11,9.4,17c2.5,6,3.8,11.3,3.8,15.8
	c0,5.2-1,10.2-3,15c-2,4.8-4.7,8.9-8.2,12.3c-3.4,3.5-7.5,6.2-12.3,8.3c-4.8,2-9.8,3.1-15.1,3.1c-5.2,0-10.1-1-14.9-3
	c-4.7-2-8.8-4.7-12.3-8.1c-3.4-3.4-6.2-7.5-8.2-12.3C12.5,71.9,11.5,66.8,11.5,61.3z M23.2,46c0,4.3,0.9,7.8,2.7,10.4
	c1.8,2.6,4.6,3.9,8.3,3.9c3.7,0,6.5-1.3,8.4-3.9c1.8-2.6,2.8-6,2.8-10.4c-0.1-4.4-1-7.8-2.8-10.5c-1.8-2.6-4.6-3.9-8.4-3.9
	c-3.7,0-6.4,1.3-8.3,3.9C24.1,38.2,23.2,41.6,23.2,46z M31.4,46c0-0.8,0-1.4,0-1.8c0-0.4,0.1-1,0.1-1.7c0.1-0.7,0.1-1.3,0.3-1.7
	c0.2-0.4,0.3-0.8,0.5-1.3c0.2-0.4,0.5-0.8,0.8-0.9c0.4-0.2,0.7-0.3,1.2-0.3c0.7,0,1.3,0.2,1.7,0.6c0.4,0.4,0.7,1.1,0.9,2
	c0.2,0.9,0.3,1.7,0.3,2.4c0.1,0.7,0.1,1.6,0.1,2.7c0,1.2,0,2.1-0.1,2.7c-0.1,0.6-0.2,1.4-0.3,2.4c-0.2,0.9-0.5,1.6-0.9,2
	c-0.4,0.4-1,0.6-1.7,0.6c-0.5,0-0.8-0.1-1.2-0.3c-0.4-0.2-0.6-0.5-0.8-0.9c-0.2-0.4-0.4-0.9-0.5-1.3c-0.1-0.4-0.2-1-0.3-1.7
	c-0.1-0.7-0.1-1.3-0.1-1.7C31.4,47.4,31.4,46.8,31.4,46z M34.5,86.5h6.9l25.9-56.1h-7L34.5,86.5z M56.8,70.9c0.1,4.4,1,7.8,2.9,10.5
	c1.8,2.6,4.6,3.9,8.3,3.9c3.7,0,6.5-1.3,8.3-3.9c1.8-2.6,2.7-6.1,2.8-10.5c-0.1-4.4-0.9-7.8-2.8-10.4c-1.8-2.6-4.6-3.9-8.3-3.9
	c-3.7,0-6.5,1.3-8.3,3.9C57.8,63,56.9,66.5,56.8,70.9z M65,70.9c0-1.2,0-2.1,0.1-2.7c0.1-0.6,0.2-1.4,0.3-2.4c0.2-0.9,0.5-1.6,0.9-2
	c0.4-0.4,1-0.6,1.7-0.6c0.5,0,0.9,0.1,1.2,0.3c0.4,0.2,0.6,0.5,0.8,1c0.2,0.5,0.4,0.9,0.5,1.3c0.2,0.4,0.2,0.9,0.3,1.7l0.1,1.7v1.8
	v1.8l-0.1,1.7l-0.3,1.7L70,77.3l-0.8,1l-1.2,0.3c-0.7,0-1.3-0.2-1.7-0.6c-0.4-0.4-0.7-1.1-0.9-2c-0.2-0.9-0.3-1.7-0.3-2.4
	C65,73,65,72.1,65,70.9z"/>
</svg>
