<?xml version="1.0" encoding="utf-8"?>
<!-- Generator: Adobe Illustrator 28.0.0, SVG Export Plug-In . SVG Version: 6.00 Build 0)  -->
<svg version="1.1" id="Layer_1" xmlns="http://www.w3.org/2000/svg" xmlns:xlink="http://www.w3.org/1999/xlink" x="0px" y="0px"
	 viewBox="0 0 546.1 546.1" style="enable-background:new 0 0 546.1 546.1;" xml:space="preserve">
<path d="M534.7,141.1c-6.3-23.6-24.8-42.3-48.3-48.6c-42.6-11.5-213.4-11.5-213.4-11.5s-170.8,0-213.4,11.5
	c-23.5,6.3-42,24.9-48.3,48.6C0,184,0,273.5,0,273.5s0,89.4,11.4,132.3c6.3,23.6,24.8,41.5,48.3,47.8
	c42.6,11.5,213.4,11.5,213.4,11.5s170.8,0,213.4-11.5c23.5-6.3,42-24.2,48.3-47.8c11.4-42.9,11.4-132.3,11.4-132.3
	S546.1,184,534.7,141.1z M217.2,354.7V192.3L360,273.5L217.2,354.7L217.2,354.7z"/>
</svg>
