<?xml version="1.0" encoding="utf-8"?>
<!-- Generator: Adobe Illustrator 28.0.0, SVG Export Plug-In . SVG Version: 6.00 Build 0)  -->
<svg version="1.1" id="Layer_1" xmlns="http://www.w3.org/2000/svg" xmlns:xlink="http://www.w3.org/1999/xlink" x="0px" y="0px"
	 viewBox="0 0 23.8 23.8" style="enable-background:new 0 0 23.8 23.8;" xml:space="preserve">
<g id="allsensorsicon">
	<g id="Group">
		<path id="Vector" d="M7.7,7.2c0,0.7-0.6,1.3-1.3,1.3c-0.7,0-1.3-0.6-1.3-1.3S5.7,6,6.4,6C7.1,6,7.7,6.5,7.7,7.2z"/>
		<path id="Vector_2" d="M6.4,13.6c0.7,0,1.3-0.6,1.3-1.3c0-0.7-0.6-1.3-1.3-1.3c-0.7,0-1.3,0.6-1.3,1.3C5.1,13,5.7,13.6,6.4,13.6z"
			/>
		<path id="Vector_3" d="M7.7,17.4c0,0.7-0.6,1.3-1.3,1.3c-0.7,0-1.3-0.6-1.3-1.3s0.6-1.3,1.3-1.3C7.1,16.1,7.7,16.7,7.7,17.4z"/>
		<path id="Vector_4" d="M11.1,6.8c-0.5,0-0.9,0.4-0.9,0.9c0,0.5,0.4,0.8,0.9,0.8h6.8c0.5,0,0.9-0.4,0.9-0.8c0-0.5-0.4-0.9-0.9-0.9
			H11.1z"/>
		<path id="Vector_5" d="M10.2,12.8c0-0.5,0.4-0.9,0.9-0.9h6.8c0.5,0,0.9,0.4,0.9,0.9s-0.4,0.9-0.9,0.9h-6.8
			C10.6,13.6,10.2,13.2,10.2,12.8z"/>
		<path id="Vector_6" d="M11.1,17c-0.5,0-0.9,0.4-0.9,0.9c0,0.5,0.4,0.8,0.9,0.8h6.8c0.5,0,0.9-0.4,0.9-0.8c0-0.5-0.4-0.9-0.9-0.9
			H11.1z"/>
		<path id="Vector_7" d="M0,3.4C0,1.5,1.5,0,3.4,0h17c1.9,0,3.4,1.5,3.4,3.4v17c0,1.9-1.5,3.4-3.4,3.4h-17c-1.9,0-3.4-1.5-3.4-3.4
			V3.4z M3.4,1.7c-0.9,0-1.7,0.8-1.7,1.7v17c0,0.9,0.8,1.7,1.7,1.7h17c0.9,0,1.7-0.8,1.7-1.7v-17c0-0.9-0.8-1.7-1.7-1.7H3.4z"/>
	</g>
</g>
</svg>
