<?xml version="1.0" encoding="utf-8"?>
<!-- Generator: Adobe Illustrator 28.0.0, SVG Export Plug-In . SVG Version: 6.00 Build 0)  -->
<svg version="1.1" id="Layer_1" xmlns="http://www.w3.org/2000/svg" xmlns:xlink="http://www.w3.org/1999/xlink" x="0px" y="0px"
	 viewBox="0 0 23.7 23" style="enable-background:new 0 0 23.7 23;" xml:space="preserve">
<style type="text/css">
	.st0{fill:none;stroke:#000000;stroke-width:2;stroke-linecap:round;stroke-linejoin:round;}
</style>
<g id="dashboardicon">
	<g id="Group">
		<path id="Vector" class="st0" d="M7,1H3.4C2.1,1,1,2,1,3.3v3.5c0,1.3,1.1,2.3,2.4,2.3H7c1.3,0,2.4-1,2.4-2.3V3.3C9.5,2,8.4,1,7,1z
			"/>
		<path id="Vector_2" class="st0" d="M7,13.8H3.4c-1.3,0-2.4,1-2.4,2.3v3.5C1,21,2.1,22,3.4,22H7c1.3,0,2.4-1,2.4-2.3v-3.5
			C9.5,14.9,8.4,13.8,7,13.8z"/>
		<path id="Vector_3" class="st0" d="M20.3,1h-3.6c-1.3,0-2.4,1-2.4,2.3v3.5c0,1.3,1.1,2.3,2.4,2.3h3.6c1.3,0,2.4-1,2.4-2.3V3.3
			C22.7,2,21.7,1,20.3,1z"/>
		<path id="Vector_4" class="st0" d="M20.3,13.8h-3.6c-1.3,0-2.4,1-2.4,2.3v3.5c0,1.3,1.1,2.3,2.4,2.3h3.6c1.3,0,2.4-1,2.4-2.3v-3.5
			C22.7,14.9,21.7,13.8,20.3,13.8z"/>
	</g>
</g>
</svg>
