<?xml version="1.0" encoding="utf-8"?>
<!-- Generator: Adobe Illustrator 28.0.0, SVG Export Plug-In . SVG Version: 6.00 Build 0)  -->
<svg version="1.1" id="Layer_1" xmlns="http://www.w3.org/2000/svg" xmlns:xlink="http://www.w3.org/1999/xlink" x="0px" y="0px"
	 viewBox="0 0 278 278" style="enable-background:new 0 0 278 278;" xml:space="preserve">
<style type="text/css">
	.st0{clip-path:url(#SVGID_00000019671860043249559750000005176190765212155833_);}
	.st1{clip-path:url(#SVGID_00000024002260103125317620000005552404450873014718_);}
	.st2{fill:#EF4444;}
	.st3{fill:none;stroke:#EF4444;stroke-width:24;stroke-linecap:round;stroke-miterlimit:10;}
	.st4{clip-path:url(#SVGID_00000096030649402386026820000017926089848534477963_);}
	.st5{fill:url(#SVGID_00000111183818042266822830000011539732379747990168_);}
	
		.st6{fill:none;stroke:url(#SVGID_00000145762517890132803350000012854534993154308283_);stroke-width:6;stroke-linecap:round;stroke-linejoin:round;}
</style>
<g>
	<defs>
		<rect id="SVGID_1_" x="80" width="118" height="278"/>
	</defs>
	<clipPath id="SVGID_00000007412054136908091580000010925398135678134168_">
		<use xlink:href="#SVGID_1_"  style="overflow:visible;"/>
	</clipPath>
	<g style="clip-path:url(#SVGID_00000007412054136908091580000010925398135678134168_);">
		<g>
			<defs>
				<rect id="SVGID_00000003080312774014415250000007933945781446342803_" x="103" y="87" width="72" height="168"/>
			</defs>
			<clipPath id="SVGID_00000012469784725944092360000004844298008287901350_">
				<use xlink:href="#SVGID_00000003080312774014415250000007933945781446342803_"  style="overflow:visible;"/>
			</clipPath>
			<g style="clip-path:url(#SVGID_00000012469784725944092360000004844298008287901350_);">
				<path class="st2" d="M139,255c19.9,0,36-16.1,36-36s-16.1-36-36-36s-36,16.1-36,36S119.1,255,139,255z"/>
				<path class="st3" d="M139,99v120"/>
			</g>
		</g>
		<g>
			<defs>
				<rect id="SVGID_00000124149186488779978900000013731576711186575267_" x="80" width="118" height="278"/>
			</defs>
			<clipPath id="SVGID_00000155862367746677991570000011109250439402751127_">
				<use xlink:href="#SVGID_00000124149186488779978900000013731576711186575267_"  style="overflow:visible;"/>
			</clipPath>
			<g style="clip-path:url(#SVGID_00000155862367746677991570000011109250439402751127_);">
				
					<linearGradient id="SVGID_00000179610323654176589540000008766396543433806517_" gradientUnits="userSpaceOnUse" x1="72.7521" y1="243.6724" x2="196.3521" y2="29.5724" gradientTransform="matrix(1 0 0 -1 0 280)">
					<stop  offset="0" style="stop-color:#515A69;stop-opacity:0.1"/>
					<stop  offset="0.5" style="stop-color:#6B7280;stop-opacity:0.1"/>
					<stop  offset="1" style="stop-color:#384354;stop-opacity:0.1"/>
				</linearGradient>
				<path style="fill:url(#SVGID_00000179610323654176589540000008766396543433806517_);" d="M195,218.2c0,31.4-25,56.8-56,56.8
					s-56-25.4-56-56.8c0-9.1,2.1-18.1,6.3-26.2c4.2-8.1,10.2-15.1,17.7-20.4V35.5c0-8.5,3.4-16.6,9.4-22.6c6-6,14.1-9.4,22.6-9.4
					s16.6,3.4,22.6,9.4c6,6,9.4,14.1,9.4,22.6v136c7.5,5.3,13.5,12.3,17.7,20.4C192.9,200,195,209.1,195,218.2z M143,83h28H143z
					 M143,51h28H143z M143,115h28H143z"/>
				
					<linearGradient id="SVGID_00000013181244146333323810000004304879546363358114_" gradientUnits="userSpaceOnUse" x1="71.2521" y1="246.2723" x2="197.8521" y2="26.9723" gradientTransform="matrix(1 0 0 -1 0 280)">
					<stop  offset="0" style="stop-color:#D4D7DD"/>
					<stop  offset="0.5" style="stop-color:#D4D7DD"/>
					<stop  offset="1" style="stop-color:#BEC1C6"/>
				</linearGradient>
				
					<path style="fill:none;stroke:url(#SVGID_00000013181244146333323810000004304879546363358114_);stroke-width:6;stroke-linecap:round;stroke-linejoin:round;" d="
					M143,83h28 M143,51h28 M143,115h28 M195,218.2c0,31.4-25,56.8-56,56.8s-56-25.4-56-56.8c0-9.1,2.1-18.1,6.3-26.2
					c4.2-8.1,10.2-15.1,17.7-20.4V35.5c0-8.5,3.4-16.6,9.4-22.6c6-6,14.1-9.4,22.6-9.4s16.6,3.4,22.6,9.4c6,6,9.4,14.1,9.4,22.6v136
					c7.5,5.3,13.5,12.3,17.7,20.4C192.9,200,195,209.1,195,218.2z"/>
			</g>
		</g>
	</g>
</g>
</svg>
