<?xml version="1.0" encoding="utf-8"?>
<!-- Generator: Adobe Illustrator 28.0.0, SVG Export Plug-In . SVG Version: 6.00 Build 0)  -->
<svg version="1.1" id="Layer_1" xmlns="http://www.w3.org/2000/svg" xmlns:xlink="http://www.w3.org/1999/xlink" x="0px" y="0px"
	 viewBox="0 0 278 278" style="enable-background:new 0 0 278 278;" xml:space="preserve">
<style type="text/css">
	.st0{clip-path:url(#SVGID_00000152967917280993491250000009849940780450032280_);}
	.st1{clip-path:url(#SVGID_00000016034184043438535680000003608492699382146440_);}
	.st2{fill:#2885C7;}
	.st3{fill:none;stroke:#2885C7;stroke-width:24;stroke-linecap:round;stroke-miterlimit:10;}
	.st4{clip-path:url(#SVGID_00000074420101851872100960000003118856555325024421_);}
	.st5{fill:url(#SVGID_00000090268109277430987870000011722581945183752886_);}
	
		.st6{fill:none;stroke:url(#SVGID_00000032616828801065642370000008389631500313586064_);stroke-width:6;stroke-linecap:round;stroke-linejoin:round;}
	.st7{fill:#2A81BF;}
</style>
<g>
	<defs>
		<rect id="SVGID_1_" x="80" width="118" height="278"/>
	</defs>
	<clipPath id="SVGID_00000109004336804021179040000016429772434558322848_">
		<use xlink:href="#SVGID_1_"  style="overflow:visible;"/>
	</clipPath>
	<g style="clip-path:url(#SVGID_00000109004336804021179040000016429772434558322848_);">
		<g>
			<defs>
				<rect id="SVGID_00000181070935337251917250000011423499912203226755_" x="103" y="87" width="72" height="168"/>
			</defs>
			<clipPath id="SVGID_00000079482114130749922260000016794506742882472890_">
				<use xlink:href="#SVGID_00000181070935337251917250000011423499912203226755_"  style="overflow:visible;"/>
			</clipPath>
			<g style="clip-path:url(#SVGID_00000079482114130749922260000016794506742882472890_);">
				<path class="st2" d="M139,255c19.9,0,36-16.1,36-36s-16.1-36-36-36s-36,16.1-36,36S119.1,255,139,255z"/>
				<path class="st3" d="M139,99v120"/>
			</g>
		</g>
		<g>
			<defs>
				<rect id="SVGID_00000093167711502912831160000015929631592255069375_" x="80" width="118" height="278"/>
			</defs>
			<clipPath id="SVGID_00000155844168116578147240000009609064604468273056_">
				<use xlink:href="#SVGID_00000093167711502912831160000015929631592255069375_"  style="overflow:visible;"/>
			</clipPath>
			<g style="clip-path:url(#SVGID_00000155844168116578147240000009609064604468273056_);">
				
					<linearGradient id="SVGID_00000045612254973102080720000004731861786363683508_" gradientUnits="userSpaceOnUse" x1="72.7521" y1="243.6724" x2="196.3521" y2="29.5724" gradientTransform="matrix(1 0 0 -1 0 280)">
					<stop  offset="0" style="stop-color:#515A69;stop-opacity:0.1"/>
					<stop  offset="0.5" style="stop-color:#6B7280;stop-opacity:0.1"/>
					<stop  offset="1" style="stop-color:#384354;stop-opacity:0.1"/>
				</linearGradient>
				<path style="fill:url(#SVGID_00000045612254973102080720000004731861786363683508_);" d="M195,218.2c0,31.4-25,56.8-56,56.8
					s-56-25.4-56-56.8c0-9.1,2.1-18.1,6.3-26.2c4.2-8.1,10.2-15.1,17.7-20.4V35.5c0-8.5,3.4-16.6,9.4-22.6c6-6,14.1-9.4,22.6-9.4
					s16.6,3.4,22.6,9.4c6,6,9.4,14.1,9.4,22.6v136c7.5,5.3,13.5,12.3,17.7,20.4C192.9,200,195,209.1,195,218.2z M143,83h28H143z
					 M143,51h28H143z M143,115h28H143z"/>
				
					<linearGradient id="SVGID_00000006682416725964205420000007253805048179650437_" gradientUnits="userSpaceOnUse" x1="71.2521" y1="246.2723" x2="197.8521" y2="26.9723" gradientTransform="matrix(1 0 0 -1 0 280)">
					<stop  offset="0" style="stop-color:#D4D7DD"/>
					<stop  offset="0.5" style="stop-color:#D4D7DD"/>
					<stop  offset="1" style="stop-color:#BEC1C6"/>
				</linearGradient>
				
					<path style="fill:none;stroke:url(#SVGID_00000006682416725964205420000007253805048179650437_);stroke-width:6;stroke-linecap:round;stroke-linejoin:round;" d="
					M143,83h28 M143,51h28 M143,115h28 M195,218.2c0,31.4-25,56.8-56,56.8s-56-25.4-56-56.8c0-9.1,2.1-18.1,6.3-26.2
					c4.2-8.1,10.2-15.1,17.7-20.4V35.5c0-8.5,3.4-16.6,9.4-22.6c6-6,14.1-9.4,22.6-9.4s16.6,3.4,22.6,9.4c6,6,9.4,14.1,9.4,22.6v136
					c7.5,5.3,13.5,12.3,17.7,20.4C192.9,200,195,209.1,195,218.2z"/>
			</g>
		</g>
	</g>
</g>
<path class="st7" d="M255.5,154c-1.2,0-2.3,0.5-3.2,1.3L233,173.7l-19.3-18.4c-0.9-0.8-2-1.3-3.2-1.3s-2.3,0.5-3.2,1.3
	c-0.4,0.4-0.7,0.8-1,1.4c-0.2,0.5-0.3,1.1-0.3,1.6c0,0.6,0.1,1.1,0.3,1.6c0.2,0.5,0.6,1,1,1.4l22.5,21.4c0.9,0.8,2,1.3,3.2,1.3
	s2.3-0.5,3.2-1.3l22.5-21.4c0.4-0.4,0.7-0.8,1-1.4c0.2-0.5,0.3-1.1,0.3-1.6c0-0.6-0.1-1.1-0.3-1.6c-0.2-0.5-0.6-1-1-1.4
	C257.8,154.5,256.7,154,255.5,154z"/>
<path class="st7" d="M255.5,127c-1.2,0-2.3,0.5-3.2,1.3L233,146.7l-19.3-18.4c-0.9-0.8-2-1.3-3.2-1.3s-2.3,0.5-3.2,1.3
	c-0.4,0.4-0.7,0.8-1,1.4c-0.2,0.5-0.3,1.1-0.3,1.6s0.1,1.1,0.3,1.6c0.2,0.5,0.6,1,1,1.4l22.5,21.4c0.9,0.8,2,1.3,3.2,1.3
	s2.3-0.5,3.2-1.3l22.5-21.4c0.4-0.4,0.7-0.8,1-1.4c0.2-0.5,0.3-1.1,0.3-1.6s-0.1-1.1-0.3-1.6c-0.2-0.5-0.6-1-1-1.4
	C257.8,127.5,256.7,127,255.5,127z"/>
<path class="st7" d="M255.5,100c-1.2,0-2.3,0.5-3.2,1.3L233,119.7l-19.3-18.4c-0.9-0.8-2-1.3-3.2-1.3s-2.3,0.5-3.2,1.3
	c-0.4,0.4-0.7,0.8-1,1.4c-0.2,0.5-0.3,1.1-0.3,1.6s0.1,1.1,0.3,1.6c0.2,0.5,0.6,1,1,1.4l22.5,21.4c0.9,0.8,2,1.3,3.2,1.3
	s2.3-0.5,3.2-1.3l22.5-21.4c0.4-0.4,0.7-0.8,1-1.4c0.2-0.5,0.3-1.1,0.3-1.6s-0.1-1.1-0.3-1.6c-0.2-0.5-0.6-1-1-1.4
	C257.8,100.5,256.7,100,255.5,100z"/>
</svg>
