<?xml version="1.0" encoding="UTF-8"?><svg id="a" xmlns="http://www.w3.org/2000/svg" viewBox="0 0 173.62 241.78"><defs><style>.b{fill:#15b1fc;stroke:#000;stroke-miterlimit:10;stroke-width:20px;}</style></defs><path class="b" d="M87.05,10q-5,0-14.01,10.62C41.52,57.77,18.57,95.32,12.16,126.62c-8.37,45.56,7.03,96.34,56.55,103.7,46.72,7.07,87.19-11.05,93.71-63.76,7.03-52.88-17.43-97.28-61.03-145.19q-10.35-11.37-14.35-11.37Z"/><path d="M137.24,166.74c-1.08,.65-1.39,1.31-2.72,5.54-6.96,22.39-23.82,36.83-39.88,34.21-2.44-.38-3.37-.33-4.34,.25-1.69,1.05-2.14,3.06-1.07,4.84,.81,1.35,1.02,1.45,4.2,1.97,21.9,3.58,41.56-17.34,47.96-39.28,1.46-4.75,1.47-4.79,.62-6.2-1.07-1.79-3.05-2.37-4.78-1.33Z"/></svg>