<?xml version="1.0" encoding="UTF-8"?><svg id="a" xmlns="http://www.w3.org/2000/svg" viewBox="0 0 226.77 226.77"><defs><style>.b{fill:none;stroke:#000;stroke-miterlimit:10;stroke-width:15px;}</style></defs><path d="M113.39,20c51.49,0,93.39,41.89,93.39,93.39s-41.89,93.39-93.39,93.39S20,164.88,20,113.39,61.89,20,113.39,20m0-20C50.76,0,0,50.76,0,113.39s50.76,113.39,113.39,113.39,113.39-50.76,113.39-113.39S176.01,0,113.39,0h0Z"/><path class="b" d="M45.35,161.14s-.15-10.61,65.26-126.36c1.8-3.18,6.4-3.14,8.14,.07,64.03,118.03,62.46,125.43,62.66,126.29,2.67,11.4-52.66-27.79-64.49-36.72-1.27-.96-3.01-.97-4.29-.03-11.81,8.64-68.89,46.36-67.29,36.76Z"/></svg>