<?xml version="1.0" encoding="utf-8"?>
<!-- Generator: Adobe Illustrator 28.0.0, SVG Export Plug-In . SVG Version: 6.00 Build 0)  -->
<svg version="1.1" id="Layer_1" xmlns="http://www.w3.org/2000/svg" xmlns:xlink="http://www.w3.org/1999/xlink" x="0px" y="0px"
	 viewBox="0 0 278 278" style="enable-background:new 0 0 278 278;" xml:space="preserve">
<style type="text/css">
	.st0{fill:url(#SVGID_1_);stroke:#F8AF18;stroke-width:6;stroke-miterlimit:10;}
	.st1{fill:none;stroke:#FBBF24;stroke-width:24;stroke-linecap:round;stroke-miterlimit:10;}
	.st2{fill:none;}
	.st3{clip-path:url(#SVGID_00000057117975782750592110000017700455549892389285_);}
	.st4{clip-path:url(#SVGID_00000101784136199177971300000002525194032043365285_);}
	.st5{fill:#EF4444;}
	.st6{fill:none;stroke:#EF4444;stroke-width:24;stroke-linecap:round;stroke-miterlimit:10;}
	.st7{clip-path:url(#SVGID_00000111190055607299652420000016957735689168436917_);}
	.st8{fill:url(#SVGID_00000165229171166014670490000006336579997832849804_);}
	
		.st9{fill:none;stroke:url(#SVGID_00000021839073206295193100000014658283043449316277_);stroke-width:6;stroke-linecap:round;stroke-linejoin:round;}
	.st10{fill:#E34647;}
</style>
<symbol  id="b" viewBox="-192 -192 384 384">
	
		<linearGradient id="SVGID_1_" gradientUnits="userSpaceOnUse" x1="-617.9837" y1="-648.7718" x2="-534.0163" y2="-503.2282" gradientTransform="matrix(1 0 0 1 576 576)">
		<stop  offset="0" style="stop-color:#FBBF24"/>
		<stop  offset="0.5" style="stop-color:#FBBF24"/>
		<stop  offset="1" style="stop-color:#F59E0B"/>
	</linearGradient>
	<circle class="st0" cx="0" cy="0" r="84"/>
	<path class="st1" d="M0-130.3V-180 M0,180v-49.7 M92.2-92.2l35-35 M-127.2,127.2l35.1-35.1 M-92.1-92.3l-35-35 M127.4,127.2
		L92.3,92.1 M-130.3,0H-180 M180,0h-49.7"/>
</symbol>
<rect x="33.5" y="24.2" transform="matrix(0.6441 -0.7649 0.7649 0.6441 -34.2038 109.9075)" class="st2" width="135" height="135"/>
<rect x="33.5" y="24.3" transform="matrix(0.6441 -0.7649 0.7649 0.6441 -34.2122 109.8631)" class="st2" width="134.9" height="134.9"/>
<g>
	<defs>
		<polygon id="SVGID_00000050646191456673905490000011720482490197979300_" points="5.9,99.8 92.8,-3.4 107.1,27.5 109.2,186.7 		
			"/>
	</defs>
	<clipPath id="SVGID_00000044167728798656716010000015384455424320453802_">
		<use xlink:href="#SVGID_00000050646191456673905490000011720482490197979300_"  style="overflow:visible;"/>
	</clipPath>
	
		<g transform="matrix(1 0 0 1 0 -7.629395e-06)" style="clip-path:url(#SVGID_00000044167728798656716010000015384455424320453802_);">
		
			<use xlink:href="#b"  width="384" height="384" x="-192" y="-192" transform="matrix(0.2263 -0.2688 0.2688 0.2263 101.0053 91.6537)" style="overflow:visible;"/>
	</g>
</g>
<g>
	<g>
		<g>
			<g>
				<defs>
					<rect id="SVGID_00000133487166634884573660000012650042659503842979_" x="80" width="118" height="278"/>
				</defs>
				<clipPath id="SVGID_00000008149707729168670680000003638815989529382069_">
					<use xlink:href="#SVGID_00000133487166634884573660000012650042659503842979_"  style="overflow:visible;"/>
				</clipPath>
				<g style="clip-path:url(#SVGID_00000008149707729168670680000003638815989529382069_);">
					<g>
						<g>
							<g>
								<g>
									<defs>
										<rect id="SVGID_00000103958048195911839790000013228272977515576459_" x="103" y="87" width="72" height="168"/>
									</defs>
									<clipPath id="SVGID_00000119090086212436177750000014576126333931252396_">
										<use xlink:href="#SVGID_00000103958048195911839790000013228272977515576459_"  style="overflow:visible;"/>
									</clipPath>
									<g style="clip-path:url(#SVGID_00000119090086212436177750000014576126333931252396_);">
										<path class="st5" d="M139,255c19.9,0,36-16.1,36-36s-16.1-36-36-36s-36,16.1-36,36S119.1,255,139,255z"/>
										<path class="st6" d="M139,99v120"/>
									</g>
								</g>
							</g>
						</g>
					</g>
					<g>
						<g>
							<g>
								<g>
									<defs>
										<rect id="SVGID_00000141451589282782305540000001649328664873105852_" x="80" width="118" height="278"/>
									</defs>
									<clipPath id="SVGID_00000062910389288024562430000000299583285955897510_">
										<use xlink:href="#SVGID_00000141451589282782305540000001649328664873105852_"  style="overflow:visible;"/>
									</clipPath>
									<g style="clip-path:url(#SVGID_00000062910389288024562430000000299583285955897510_);">
										
											<linearGradient id="SVGID_00000096769536541956518350000004873480756452213419_" gradientUnits="userSpaceOnUse" x1="72.7407" y1="1636.3342" x2="196.3407" y2="1850.4342" gradientTransform="matrix(1 0 0 1 0 -1600)">
											<stop  offset="0" style="stop-color:#515A69;stop-opacity:0.1"/>
											<stop  offset="0.5" style="stop-color:#6B7280;stop-opacity:0.1"/>
											<stop  offset="1" style="stop-color:#384354;stop-opacity:0.1"/>
										</linearGradient>
										<path style="fill:url(#SVGID_00000096769536541956518350000004873480756452213419_);" d="M195,218.2
											c0,31.4-25,56.8-56,56.8s-56-25.4-56-56.8c0-9.1,2.1-18.1,6.3-26.2c4.2-8.1,10.2-15.1,17.7-20.4V35.5
											c0-8.5,3.4-16.6,9.4-22.6s14.1-9.4,22.6-9.4s16.6,3.4,22.6,9.4S171,27,171,35.5v136c7.5,5.3,13.5,12.3,17.7,20.4
											C192.9,200,195,209.1,195,218.2z M143,83h28H143z M143,51h28H143z M143,115h28H143z"/>
										
											<linearGradient id="SVGID_00000165231119136304013560000007933266824396714907_" gradientUnits="userSpaceOnUse" x1="71.2407" y1="1633.7344" x2="197.8407" y2="1853.0343" gradientTransform="matrix(1 0 0 1 0 -1600)">
											<stop  offset="0" style="stop-color:#D4D7DD"/>
											<stop  offset="0.5" style="stop-color:#D4D7DD"/>
											<stop  offset="1" style="stop-color:#BEC1C6"/>
										</linearGradient>
										
											<path style="fill:none;stroke:url(#SVGID_00000165231119136304013560000007933266824396714907_);stroke-width:6;stroke-linecap:round;stroke-linejoin:round;" d="
											M143,83h28 M143,51h28 M143,115h28 M195,218.2c0,31.4-25,56.8-56,56.8s-56-25.4-56-56.8c0-9.1,2.1-18.1,6.3-26.2
											c4.2-8.1,10.2-15.1,17.7-20.4V35.5c0-8.5,3.4-16.6,9.4-22.6s14.1-9.4,22.6-9.4s16.6,3.4,22.6,9.4S171,27,171,35.5v136
											c7.5,5.3,13.5,12.3,17.7,20.4C192.9,200,195,209.1,195,218.2z"/>
									</g>
								</g>
							</g>
						</g>
					</g>
				</g>
			</g>
		</g>
	</g>
</g>
<path class="st10" d="M255.5,130c-1.2,0-2.3-0.5-3.2-1.3L233,110.3l-19.3,18.4c-0.9,0.8-2,1.3-3.2,1.3s-2.3-0.5-3.2-1.3
	c-0.4-0.4-0.7-0.8-1-1.4c-0.2-0.5-0.3-1.1-0.3-1.6s0.1-1.1,0.3-1.6s0.6-1,1-1.4l22.5-21.4c0.9-0.8,2-1.3,3.2-1.3s2.3,0.5,3.2,1.3
	l22.5,21.4c0.4,0.4,0.7,0.8,1,1.4c0.2,0.5,0.3,1.1,0.3,1.6s-0.1,1.1-0.3,1.6c-0.2,0.5-0.6,1-1,1.4C257.8,129.5,256.7,130,255.5,130z
	"/>
<path class="st10" d="M255.5,157c-1.2,0-2.3-0.5-3.2-1.3L233,137.3l-19.3,18.4c-0.9,0.8-2,1.3-3.2,1.3s-2.3-0.5-3.2-1.3
	c-0.4-0.4-0.7-0.8-1-1.4c-0.2-0.5-0.3-1.1-0.3-1.6c0-0.6,0.1-1.1,0.3-1.6s0.6-1,1-1.4l22.5-21.4c0.9-0.8,2-1.3,3.2-1.3
	s2.3,0.5,3.2,1.3l22.5,21.4c0.4,0.4,0.7,0.8,1,1.4c0.2,0.5,0.3,1.1,0.3,1.6c0,0.6-0.1,1.1-0.3,1.6c-0.2,0.5-0.6,1-1,1.4
	C257.8,156.5,256.7,157,255.5,157z"/>
<path class="st10" d="M255.5,184c-1.2,0-2.3-0.5-3.2-1.3L233,164.3l-19.3,18.4c-0.9,0.8-2,1.3-3.2,1.3s-2.3-0.5-3.2-1.3
	c-0.4-0.4-0.7-0.8-1-1.4c-0.2-0.5-0.3-1.1-0.3-1.6c0-0.6,0.1-1.1,0.3-1.6s0.6-1,1-1.4l22.5-21.4c0.9-0.8,2-1.3,3.2-1.3
	s2.3,0.5,3.2,1.3l22.5,21.4c0.4,0.4,0.7,0.8,1,1.4c0.2,0.5,0.3,1.1,0.3,1.6c0,0.6-0.1,1.1-0.3,1.6c-0.2,0.5-0.6,1-1,1.4
	C257.8,183.5,256.7,184,255.5,184z"/>
</svg>
