<svg width="232" height="246" viewBox="0 0 232 246" fill="none" xmlns="http://www.w3.org/2000/svg">
<g clip-path="url(#clip0_1_19)">
<path d="M82.9 3.61C34.2 75.61 2.89999 120.61 2.89999 164.31C2.89999 208.01 38.7 243.61 82.9 243.61C127.1 243.61 162.9 208.11 162.9 164.31C162.9 120.51 131.6 75.51 82.9 3.61Z" fill="url(#paint0_linear_1_19)" stroke="#2885C7" stroke-width="4" stroke-miterlimit="10"/>
</g>
<path d="M45.8 117.5C49 114.5 53.5667 113 59.5 113C65.4333 113 69.9667 114.5 73.1 117.5C76.3 120.433 77.9 124.567 77.9 129.9V137.9C77.9 143.1 76.3 147.167 73.1 150.1C69.9 153.033 65.3667 154.5 59.5 154.5C53.5 154.5 48.9333 153.033 45.8 150.1C42.6667 147.167 41.0667 143.1 41 137.9V129.9C41 124.567 42.6 120.433 45.8 117.5ZM117 115.9C117.124 116.349 117.134 116.822 117.03 117.276C116.925 117.73 116.708 118.151 116.4 118.5L63.4 191.8C62.6761 192.922 61.7216 193.876 60.6 194.6C59.1186 195.09 57.5575 195.294 56 195.2H51.6C50.3 195.2 49.5 194.8 49.1 194.1C48.9515 193.614 48.9381 193.096 49.0614 192.603C49.1848 192.11 49.4401 191.659 49.8 191.3L102.8 118C103.405 116.88 104.304 115.947 105.4 115.3C106.826 114.877 108.315 114.708 109.8 114.8H114.7C115.9 114.8 116.7 115.2 117 115.9ZM59.5 123.5C54.3667 123.5 51.8 125.833 51.8 130.5V137.2C51.8 141.867 54.3667 144.2 59.5 144.2C64.6333 144.2 67.2 141.867 67.2 137.2V130.4C67.2 125.8 64.6333 123.5 59.5 123.5ZM92.9 159.9C96.0333 156.9 100.6 155.4 106.6 155.4C112.6 155.4 117.133 156.9 120.2 159.9C123.4 162.9 125 167.033 125 172.3V180.3C125 185.5 123.4 189.567 120.2 192.5C117 195.433 112.433 196.933 106.5 197C100.567 197 96.0333 195.533 92.9 192.6C89.7667 189.667 88.1667 185.567 88.1 180.3V172.3C88.1 166.967 89.7 162.833 92.9 159.9ZM106.5 166C101.433 166 98.9 168.333 98.9 173V179.6C98.9 184.267 101.433 186.6 106.5 186.6C111.567 186.6 114.133 184.267 114.2 179.6V172.9C114.2 168.3 111.633 166 106.5 166Z" fill="white"/>
<path d="M226.505 111.995C225.31 111.994 224.163 111.528 223.305 110.695L204.005 92.2955L184.705 110.695C183.847 111.526 182.7 111.991 181.505 111.991C180.311 111.991 179.163 111.526 178.305 110.695C177.894 110.312 177.565 109.847 177.34 109.331C177.116 108.815 177 108.258 177 107.695C177 107.133 177.116 106.576 177.34 106.06C177.565 105.543 177.894 105.079 178.305 104.695L200.805 83.2955C201.663 82.4646 202.811 82 204.005 82C205.2 82 206.347 82.4646 207.205 83.2955L229.705 104.695C230.117 105.079 230.446 105.543 230.67 106.06C230.895 106.576 231.011 107.133 231.011 107.695C231.011 108.258 230.895 108.815 230.67 109.331C230.446 109.847 230.117 110.312 229.705 110.695C228.848 111.528 227.7 111.994 226.505 111.995Z" fill="#3392D6"/>
<path d="M226.505 138.995C225.31 138.994 224.163 138.528 223.305 137.695L204.005 119.295L184.705 137.695C183.847 138.526 182.7 138.991 181.505 138.991C180.311 138.991 179.163 138.526 178.305 137.695C177.894 137.312 177.565 136.847 177.34 136.331C177.116 135.815 177 135.258 177 134.695C177 134.133 177.116 133.576 177.34 133.06C177.565 132.543 177.894 132.079 178.305 131.695L200.805 110.295C201.663 109.465 202.811 109 204.005 109C205.2 109 206.347 109.465 207.205 110.295L229.705 131.695C230.117 132.079 230.446 132.543 230.67 133.06C230.895 133.576 231.011 134.133 231.011 134.695C231.011 135.258 230.895 135.815 230.67 136.331C230.446 136.847 230.117 137.312 229.705 137.695C228.848 138.528 227.7 138.994 226.505 138.995Z" fill="#3392D6"/>
<path d="M226.505 165.995C225.31 165.994 224.163 165.528 223.305 164.695L204.005 146.295L184.705 164.695C183.847 165.526 182.7 165.991 181.505 165.991C180.311 165.991 179.163 165.526 178.305 164.695C177.894 164.312 177.565 163.847 177.34 163.331C177.116 162.815 177 162.258 177 161.695C177 161.133 177.116 160.576 177.34 160.06C177.565 159.543 177.894 159.079 178.305 158.695L200.805 137.295C201.663 136.465 202.811 136 204.005 136C205.2 136 206.347 136.465 207.205 137.295L229.705 158.695C230.117 159.079 230.446 159.543 230.67 160.06C230.895 160.576 231.011 161.133 231.011 161.695C231.011 162.258 230.895 162.815 230.67 163.331C230.446 163.847 230.117 164.312 229.705 164.695C228.848 165.528 227.7 165.994 226.505 165.995Z" fill="#3392D6"/>
<defs>
<linearGradient id="paint0_linear_1_19" x1="15.7" y1="42.31" x2="125.1" y2="231.71" gradientUnits="userSpaceOnUse">
<stop stop-color="#3392D6"/>
<stop offset="0.5" stop-color="#3392D6"/>
<stop offset="1" stop-color="#2477B2"/>
</linearGradient>
<clipPath id="clip0_1_19">
<rect width="164" height="245.6" fill="white" transform="translate(0.899994 0.00999451)"/>
</clipPath>
</defs>
</svg>
