<?xml version="1.0" encoding="utf-8"?>
<!-- Generator: Adobe Illustrator 28.0.0, SVG Export Plug-In . SVG Version: 6.00 Build 0)  -->
<svg version="1.1" id="Layer_1" xmlns="http://www.w3.org/2000/svg" xmlns:xlink="http://www.w3.org/1999/xlink" x="0px" y="0px"
	 viewBox="0 0 286.7 278" style="enable-background:new 0 0 286.7 278;" xml:space="preserve">
<style type="text/css">
	.st0{fill:url(#SVGID_1_);stroke:#2885C7;stroke-width:4;stroke-miterlimit:10;}
	.st1{fill:#EF4444;}
	.st2{fill:none;stroke:#EF4444;stroke-width:24;stroke-linecap:round;stroke-miterlimit:10;}
	
		.st3{fill:url(#SVGID_00000106831902091574331800000009274781620812212353_);stroke:url(#SVGID_00000121995555968923694270000012667722741851732401_);stroke-width:6;stroke-linecap:round;stroke-linejoin:round;}
	.st4{clip-path:url(#SVGID_00000123417250560146426760000016073861086746628258_);}
	.st5{clip-path:url(#SVGID_00000134960418870700226400000007883741106834158255_);}
	.st6{clip-path:url(#SVGID_00000093138009220026438410000000634063284753321390_);}
	.st7{clip-path:url(#SVGID_00000117650504529514981530000017369693189428138915_);}
	.st8{fill:url(#SVGID_00000134962919623074500440000008267479758581035650_);}
	
		.st9{fill:none;stroke:url(#SVGID_00000159468066010708311360000013551707571372587434_);stroke-width:6;stroke-linecap:round;stroke-linejoin:round;}
	.st10{fill:#E34647;}
</style>
<symbol  id="e" viewBox="-82 -122.8 164 245.6">
	
		<linearGradient id="SVGID_1_" gradientUnits="userSpaceOnUse" x1="-149.1354" y1="-203.2377" x2="-39.7742" y2="-13.9049" gradientTransform="matrix(1 0 0 1 82 122.8)">
		<stop  offset="0" style="stop-color:#3392D6"/>
		<stop  offset="0.5" style="stop-color:#3392D6"/>
		<stop  offset="1" style="stop-color:#2477B2"/>
	</linearGradient>
	<path class="st0" d="M0-119.2c-48.7,72-80,117-80,160.7s35.8,79.3,80,79.3s80-35.5,80-79.3S48.7-47.3,0-119.2z"/>
</symbol>
<symbol  id="g" viewBox="-36 -84 72 168">
	<circle class="st1" cx="0" cy="48" r="36"/>
	<path class="st2" d="M0-72V48"/>
</symbol>
<symbol  id="h" viewBox="-59 -138.8 118 277.5">
	
		<linearGradient id="SVGID_00000061439116609255339920000014809497668536534434_" gradientUnits="userSpaceOnUse" x1="-125.2196" y1="-241.689" x2="-1.6196" y2="-27.589" gradientTransform="matrix(1 0 0 1 59 138.8)">
		<stop  offset="0" style="stop-color:#515A69;stop-opacity:0.1"/>
		<stop  offset="0.5" style="stop-color:#6B7280;stop-opacity:0.1"/>
		<stop  offset="1" style="stop-color:#384354;stop-opacity:0.1"/>
	</linearGradient>
	
		<linearGradient id="SVGID_00000001627711644828891700000015335297611598151309_" gradientUnits="userSpaceOnUse" x1="-126.7196" y1="-244.289" x2="-0.1197" y2="-24.9889" gradientTransform="matrix(1 0 0 1 59 138.8)">
		<stop  offset="0" style="stop-color:#D4D7DD"/>
		<stop  offset="0.5" style="stop-color:#D4D7DD"/>
		<stop  offset="1" style="stop-color:#BEC1C6"/>
	</linearGradient>
	
		<path style="fill:url(#SVGID_00000061439116609255339920000014809497668536534434_);stroke:url(#SVGID_00000001627711644828891700000015335297611598151309_);stroke-width:6;stroke-linecap:round;stroke-linejoin:round;" d="
		M56,79c0,31.4-25,56.8-56,56.8S-56,110.4-56,79c0-18.5,8.9-35.9,24-46.6v-136.1c0-17.7,14.3-32,32-32s32,14.3,32,32v136
		C47.1,43.1,56.1,60.5,56,79z M4-56.1h28 M4-88.1h28 M4-24.1h28"/>
</symbol>
<g>
	<g>
		<defs>
			<path id="SVGID_00000002374578743906145350000009028360710561498530_" d="M166.8,275c-31,0-56-25.4-56-56.8
				c0-18.5,8.9-35.9,24-46.6V35.5C134.6,17.7,148.9,3.2,166.7,3h0.1H0.1v272H166.8z M170.8,83h28 M170.8,51h28 M170.8,115h28"/>
		</defs>
		<clipPath id="SVGID_00000021107782063631606140000014572313754540114077_">
			<use xlink:href="#SVGID_00000002374578743906145350000009028360710561498530_"  style="overflow:visible;"/>
		</clipPath>
		<g style="clip-path:url(#SVGID_00000021107782063631606140000014572313754540114077_);">
			<g>
				<defs>
					<rect id="SVGID_00000078760304153436267530000003285436455657681335_" x="6.7" y="16" width="164" height="245.6"/>
				</defs>
				<clipPath id="SVGID_00000144334140135402416720000017425957879373355397_">
					<use xlink:href="#SVGID_00000078760304153436267530000003285436455657681335_"  style="overflow:visible;"/>
				</clipPath>
				<g style="clip-path:url(#SVGID_00000144334140135402416720000017425957879373355397_);">
					
						<use xlink:href="#e"  width="164" height="245.6" x="-82" y="-122.8" transform="matrix(1 0 0 1 88.7116 138.842)" style="overflow:visible;"/>
				</g>
			</g>
		</g>
	</g>
</g>
<g>
	<g>
		<defs>
			<rect id="SVGID_00000167362245339187207720000013488189668080611741_" x="105.8" y="-1" width="118" height="278"/>
		</defs>
		<clipPath id="SVGID_00000179613113505835596450000000851760710466530225_">
			<use xlink:href="#SVGID_00000167362245339187207720000013488189668080611741_"  style="overflow:visible;"/>
		</clipPath>
		<g style="clip-path:url(#SVGID_00000179613113505835596450000000851760710466530225_);">
			<g>
				<g>
					<defs>
						<rect id="SVGID_00000127759030447259273800000013723795058921401247_" x="128.8" y="86" width="72" height="168"/>
					</defs>
					<clipPath id="SVGID_00000092450399981451072790000003539721037669404850_">
						<use xlink:href="#SVGID_00000127759030447259273800000013723795058921401247_"  style="overflow:visible;"/>
					</clipPath>
					<g style="clip-path:url(#SVGID_00000092450399981451072790000003539721037669404850_);">
						<path class="st1" d="M164.8,254c19.9,0,36-16.1,36-36s-16.1-36-36-36s-36,16.1-36,36S144.9,254,164.8,254z"/>
						<path class="st2" d="M164.8,98v120"/>
					</g>
				</g>
			</g>
			<g>
				<g>
					<defs>
						<rect id="SVGID_00000009555992126430530860000004633453333547487903_" x="105.8" y="-1" width="118" height="278"/>
					</defs>
					<clipPath id="SVGID_00000044884510596249864330000015921203677060533920_">
						<use xlink:href="#SVGID_00000009555992126430530860000004633453333547487903_"  style="overflow:visible;"/>
					</clipPath>
					<g style="clip-path:url(#SVGID_00000044884510596249864330000015921203677060533920_);">
						
							<linearGradient id="SVGID_00000045585704380206523130000010355230119522321801_" gradientUnits="userSpaceOnUse" x1="98.5246" y1="835.2952" x2="222.1246" y2="1049.3951" gradientTransform="matrix(1 0 0 1 0 -800)">
							<stop  offset="0" style="stop-color:#515A69;stop-opacity:0.1"/>
							<stop  offset="0.5" style="stop-color:#6B7280;stop-opacity:0.1"/>
							<stop  offset="1" style="stop-color:#384354;stop-opacity:0.1"/>
						</linearGradient>
						<path style="fill:url(#SVGID_00000045585704380206523130000010355230119522321801_);" d="M220.8,217.2c0,31.4-25,56.8-56,56.8
							s-56-25.4-56-56.8c0-9.1,2.1-18.1,6.3-26.2c4.2-8.1,10.2-15.1,17.7-20.4V34.5c0-8.5,3.4-16.6,9.4-22.6s14.1-9.4,22.6-9.4
							s16.6,3.4,22.6,9.4s9.4,14.1,9.4,22.6v136c7.5,5.3,13.5,12.3,17.7,20.4C218.7,199,220.8,208.1,220.8,217.2z M168.8,82h28
							H168.8z M168.8,50h28H168.8z M168.8,114h28H168.8z"/>
						
							<linearGradient id="SVGID_00000134930110713041414510000015465024854127885442_" gradientUnits="userSpaceOnUse" x1="97.0246" y1="832.6953" x2="223.6246" y2="1051.9952" gradientTransform="matrix(1 0 0 1 0 -800)">
							<stop  offset="0" style="stop-color:#D4D7DD"/>
							<stop  offset="0.5" style="stop-color:#D4D7DD"/>
							<stop  offset="1" style="stop-color:#BEC1C6"/>
						</linearGradient>
						
							<path style="fill:none;stroke:url(#SVGID_00000134930110713041414510000015465024854127885442_);stroke-width:6;stroke-linecap:round;stroke-linejoin:round;" d="
							M168.8,82h28 M168.8,50h28 M168.8,114h28 M220.8,217.2c0,31.4-25,56.8-56,56.8s-56-25.4-56-56.8c0-9.1,2.1-18.1,6.3-26.2
							c4.2-8.1,10.2-15.1,17.7-20.4V34.5c0-8.5,3.4-16.6,9.4-22.6s14.1-9.4,22.6-9.4s16.6,3.4,22.6,9.4s9.4,14.1,9.4,22.6v136
							c7.5,5.3,13.5,12.3,17.7,20.4C218.7,199,220.8,208.1,220.8,217.2z"/>
					</g>
				</g>
			</g>
		</g>
	</g>
</g>
<path class="st10" d="M281.3,129c-1.2,0-2.3-0.5-3.2-1.3l-19.3-18.4l-19.3,18.4c-0.9,0.8-2,1.3-3.2,1.3s-2.3-0.5-3.2-1.3
	c-0.4-0.4-0.7-0.8-1-1.4c-0.2-0.5-0.3-1.1-0.3-1.6s0.1-1.1,0.3-1.6s0.6-1,1-1.4l22.5-21.4c0.9-0.8,2-1.3,3.2-1.3
	c1.2,0,2.3,0.5,3.2,1.3l22.5,21.4c0.4,0.4,0.7,0.8,1,1.4c0.2,0.5,0.3,1.1,0.3,1.6s-0.1,1.1-0.3,1.6c-0.2,0.5-0.6,1-1,1.4
	C283.6,128.5,282.5,129,281.3,129z"/>
<path class="st10" d="M281.3,156c-1.2,0-2.3-0.5-3.2-1.3l-19.3-18.4l-19.3,18.4c-0.9,0.8-2,1.3-3.2,1.3s-2.3-0.5-3.2-1.3
	c-0.4-0.4-0.7-0.8-1-1.4c-0.2-0.5-0.3-1.1-0.3-1.6c0-0.6,0.1-1.1,0.3-1.6s0.6-1,1-1.4l22.5-21.4c0.9-0.8,2-1.3,3.2-1.3
	c1.2,0,2.3,0.5,3.2,1.3l22.5,21.4c0.4,0.4,0.7,0.8,1,1.4c0.2,0.5,0.3,1.1,0.3,1.6c0,0.6-0.1,1.1-0.3,1.6c-0.2,0.5-0.6,1-1,1.4
	C283.6,155.5,282.5,156,281.3,156z"/>
<path class="st10" d="M281.3,183c-1.2,0-2.3-0.5-3.2-1.3l-19.3-18.4l-19.3,18.4c-0.9,0.8-2,1.3-3.2,1.3s-2.3-0.5-3.2-1.3
	c-0.4-0.4-0.7-0.8-1-1.4c-0.2-0.5-0.3-1.1-0.3-1.6c0-0.6,0.1-1.1,0.3-1.6s0.6-1,1-1.4l22.5-21.4c0.9-0.8,2-1.3,3.2-1.3
	c1.2,0,2.3,0.5,3.2,1.3l22.5,21.4c0.4,0.4,0.7,0.8,1,1.4c0.2,0.5,0.3,1.1,0.3,1.6c0,0.6-0.1,1.1-0.3,1.6c-0.2,0.5-0.6,1-1,1.4
	C283.6,182.5,282.5,183,281.3,183z"/>
</svg>
