<?xml version="1.0" encoding="utf-8"?>
<!-- Generator: Adobe Illustrator 28.0.0, SVG Export Plug-In . SVG Version: 6.00 Build 0)  -->
<svg version="1.1" id="Layer_1" xmlns="http://www.w3.org/2000/svg" xmlns:xlink="http://www.w3.org/1999/xlink" x="0px" y="0px"
	 viewBox="0 0 286.7 278" style="enable-background:new 0 0 286.7 278;" xml:space="preserve">
<style type="text/css">
	.st0{fill:url(#SVGID_1_);stroke:#2885C7;stroke-width:4;stroke-miterlimit:10;}
	.st1{fill:#EF4444;}
	.st2{fill:none;stroke:#EF4444;stroke-width:24;stroke-linecap:round;stroke-miterlimit:10;}
	
		.st3{fill:url(#SVGID_00000170238371503830445660000001897180290253620133_);stroke:url(#SVGID_00000091727277788481080630000003585476645489098931_);stroke-width:6;stroke-linecap:round;stroke-linejoin:round;}
	.st4{clip-path:url(#SVGID_00000008862383645210294960000013561514338098160540_);}
	.st5{clip-path:url(#SVGID_00000152246141054442494330000010819044785779108245_);}
	.st6{clip-path:url(#SVGID_00000090997713473986951910000017697948495513431173_);}
	.st7{fill:#2885C7;}
	.st8{fill:none;stroke:#2885C7;stroke-width:24;stroke-linecap:round;stroke-miterlimit:10;}
	.st9{clip-path:url(#SVGID_00000134232005448203248870000012927370903296007095_);}
	.st10{fill:url(#SVGID_00000050639524202149282620000011045847847319046786_);}
	
		.st11{fill:none;stroke:url(#SVGID_00000111189918104044787300000015264188403650722992_);stroke-width:6;stroke-linecap:round;stroke-linejoin:round;}
	.st12{fill:#2A81BF;}
</style>
<symbol  id="e" viewBox="-82 -122.8 164 245.6">
	<linearGradient id="SVGID_1_" gradientUnits="userSpaceOnUse" x1="-67.1354" y1="-80.4377" x2="42.2258" y2="108.8951">
		<stop  offset="0" style="stop-color:#3392D6"/>
		<stop  offset="0.5" style="stop-color:#3392D6"/>
		<stop  offset="1" style="stop-color:#2477B2"/>
	</linearGradient>
	<path class="st0" d="M0-119.2c-48.7,72-80,117-80,160.7s35.8,79.3,80,79.3s80-35.5,80-79.3S48.7-47.3,0-119.2z"/>
</symbol>
<symbol  id="g" viewBox="-36 -84 72 168">
	<circle class="st1" cx="0" cy="48" r="36"/>
	<path class="st2" d="M0-72V48"/>
</symbol>
<symbol  id="h" viewBox="-59 -138.8 118 277.5">
	
		<linearGradient id="SVGID_00000004546090847915262890000010224874928982063017_" gradientUnits="userSpaceOnUse" x1="-66.2457" y1="-102.9237" x2="57.3543" y2="111.1763">
		<stop  offset="0" style="stop-color:#515A69;stop-opacity:0.1"/>
		<stop  offset="0.5" style="stop-color:#6B7280;stop-opacity:0.1"/>
		<stop  offset="1" style="stop-color:#384354;stop-opacity:0.1"/>
	</linearGradient>
	
		<linearGradient id="SVGID_00000160157502318217869650000006361202984537693368_" gradientUnits="userSpaceOnUse" x1="-67.7458" y1="-105.5237" x2="58.8542" y2="113.7764">
		<stop  offset="0" style="stop-color:#D4D7DD"/>
		<stop  offset="0.5" style="stop-color:#D4D7DD"/>
		<stop  offset="1" style="stop-color:#BEC1C6"/>
	</linearGradient>
	
		<path style="fill:url(#SVGID_00000004546090847915262890000010224874928982063017_);stroke:url(#SVGID_00000160157502318217869650000006361202984537693368_);stroke-width:6;stroke-linecap:round;stroke-linejoin:round;" d="
		M56,78.9c0,31.4-25,56.8-56,56.8s-56-25.4-56-56.8c0-18.5,8.9-35.9,24-46.6v-136.1c0-17.7,14.3-32,32-32s32,14.3,32,32v136
		C47.1,43,56.1,60.4,56,78.9z M4-56.2h28 M4-88.2h28 M4-24.2h28"/>
</symbol>
<g>
	<defs>
		<path id="SVGID_00000020361100319663058830000003968273845010843026_" d="M166.7,275.6c-31,0-56-25.4-56-56.8
			c0-18.5,8.9-35.9,24-46.6V36.1c-0.2-17.8,14.1-32.3,31.9-32.5c0,0,0.1,0,0.1,0H0v272H166.7z M170.7,83.6h28 M170.7,51.6h28
			 M170.7,115.6h28"/>
	</defs>
	<clipPath id="SVGID_00000056425462107758454460000011370118780013892496_">
		<use xlink:href="#SVGID_00000020361100319663058830000003968273845010843026_"  style="overflow:visible;"/>
	</clipPath>
	<g style="clip-path:url(#SVGID_00000056425462107758454460000011370118780013892496_);">
		
			<use xlink:href="#e"  width="164" height="245.6" x="-82" y="-122.8" transform="matrix(1 0 0 1 88.63 139.4285)" style="overflow:visible;"/>
	</g>
</g>
<g>
	<defs>
		<rect id="SVGID_00000151525291919571620450000009410638502608245382_" x="106.8" width="118" height="278"/>
	</defs>
	<clipPath id="SVGID_00000009564022097161820960000018063019090479009166_">
		<use xlink:href="#SVGID_00000151525291919571620450000009410638502608245382_"  style="overflow:visible;"/>
	</clipPath>
	<g style="clip-path:url(#SVGID_00000009564022097161820960000018063019090479009166_);">
		<g>
			<g>
				<defs>
					<rect id="SVGID_00000084499003354397367280000017184395965105999279_" x="129.8" y="87" width="72" height="168"/>
				</defs>
				<clipPath id="SVGID_00000087374183444612216720000004437583192055404691_">
					<use xlink:href="#SVGID_00000084499003354397367280000017184395965105999279_"  style="overflow:visible;"/>
				</clipPath>
				<g style="clip-path:url(#SVGID_00000087374183444612216720000004437583192055404691_);">
					<path class="st7" d="M165.8,255c19.9,0,36-16.1,36-36s-16.1-36-36-36s-36,16.1-36,36S145.9,255,165.8,255z"/>
					<path class="st8" d="M165.8,99v120"/>
				</g>
			</g>
		</g>
		<g>
			<g>
				<defs>
					<rect id="SVGID_00000093897520086943024990000007269690292929153152_" x="106.8" width="118" height="278"/>
				</defs>
				<clipPath id="SVGID_00000119824801209003422840000007870300009221031856_">
					<use xlink:href="#SVGID_00000093897520086943024990000007269690292929153152_"  style="overflow:visible;"/>
				</clipPath>
				<g style="clip-path:url(#SVGID_00000119824801209003422840000007870300009221031856_);">
					
						<linearGradient id="SVGID_00000134217861500310270370000012509038773673440667_" gradientUnits="userSpaceOnUse" x1="99.5298" y1="836.3342" x2="223.1298" y2="1050.4342" gradientTransform="matrix(1 0 0 1 0 -800)">
						<stop  offset="0" style="stop-color:#515A69;stop-opacity:0.1"/>
						<stop  offset="0.5" style="stop-color:#6B7280;stop-opacity:0.1"/>
						<stop  offset="1" style="stop-color:#384354;stop-opacity:0.1"/>
					</linearGradient>
					<path style="fill:url(#SVGID_00000134217861500310270370000012509038773673440667_);" d="M221.8,218.2c0,31.4-25,56.8-56,56.8
						s-56-25.4-56-56.8c0-9.1,2.1-18.1,6.3-26.2c4.2-8.1,10.2-15.1,17.7-20.4V35.5c0-8.5,3.4-16.6,9.4-22.6s14.1-9.4,22.6-9.4
						s16.6,3.4,22.6,9.4s9.4,14.1,9.4,22.6v136c7.5,5.3,13.5,12.3,17.7,20.4C219.7,200,221.8,209.1,221.8,218.2z M169.8,83h28H169.8
						z M169.8,51h28H169.8z M169.8,115h28H169.8z"/>
					
						<linearGradient id="SVGID_00000006697963467286444930000013764432242344244108_" gradientUnits="userSpaceOnUse" x1="98.0298" y1="833.7343" x2="224.6298" y2="1053.0343" gradientTransform="matrix(1 0 0 1 0 -800)">
						<stop  offset="0" style="stop-color:#D4D7DD"/>
						<stop  offset="0.5" style="stop-color:#D4D7DD"/>
						<stop  offset="1" style="stop-color:#BEC1C6"/>
					</linearGradient>
					
						<path style="fill:none;stroke:url(#SVGID_00000006697963467286444930000013764432242344244108_);stroke-width:6;stroke-linecap:round;stroke-linejoin:round;" d="
						M169.8,83h28 M169.8,51h28 M169.8,115h28 M221.8,218.2c0,31.4-25,56.8-56,56.8s-56-25.4-56-56.8c0-9.1,2.1-18.1,6.3-26.2
						c4.2-8.1,10.2-15.1,17.7-20.4V35.5c0-8.5,3.4-16.6,9.4-22.6s14.1-9.4,22.6-9.4s16.6,3.4,22.6,9.4s9.4,14.1,9.4,22.6v136
						c7.5,5.3,13.5,12.3,17.7,20.4C219.7,200,221.8,209.1,221.8,218.2z"/>
				</g>
			</g>
		</g>
	</g>
</g>
<path class="st12" d="M282.2,154.1c-1.2,0-2.3,0.5-3.2,1.3l-19.3,18.4l-19.3-18.4c-0.9-0.8-2-1.3-3.2-1.3s-2.3,0.5-3.2,1.3
	c-0.4,0.4-0.7,0.8-1,1.4c-0.2,0.5-0.3,1.1-0.3,1.6c0,0.6,0.1,1.1,0.3,1.6s0.6,1,1,1.4l22.5,21.4c0.9,0.8,2,1.3,3.2,1.3
	c1.2,0,2.3-0.5,3.2-1.3l22.5-21.4c0.4-0.4,0.7-0.8,1-1.4c0.2-0.5,0.3-1.1,0.3-1.6c0-0.6-0.1-1.1-0.3-1.6c-0.2-0.5-0.6-1-1-1.4
	C284.5,154.6,283.4,154.1,282.2,154.1z"/>
<path class="st12" d="M282.2,127.1c-1.2,0-2.3,0.5-3.2,1.3l-19.3,18.4l-19.3-18.4c-0.9-0.8-2-1.3-3.2-1.3s-2.3,0.5-3.2,1.3
	c-0.4,0.4-0.7,0.8-1,1.4c-0.2,0.5-0.3,1.1-0.3,1.6s0.1,1.1,0.3,1.6s0.6,1,1,1.4l22.5,21.4c0.9,0.8,2,1.3,3.2,1.3
	c1.2,0,2.3-0.5,3.2-1.3l22.5-21.4c0.4-0.4,0.7-0.8,1-1.4c0.2-0.5,0.3-1.1,0.3-1.6s-0.1-1.1-0.3-1.6c-0.2-0.5-0.6-1-1-1.4
	C284.5,127.6,283.4,127.1,282.2,127.1z"/>
<path class="st12" d="M282.2,100.1c-1.2,0-2.3,0.5-3.2,1.3l-19.3,18.4l-19.3-18.4c-0.9-0.8-2-1.3-3.2-1.3s-2.3,0.5-3.2,1.3
	c-0.4,0.4-0.7,0.8-1,1.4c-0.2,0.5-0.3,1.1-0.3,1.6s0.1,1.1,0.3,1.6s0.6,1,1,1.4l22.5,21.4c0.9,0.8,2,1.3,3.2,1.3
	c1.2,0,2.3-0.5,3.2-1.3l22.5-21.4c0.4-0.4,0.7-0.8,1-1.4c0.2-0.5,0.3-1.1,0.3-1.6s-0.1-1.1-0.3-1.6c-0.2-0.5-0.6-1-1-1.4
	C284.5,100.6,283.4,100.1,282.2,100.1z"/>
</svg>
