<?xml version="1.0" encoding="utf-8"?>
<!-- Generator: Adobe Illustrator 28.0.0, SVG Export Plug-In . SVG Version: 6.00 Build 0)  -->
<svg version="1.1" id="Layer_1" xmlns="http://www.w3.org/2000/svg" xmlns:xlink="http://www.w3.org/1999/xlink" x="0px" y="0px"
	 viewBox="0 0 386 277" style="enable-background:new 0 0 386 277;" xml:space="preserve">
<style type="text/css">
	.st0{fill:url(#SVGID_1_);stroke:#F8AF18;stroke-width:6;stroke-miterlimit:10;}
	.st1{fill:none;stroke:#FBBF24;stroke-width:24;stroke-linecap:round;stroke-miterlimit:10;}
	.st2{clip-path:url(#SVGID_00000023996623170076591250000003783081390050980236_);}
	.st3{clip-path:url(#SVGID_00000087403288498850122250000012796983771387424941_);}
	.st4{fill:none;stroke:#374151;stroke-width:18;stroke-linecap:round;stroke-linejoin:round;}
</style>
<symbol  id="c" viewBox="-192 -192 384 384">
	
		<linearGradient id="SVGID_1_" gradientUnits="userSpaceOnUse" x1="-425.9837" y1="-456.7718" x2="-342.0163" y2="-311.2282" gradientTransform="matrix(1 0 0 1 384 384)">
		<stop  offset="0" style="stop-color:#FBBF24"/>
		<stop  offset="0.5" style="stop-color:#FBBF24"/>
		<stop  offset="1" style="stop-color:#F59E0B"/>
	</linearGradient>
	<circle class="st0" cx="0" cy="0" r="84"/>
	<path class="st1" d="M0-130.3V-180 M0,180v-49.7 M92.2-92.2l35-35 M-127.2,127.2l35.1-35.1 M-92.1-92.3l-35-35 M127.4,127.2
		L92.3,92.1 M-130.3,0H-180 M180,0h-49.7"/>
</symbol>
<g>
	<g>
		<g>
			<defs>
				<path id="SVGID_00000101814965885763921760000017633662276445357233_" d="M449,207H241l-35.9-31.4c-6.9-6.1-17.3-6.1-24.2,0
					L145,207H-63V-99h512V207z"/>
			</defs>
			<clipPath id="SVGID_00000016058295405052127840000001830200991832503445_">
				<use xlink:href="#SVGID_00000101814965885763921760000017633662276445357233_"  style="overflow:visible;"/>
			</clipPath>
			<g style="clip-path:url(#SVGID_00000016058295405052127840000001830200991832503445_);">
				<g>
					<g>
						<defs>
							<rect id="SVGID_00000019653732569868143800000001055464085202061981_" x="1" y="1" width="384" height="384"/>
						</defs>
						<clipPath id="SVGID_00000048478808745214431940000001814287281013807281_">
							<use xlink:href="#SVGID_00000019653732569868143800000001055464085202061981_"  style="overflow:visible;"/>
						</clipPath>
						<g style="clip-path:url(#SVGID_00000048478808745214431940000001814287281013807281_);">
							<g>
								<defs>
									<rect id="SVGID_00000070080665936492682100000006766360784595058331_" x="1" y="1" width="384" height="384"/>
								</defs>
								<clipPath id="SVGID_00000116198014832919038480000004153014606774127793_">
									<use xlink:href="#SVGID_00000070080665936492682100000006766360784595058331_"  style="overflow:visible;"/>
								</clipPath>
								<g style="clip-path:url(#SVGID_00000116198014832919038480000004153014606774127793_);">
									
										<use xlink:href="#c"  width="384" height="384" x="-192" y="-192" transform="matrix(1 0 0 1 193 193.0024)" style="overflow:visible;"/>
								</g>
							</g>
						</g>
					</g>
				</g>
			</g>
		</g>
	</g>
</g>
<path class="st4" d="M65,233h88l40-36l40,36h88"/>
</svg>
