<?xml version="1.0" encoding="utf-8"?>
<!-- Generator: Adobe Illustrator 28.0.0, SVG Export Plug-In . SVG Version: 6.00 Build 0)  -->
<svg version="1.1" id="Layer_1" xmlns="http://www.w3.org/2000/svg" xmlns:xlink="http://www.w3.org/1999/xlink" x="0px" y="0px"
	 viewBox="0 0 278 278" style="enable-background:new 0 0 278 278;" xml:space="preserve">
<style type="text/css">
	.st0{clip-path:url(#SVGID_00000062177362463715966310000009414849239087687809_);}
	.st1{clip-path:url(#SVGID_00000021798108722046948200000016552503462844796803_);}
	.st2{fill:#EF4444;}
	.st3{fill:none;stroke:#EF4444;stroke-width:24;stroke-linecap:round;stroke-miterlimit:10;}
	.st4{clip-path:url(#SVGID_00000001660910497102943190000007532646407657439917_);}
	.st5{fill:url(#SVGID_00000071532511098240626860000014378833951006304419_);}
	
		.st6{fill:none;stroke:url(#SVGID_00000069396182969302309350000018372523162537300654_);stroke-width:6;stroke-linecap:round;stroke-linejoin:round;}
	.st7{fill:#E34647;}
</style>
<g>
	<defs>
		<rect id="SVGID_1_" x="80" width="118" height="278"/>
	</defs>
	<clipPath id="SVGID_00000036946145058080318890000003591815950258121646_">
		<use xlink:href="#SVGID_1_"  style="overflow:visible;"/>
	</clipPath>
	<g style="clip-path:url(#SVGID_00000036946145058080318890000003591815950258121646_);">
		<g>
			<defs>
				<rect id="SVGID_00000156589440989525192780000002445411336717367938_" x="103" y="87" width="72" height="168"/>
			</defs>
			<clipPath id="SVGID_00000030464652930194574060000013043518363473897869_">
				<use xlink:href="#SVGID_00000156589440989525192780000002445411336717367938_"  style="overflow:visible;"/>
			</clipPath>
			<g style="clip-path:url(#SVGID_00000030464652930194574060000013043518363473897869_);">
				<path class="st2" d="M139,255c19.9,0,36-16.1,36-36s-16.1-36-36-36s-36,16.1-36,36S119.1,255,139,255z"/>
				<path class="st3" d="M139,99v120"/>
			</g>
		</g>
		<g>
			<defs>
				<rect id="SVGID_00000005242196999180232360000012378584428794039454_" x="80" width="118" height="278"/>
			</defs>
			<clipPath id="SVGID_00000026146253611225992510000009483382917142259130_">
				<use xlink:href="#SVGID_00000005242196999180232360000012378584428794039454_"  style="overflow:visible;"/>
			</clipPath>
			<g style="clip-path:url(#SVGID_00000026146253611225992510000009483382917142259130_);">
				
					<linearGradient id="SVGID_00000170253517121411112110000012227046796302855334_" gradientUnits="userSpaceOnUse" x1="72.7521" y1="243.6724" x2="196.3521" y2="29.5724" gradientTransform="matrix(1 0 0 -1 0 280)">
					<stop  offset="0" style="stop-color:#515A69;stop-opacity:0.1"/>
					<stop  offset="0.5" style="stop-color:#6B7280;stop-opacity:0.1"/>
					<stop  offset="1" style="stop-color:#384354;stop-opacity:0.1"/>
				</linearGradient>
				<path style="fill:url(#SVGID_00000170253517121411112110000012227046796302855334_);" d="M195,218.2c0,31.4-25,56.8-56,56.8
					s-56-25.4-56-56.8c0-9.1,2.1-18.1,6.3-26.2c4.2-8.1,10.2-15.1,17.7-20.4V35.5c0-8.5,3.4-16.6,9.4-22.6c6-6,14.1-9.4,22.6-9.4
					s16.6,3.4,22.6,9.4c6,6,9.4,14.1,9.4,22.6v136c7.5,5.3,13.5,12.3,17.7,20.4C192.9,200,195,209.1,195,218.2z M143,83h28H143z
					 M143,51h28H143z M143,115h28H143z"/>
				
					<linearGradient id="SVGID_00000078757629181728214370000006055961087543020161_" gradientUnits="userSpaceOnUse" x1="71.2521" y1="246.2723" x2="197.8521" y2="26.9723" gradientTransform="matrix(1 0 0 -1 0 280)">
					<stop  offset="0" style="stop-color:#D4D7DD"/>
					<stop  offset="0.5" style="stop-color:#D4D7DD"/>
					<stop  offset="1" style="stop-color:#BEC1C6"/>
				</linearGradient>
				
					<path style="fill:none;stroke:url(#SVGID_00000078757629181728214370000006055961087543020161_);stroke-width:6;stroke-linecap:round;stroke-linejoin:round;" d="
					M143,83h28 M143,51h28 M143,115h28 M195,218.2c0,31.4-25,56.8-56,56.8s-56-25.4-56-56.8c0-9.1,2.1-18.1,6.3-26.2
					c4.2-8.1,10.2-15.1,17.7-20.4V35.5c0-8.5,3.4-16.6,9.4-22.6c6-6,14.1-9.4,22.6-9.4s16.6,3.4,22.6,9.4c6,6,9.4,14.1,9.4,22.6v136
					c7.5,5.3,13.5,12.3,17.7,20.4C192.9,200,195,209.1,195,218.2z"/>
			</g>
		</g>
	</g>
</g>
<path class="st7" d="M255.5,130c-1.2,0-2.3-0.5-3.2-1.3L233,110.3l-19.3,18.4c-0.9,0.8-2,1.3-3.2,1.3s-2.3-0.5-3.2-1.3
	c-0.4-0.4-0.7-0.8-1-1.4c-0.2-0.5-0.3-1.1-0.3-1.6s0.1-1.1,0.3-1.6c0.2-0.5,0.6-1,1-1.4l22.5-21.4c0.9-0.8,2-1.3,3.2-1.3
	s2.3,0.5,3.2,1.3l22.5,21.4c0.4,0.4,0.7,0.8,1,1.4c0.2,0.5,0.3,1.1,0.3,1.6s-0.1,1.1-0.3,1.6c-0.2,0.5-0.6,1-1,1.4
	C257.8,129.5,256.7,130,255.5,130z"/>
<path class="st7" d="M255.5,157c-1.2,0-2.3-0.5-3.2-1.3L233,137.3l-19.3,18.4c-0.9,0.8-2,1.3-3.2,1.3s-2.3-0.5-3.2-1.3
	c-0.4-0.4-0.7-0.8-1-1.4c-0.2-0.5-0.3-1.1-0.3-1.6c0-0.6,0.1-1.1,0.3-1.6c0.2-0.5,0.6-1,1-1.4l22.5-21.4c0.9-0.8,2-1.3,3.2-1.3
	s2.3,0.5,3.2,1.3l22.5,21.4c0.4,0.4,0.7,0.8,1,1.4c0.2,0.5,0.3,1.1,0.3,1.6c0,0.6-0.1,1.1-0.3,1.6c-0.2,0.5-0.6,1-1,1.4
	C257.8,156.5,256.7,157,255.5,157z"/>
<path class="st7" d="M255.5,184c-1.2,0-2.3-0.5-3.2-1.3L233,164.3l-19.3,18.4c-0.9,0.8-2,1.3-3.2,1.3s-2.3-0.5-3.2-1.3
	c-0.4-0.4-0.7-0.8-1-1.4c-0.2-0.5-0.3-1.1-0.3-1.6c0-0.6,0.1-1.1,0.3-1.6c0.2-0.5,0.6-1,1-1.4l22.5-21.4c0.9-0.8,2-1.3,3.2-1.3
	s2.3,0.5,3.2,1.3l22.5,21.4c0.4,0.4,0.7,0.8,1,1.4c0.2,0.5,0.3,1.1,0.3,1.6c0,0.6-0.1,1.1-0.3,1.6c-0.2,0.5-0.6,1-1,1.4
	C257.8,183.5,256.7,184,255.5,184z"/>
</svg>
