<?xml version="1.0" encoding="utf-8"?>
<!-- Generator: Adobe Illustrator 28.0.0, SVG Export Plug-In . SVG Version: 6.00 Build 0)  -->
<svg version="1.1" id="Layer_1" xmlns="http://www.w3.org/2000/svg" xmlns:xlink="http://www.w3.org/1999/xlink" x="0px" y="0px"
	 viewBox="0 0 279.5 283.8" style="enable-background:new 0 0 279.5 283.8;" xml:space="preserve">
<style type="text/css">
	.st0{fill:none;stroke:#E5E7EB;stroke-width:17.4;stroke-linecap:round;stroke-linejoin:round;stroke-dasharray:16.9,56.2;}
	.st1{fill:url(#SVGID_1_);stroke:#F8AF18;stroke-width:6;stroke-linecap:round;stroke-linejoin:round;}
</style>
<path class="st0" d="M264,142c0-70.7-57.3-128-128-128c-169.8,6.7-169.7,249.3,0,256C206.7,270,264,212.7,264,142z"/>
<linearGradient id="SVGID_1_" gradientUnits="userSpaceOnUse" x1="73.9258" y1="253.0954" x2="207.1646" y2="22.2282" gradientTransform="matrix(1 0 0 -1 0 282.9384)">
	<stop  offset="4.262232e-07" style="stop-color:#FEC83D"/>
	<stop  offset="0.5" style="stop-color:#FDBB10"/>
	<stop  offset="1" style="stop-color:#FDBA0D"/>
</linearGradient>
<path class="st1" d="M271.4,100.8c-19-67.5-86.8-109-155.6-95.1c6,10,10.6,20.7,13.8,31.9c20.7,73.2-22,151-95.4,173.8
	c-4.9,1.5-9.8,2.7-14.8,3.6c31,52.5,94.7,78.7,156.6,59.6C249.5,251.8,291.7,174.9,271.4,100.8L271.4,100.8z"/>
</svg>
