<svg width="232" height="246" viewBox="0 0 232 246" fill="none" xmlns="http://www.w3.org/2000/svg">
<g clip-path="url(#clip0_1_19)">
<path d="M82.9 3.61C34.2 75.61 2.89999 120.61 2.89999 164.31C2.89999 208.01 38.7 243.61 82.9 243.61C127.1 243.61 162.9 208.11 162.9 164.31C162.9 120.51 131.6 75.51 82.9 3.61Z" fill="url(#paint0_linear_1_19)" stroke="#2885C7" stroke-width="4" stroke-miterlimit="10"/>
</g>
<path d="M45.8 117.5C49 114.5 53.5667 113 59.5 113C65.4333 113 69.9667 114.5 73.1 117.5C76.3 120.433 77.9 124.567 77.9 129.9V137.9C77.9 143.1 76.3 147.167 73.1 150.1C69.9 153.033 65.3667 154.5 59.5 154.5C53.5 154.5 48.9333 153.033 45.8 150.1C42.6667 147.167 41.0667 143.1 41 137.9V129.9C41 124.567 42.6 120.433 45.8 117.5ZM117 115.9C117.124 116.349 117.134 116.822 117.03 117.276C116.925 117.73 116.708 118.151 116.4 118.5L63.4 191.8C62.6761 192.922 61.7216 193.876 60.6 194.6C59.1186 195.09 57.5575 195.294 56 195.2H51.6C50.3 195.2 49.5 194.8 49.1 194.1C48.9515 193.614 48.9381 193.096 49.0614 192.603C49.1848 192.11 49.4401 191.659 49.8 191.3L102.8 118C103.405 116.88 104.304 115.947 105.4 115.3C106.826 114.877 108.315 114.708 109.8 114.8H114.7C115.9 114.8 116.7 115.2 117 115.9ZM59.5 123.5C54.3667 123.5 51.8 125.833 51.8 130.5V137.2C51.8 141.867 54.3667 144.2 59.5 144.2C64.6333 144.2 67.2 141.867 67.2 137.2V130.4C67.2 125.8 64.6333 123.5 59.5 123.5ZM92.9 159.9C96.0333 156.9 100.6 155.4 106.6 155.4C112.6 155.4 117.133 156.9 120.2 159.9C123.4 162.9 125 167.033 125 172.3V180.3C125 185.5 123.4 189.567 120.2 192.5C117 195.433 112.433 196.933 106.5 197C100.567 197 96.0333 195.533 92.9 192.6C89.7667 189.667 88.1667 185.567 88.1 180.3V172.3C88.1 166.967 89.7 162.833 92.9 159.9ZM106.5 166C101.433 166 98.9 168.333 98.9 173V179.6C98.9 184.267 101.433 186.6 106.5 186.6C111.567 186.6 114.133 184.267 114.2 179.6V172.9C114.2 168.3 111.633 166 106.5 166Z" fill="white"/>
<path d="M181.505 82C182.7 82.0012 183.848 82.4675 184.705 83.3L204.005 101.7L223.305 83.3C224.163 82.4691 225.311 82.0045 226.505 82.0045C227.7 82.0045 228.847 82.4691 229.705 83.3C230.117 83.6837 230.446 84.148 230.67 84.6642C230.895 85.1803 231.011 85.7371 231.011 86.3C231.011 86.8629 230.895 87.4197 230.67 87.9359C230.446 88.452 230.117 88.9163 229.705 89.3L207.205 110.7C206.347 111.531 205.2 111.995 204.005 111.995C202.811 111.995 201.663 111.531 200.805 110.7L178.305 89.3C177.894 88.9163 177.565 88.452 177.34 87.9359C177.116 87.4197 177 86.8629 177 86.3C177 85.7371 177.116 85.1803 177.34 84.6642C177.565 84.148 177.894 83.6837 178.305 83.3C179.163 82.4675 180.31 82.0012 181.505 82Z" fill="#3392D6"/>
<path d="M181.505 109C182.7 109.001 183.848 109.467 184.705 110.3L204.005 128.7L223.305 110.3C224.163 109.469 225.311 109.005 226.505 109.005C227.7 109.005 228.847 109.469 229.705 110.3C230.117 110.684 230.446 111.148 230.67 111.664C230.895 112.18 231.011 112.737 231.011 113.3C231.011 113.863 230.895 114.42 230.67 114.936C230.446 115.452 230.117 115.916 229.705 116.3L207.205 137.7C206.347 138.531 205.2 138.995 204.005 138.995C202.811 138.995 201.663 138.531 200.805 137.7L178.305 116.3C177.894 115.916 177.565 115.452 177.34 114.936C177.116 114.42 177 113.863 177 113.3C177 112.737 177.116 112.18 177.34 111.664C177.565 111.148 177.894 110.684 178.305 110.3C179.163 109.467 180.31 109.001 181.505 109Z" fill="#3392D6"/>
<path d="M181.505 136C182.7 136.001 183.848 136.467 184.705 137.3L204.005 155.7L223.305 137.3C224.163 136.469 225.311 136.005 226.505 136.005C227.7 136.005 228.847 136.469 229.705 137.3C230.117 137.684 230.446 138.148 230.67 138.664C230.895 139.18 231.011 139.737 231.011 140.3C231.011 140.863 230.895 141.42 230.67 141.936C230.446 142.452 230.117 142.916 229.705 143.3L207.205 164.7C206.347 165.531 205.2 165.995 204.005 165.995C202.811 165.995 201.663 165.531 200.805 164.7L178.305 143.3C177.894 142.916 177.565 142.452 177.34 141.936C177.116 141.42 177 140.863 177 140.3C177 139.737 177.116 139.18 177.34 138.664C177.565 138.148 177.894 137.684 178.305 137.3C179.163 136.467 180.31 136.001 181.505 136Z" fill="#3392D6"/>
<defs>
<linearGradient id="paint0_linear_1_19" x1="15.7" y1="42.31" x2="125.1" y2="231.71" gradientUnits="userSpaceOnUse">
<stop stop-color="#3392D6"/>
<stop offset="0.5" stop-color="#3392D6"/>
<stop offset="1" stop-color="#2477B2"/>
</linearGradient>
<clipPath id="clip0_1_19">
<rect width="164" height="245.6" fill="white" transform="translate(0.899994 0.00999451)"/>
</clipPath>
</defs>
</svg>
