<?xml version="1.0" encoding="utf-8"?>
<!-- Generator: Adobe Illustrator 28.0.0, SVG Export Plug-In . SVG Version: 6.00 Build 0)  -->
<svg version="1.1" id="Layer_1" xmlns="http://www.w3.org/2000/svg" xmlns:xlink="http://www.w3.org/1999/xlink" x="0px" y="0px"
	 viewBox="0 0 232 246" style="enable-background:new 0 0 232 246;" xml:space="preserve">
<style type="text/css">
	.st0{clip-path:url(#SVGID_00000158725850914211209190000017166016974880197252_);}
	.st1{fill:url(#SVGID_00000101786961957457342950000007420073968155686050_);stroke:#2885C7;stroke-width:4;stroke-miterlimit:10;}
	.st2{fill:#FFFFFF;}
</style>
<g>
	<g>
		<defs>
			<rect id="SVGID_1_" x="0" y="0.4" width="164" height="245.6"/>
		</defs>
		<clipPath id="SVGID_00000135662624995167929570000013189788707977973935_">
			<use xlink:href="#SVGID_1_"  style="overflow:visible;"/>
		</clipPath>
		<g style="clip-path:url(#SVGID_00000135662624995167929570000013189788707977973935_);">
			
				<linearGradient id="SVGID_00000146481477004499995770000015553122719372817281_" gradientUnits="userSpaceOnUse" x1="14.8704" y1="874.7833" x2="124.2316" y2="1064.1161" gradientTransform="matrix(1 0 0 1 0 -832)">
				<stop  offset="0" style="stop-color:#3392D6"/>
				<stop  offset="0.5" style="stop-color:#3392D6"/>
				<stop  offset="1" style="stop-color:#2477B2"/>
			</linearGradient>
			
				<path style="fill:url(#SVGID_00000146481477004499995770000015553122719372817281_);stroke:#2885C7;stroke-width:4;stroke-miterlimit:10;" d="
				M82,4C33.3,76,2,121,2,164.7S37.8,244,82,244s80-35.5,80-79.3S130.7,75.9,82,4z"/>
		</g>
	</g>
</g>
<path class="st2" d="M44.9,117.9c3.2-3,7.8-4.5,13.7-4.5c5.9,0,10.5,1.5,13.6,4.5c3.2,2.9,4.8,7.1,4.8,12.4v8
	c0,5.2-1.6,9.3-4.8,12.2c-3.2,2.9-7.7,4.4-13.6,4.4c-6,0-10.6-1.5-13.7-4.4s-4.7-7-4.8-12.2v-8C40.1,125,41.7,120.8,44.9,117.9z
	 M116.1,116.3c0.1,0.4,0.1,0.9,0,1.4s-0.3,0.9-0.6,1.2l-53,73.3c-0.7,1.1-1.7,2.1-2.8,2.8c-1.5,0.5-3,0.7-4.6,0.6h-4.4
	c-1.3,0-2.1-0.4-2.5-1.1c-0.1-0.5-0.2-1,0-1.5c0.1-0.5,0.4-0.9,0.7-1.3l53-73.3c0.6-1.1,1.5-2.1,2.6-2.7c1.4-0.4,2.9-0.6,4.4-0.5
	h4.9C115,115.2,115.8,115.6,116.1,116.3z M58.6,123.9c-5.1,0-7.7,2.3-7.7,7v6.7c0,4.7,2.6,7,7.7,7s7.7-2.3,7.7-7v-6.8
	C66.3,126.2,63.7,123.9,58.6,123.9z M92,160.3c3.1-3,7.7-4.5,13.7-4.5s10.5,1.5,13.6,4.5c3.2,3,4.8,7.1,4.8,12.4v8
	c0,5.2-1.6,9.3-4.8,12.2s-7.8,4.4-13.7,4.5c-5.9,0-10.5-1.5-13.6-4.4s-4.7-7-4.8-12.3v-8C87.2,167.4,88.8,163.2,92,160.3z
	 M105.6,166.4c-5.1,0-7.6,2.3-7.6,7v6.6c0,4.7,2.5,7,7.6,7s7.6-2.3,7.7-7v-6.7C113.3,168.7,110.7,166.4,105.6,166.4z"/>
</svg>
