<svg xmlns="http://www.w3.org/2000/svg" width="500" height="500" xmlns:v="https://vecta.io/nano"><path vector-effect="non-scaling-stroke" d="M250-.41c138 0 250 112 250 250s-112 250-250 250-250-112-250-250 112-250 250-250z" fill="#b9ff46"/><g fill-rule="evenodd"><path vector-effect="non-scaling-stroke" d="M194.568 38.694l-2.86.883-.294 4.318c-.16 2.374-.509 9.672-.775 16.216l-1.162 25.666-.694 14.934c-.031 2.38-.501 1-7.466-21.933l-10.075-32.615c-.214-.253-10.588 2.776-11.092 3.239-.227.208-.583 6.01-.794 12.894l-.622 17.416c-.132 2.694-.384 10.629-.561 17.632s-.48 12.832-.677 12.953c-.373.231-.974-1.528-7.904-23.12l-7.237-22.399-2.967-9.101-1.492.127c-5.622.479-14.75 6.284-20.646 13.132-9.655 11.214-8.888 27.308 1.304 27.334 4.265.011 4.77-.324 3.33-2.211-5.277-6.92-3.72-18.823 3.42-26.12 3.897-3.983 3.575-4.189 6.003 3.838l12.451 40.834 3.244 10.617c.673 2.245 1.395 4.082 1.605 4.082s.99-.194 1.735-.432l6.072-1.86 4.719-1.429.287-2.09c.158-1.15.5-4.986.761-8.524l.934-11.564 1.206-14.7 1.085-12.6.339-3.033 2.147 6.766 4.11 13.301 4.213 13.767 3.014 9.916c.917 3.216.591 3.18 7.927.866 6.663-2.102 6.034-.856 6.74-13.35l1.193-20.065 2.485-44.334c-.079-.074-1.433.263-3.006.75m71.374 8.713c-1.613.173-1.421-.219-4.589 9.437-.961 2.929-1.053 3.039-2.672 3.176-1.497.127-2.684 1.525-2.684 3.156 0 .069.63.266 1.4.435 1.769.388 2.165-1.381-3.517 15.724-3.277 9.871-5.01 15.818-5.2 17.848-1.084 11.612 12.902 15.334 18.312 4.872l.696-1.344h-1.542c-4.969 0-4.827-2.03 1.44-20.533l4.978-14.7 2.855.16c2.855.159 2.856.159 3.386-1.36.655-1.877.615-1.918-2.274-2.195-3.077-.295-3.05.171-.43-7.576l2.292-7.116c.004-.335-9.284-.324-12.45.016m30.382 11.632l-2.838 6.037-1.638-.192c-1.469-.171-1.7-.042-2.242 1.266-.683 1.648-.697 1.619 1.022 2.18l1.266.415-2.022 4.2-3.547 7.467-3.843 8.167c-5.419 11.446-6.319 15.281-4.434 18.906 3.074 5.911 11.501 6.733 15.934 1.555 2.017-2.357 2.059-2.675.396-3.009-4.653-.935-4.378-2.35 3.823-19.679 7.46-15.766 6.601-14.658 10.783-13.895 1.739.316 1.932.246 2.449-.89.857-1.881.752-2.017-2.005-2.589-1.411-.294-2.567-.634-2.567-.756s1.365-3.111 3.033-6.641 3.034-6.641 3.034-6.915c0-.465-1.22-.629-10.266-1.375l-3.5-.289-2.839 6.037m-69.028.326c-8.891 2.82-14.951 12.289-16.606 25.946-1.833 15.131 3.248 22.318 15.431 21.822 10.023-.408 15.827-4.347 15.863-10.767l.01-1.778-2.216 1.845c-8.152 6.781-15.784 5.39-16.713-3.045-.513-4.656-.336-4.929 3.968-6.173 12.078-3.49 19.763-13.779 16.86-22.575-1.584-4.798-9.834-7.419-16.598-5.274m10.648 5.511c1.164 1.566 1.327 3.882.749 6.336-.966 4.106-4.008 8.596-7.906 10.592-5.631 2.883-7.133 2.602-6.253-1.171 2.961-12.694 9.754-20.675 13.41-15.758m89.546 12.693c-14.034 4.594-26.843 26.091-21.603 36.254 4.914 9.532 22.564 12.116 27.321 3.999 1.554-2.651 1.511-2.797-.562-1.901-5.413 2.339-13.299.97-15.196-2.636-1.546-2.941.692-11.781 2.778-10.98 10.821 4.152 27.234-4.788 27.234-14.834 0-6.596-11.96-12.526-19.972-9.902m13.787 7.12c3.858 5.276-5.066 14.296-14.205 14.359-5.66.038-5.875-.238-3.1-3.982 6.755-9.109 14.734-13.894 17.305-10.377m18.26 12.126l-8.807 9.868-6.767 7.58c-7.796 8.725-11.545 13.089-11.378 13.241.098.089 2.068 1.213 4.378 2.496l5.707 3.204 1.508.872 2.225-2.555c20.625-23.672 23.551-26.595 26.633-26.605 4.114-.014 5.455 1.598 4.236 5.093-1.449 4.155 4.799 6.9 8.862 3.892 7.196-5.33 2.399-12.71-8.269-12.721l-4.365-.004 1.449-1.651c.796-.907 1.448-1.725 1.448-1.818 0-.296-8.955-5.626-11.258-6.701-.161-.076-2.681 2.538-5.601 5.807M152.961 379.09c-10.748 2.335-16.699 10.797-11.353 16.143 2.026 2.026 2.855 2.274 2.855.856 0-6.025 10.143-13.748 17.62-13.414l3.061.137-18.974 20.489-18.973 20.769c0 .336 8.76 5.642 9.314 5.642.213 0 7.885-8.099 17.049-17.998l16.913-17.75c.318.319-2.105 4.402-10.466 17.648-9.401 14.891-12.419 21.213-11.629 24.362.27 1.072 9.577 7.271 10.919 7.271.374 0 34.939-36.989 40.612-43.46l1.484-1.693-4.549-2.691-4.867-2.865c-.226-.122-33.296 35.203-34.767 37.137-.081.107-.305.037-.498-.156-.588-.591 3.572-7.932 10.501-18.526 11.399-17.43 13.497-21.838 11.925-25.056-2.562-5.242-16.624-8.918-26.178-6.844m169.769 12.334c-3.331.643-6.194 3.427-8 7.783-1.22 2.943-1.537 3.062-2.33.872-.325-.898-.811-1.627-1.08-1.618-.813.026-8.897 5.909-8.795 6.4.121.582 15.15 37.151 15.377 37.417.093.108 2.25-1.21 4.794-2.931l4.624-3.129-2.734-6.636-6.427-15.503c-4.111-9.875-4.116-9.931-1.011-12.545 3.848-3.238 6.04-1.155 10.714 10.18 5.03 12.197 6.838 14.499 11.385 14.499 5.442 0 9.073-4.612 8.027-10.192l-.304-1.617-1.793.982c-2.866 1.57-3.525.829-7.035-7.906-3.872-9.635-5.259-12.385-6.978-13.831-2.153-1.812-5.71-2.749-8.437-2.224m-30.799 18.357c-.959.297-2.835 1.722-4.546 3.452-3.35 3.388-3.387 3.405-3.387 1.572 0-2.024-.345-2.031-5.766-.132-4.064 1.424-4.962 1.908-4.967 2.671-.006 1.266 5.189 39.622 5.397 39.844.321.341 10.469-3.449 10.467-3.91-.003-.257-.946-7.292-2.098-15.633-2.519-18.244-2.492-16.517-.289-18.722 2.313-2.313 3.328-2.294 5.223.098 3.718 4.693 9.71-2.136 6.498-7.405-1.411-2.313-3.291-2.841-6.532-1.836m-90.652 8.742c-9.435 2.383-18.548 16.417-18.548 28.563 0 8.955 10.559 12.576 18.104 6.207.845-.713 1.594-1.218 1.666-1.121s.373 1.023.67 2.06c1.755 6.129 10.256 7.304 14.132 1.954l1.42-1.959-1.546-.399c-3.853-.994-3.733-1.704 2.948-17.499l5.717-14.052c.103-1.23-10.04-3.02-10.825-1.91-.59.832-.709.81-2.855-.524-2.5-1.554-7.537-2.165-10.883-1.319m57.052.777c-3.154.237-4.2.559-4.2 1.293 0 1.102-.706 1.2-2.778.386-3.912-1.536-10.534.542-14.569 4.571-8.482 8.475-10.062 30.999-2.475 35.295 4.405 2.496 10.105 1.089 14.278-3.524 1.725-1.908 2.458-2.447 2.638-1.942 2.157 6.056 11.792 5.902 14.624-.234 1.235-2.675 1.135-2.961-1.097-3.122-3.444-.249-3.468-.512-1.53-16.592l1.929-15.169c.277-1.399-.175-1.463-6.82-.961m-46.851 4.567c.615.403 1.118 1.017 1.118 1.365 0 1.385-9.455 22.863-10.418 23.667-5.751 4.797-10.191 1.048-8.078-6.82 3.679-13.7 11.598-21.998 17.378-18.211m40.248 1.223c1.797.626 1.793-.367.05 13.8-1.704 13.852-2.65 16.021-6.996 16.021-3.592 0-4.652-2.074-4.652-9.105 0-13.879 5.095-22.982 11.597-20.716" fill="#468ef8"/><path vector-effect="non-scaling-stroke" d="M249.863 149.918c-.132.611-2.078 13.944-4.323 29.629l-4.357 29.545c-.234.87-2.083-3.189-12.241-26.865-12.676-29.545-12.754-29.72-12.448-27.68.413 2.756 7.161 60.154 7.081 60.234-.046.047-8.66-10.811-19.142-24.129l-19.146-24.126c-.048.048 4.989 12.831 11.192 28.406l11.188 28.577c-.051.141-6.092-4.247-13.426-9.752l-35.885-26.584c1.048 1.329 36.329 48.726 36.578 49.138.185.306-.332.224-1.502-.239l-26.968-10.784-28.334-10.994c.306.295 11.277 8.973 24.38 19.284l23.459 18.747c-.201 0-13.749-1.589-30.106-3.531l-30.241-3.425c-.275.057 12.093 5.512 27.485 12.121l27.986 12.233c0 .119-13.125 2.104-29.167 4.411l-30.788 4.821c1.72.066 59.326 4.461 61.472 4.69l2.072.221.23-5.493c.993-23.772 15.338-45.384 37.079-55.863 41.996-20.24 90.941 9.332 93.061 56.227l.231 5.116 2.257-.22c2.476-.242 59.837-4.618 61.331-4.679 1.829-.075-1.321-.568-30.648-4.8l-29.35-4.421c.001-.102 12.618-5.601 28.037-12.221l27.499-12.138c-.296-.056-13.936 1.49-30.31 3.436l-29.91 3.401c-.076-.075 10.757-8.706 24.071-19.178l24.146-19.126c-.035-.047-12.959 5.075-28.72 11.381l-28.744 11.38c-.047-.047 8.17-11.135 18.262-24.64l18.211-24.676c-.075-.067-11.126 8.104-24.558 18.159l-24.555 18.147c-.073-.074 4.954-12.852 11.173-28.396l11.168-28.399c-.076-.076-8.386 10.331-18.467 23.125l-19.059 24.162-.73.899.141-1.084 2.631-21.992 4.425-38.392c-.058-.057-5.5 12.512-12.095 27.931l-12.262 28.345c-.149.17-.479-1.164-.734-2.963l-8.63-56.976m-5.088 102.143c-9.098 3.102-18.59 13.65-38.308 42.572l-5.488 8.049-1.702-1.293c-20.07-15.243-36.155-12.843-51.364 7.666-6.329 8.534-16.956 28.154-21.932 40.492-.564 1.397-.21 1.014 10.235-11.098 16.119-18.692 21.132-23.48 28.425-27.158 9.758-4.919 20.442-2.171 35.99 9.256 4.216 3.099 3.411 3.346 7.129-2.19 19.1-28.442 31.713-43.406 39.764-47.174l2.372-1.11 1.892.719c7.373 2.802 15.698 12.268 35.058 39.867l8.955 12.407c.107 0 1.383-.894 2.836-1.987 17.741-13.341 29.322-15.372 41.216-7.229 5.042 3.453 19.941 19.271 33.931 36.025 2.045 2.448-9.285-20.867-14.467-29.772-17.518-30.104-35.229-36.156-57.343-19.596l-2.828 2.118-7.055-10.057c-12.675-18.069-17.014-23.813-22.703-30.058-8.861-9.724-16.823-13.104-24.613-10.449" fill="#fbbc04"/></g></svg>