<svg width="32" height="30" viewBox="0 0 32 30" fill="none" xmlns="http://www.w3.org/2000/svg">
<g id="temperature-feels-like 1" clip-path="url(#clip0_15_249)">
<path id="Vector" d="M26 28.125H22C21.4701 28.1235 20.9622 27.9255 20.5875 27.5742C20.2128 27.2229 20.0016 26.7468 20 26.25V19.6875C19.4701 19.686 18.9622 19.488 18.5875 19.1367C18.2128 18.7854 18.0016 18.3093 18 17.8125V12.1875C17.9927 11.8163 18.0654 11.4475 18.2136 11.1032C18.3618 10.7589 18.5825 10.4461 18.8625 10.1836C19.1426 9.92108 19.4762 9.71417 19.8434 9.57523C20.2107 9.4363 20.604 9.3682 21 9.37501H27C27.396 9.3682 27.7893 9.4363 28.1566 9.57523C28.5238 9.71417 28.8575 9.92108 29.1375 10.1836C29.4175 10.4461 29.6382 10.7589 29.7864 11.1032C29.9346 11.4475 30.0073 11.8163 30 12.1875V17.8125C29.9985 18.3093 29.7872 18.7854 29.4125 19.1367C29.0378 19.488 28.53 19.686 28 19.6875V26.25C27.9985 26.7468 27.7872 27.2229 27.4125 27.5742C27.0378 27.9255 26.53 28.1235 26 28.125ZM21 11.25C20.8666 11.2425 20.733 11.2615 20.608 11.306C20.483 11.3504 20.3695 11.4192 20.275 11.5078C20.1805 11.5964 20.1071 11.7028 20.0597 11.82C20.0123 11.9372 19.992 12.0624 20 12.1875V17.8125H22V26.25H26V17.8125H28V12.1875C28.0081 12.0624 27.9877 11.9372 27.9403 11.82C27.8929 11.7028 27.8195 11.5964 27.725 11.5078C27.6305 11.4192 27.517 11.3504 27.392 11.306C27.267 11.2615 27.1334 11.2425 27 11.25H21Z" fill="white"/>
<path id="Vector_2" d="M24 8.4375C23.2089 8.4375 22.4355 8.21757 21.7777 7.80551C21.1199 7.39346 20.6072 6.80779 20.3045 6.12256C20.0017 5.43734 19.9225 4.68334 20.0769 3.95591C20.2312 3.22848 20.6122 2.5603 21.1716 2.03585C21.731 1.5114 22.4437 1.15425 23.2196 1.00956C23.9956 0.864862 24.7998 0.939125 25.5307 1.22295C26.2616 1.50678 26.8864 1.98743 27.3259 2.60411C27.7654 3.2208 28 3.94582 28 4.6875C27.9969 5.68117 27.5745 6.6333 26.825 7.33593C26.0755 8.03856 25.0599 8.43458 24 8.4375ZM24 2.8125C23.6044 2.8125 23.2178 2.92247 22.8889 3.1285C22.56 3.33452 22.3036 3.62736 22.1522 3.96997C22.0009 4.31258 21.9613 4.68958 22.0384 5.0533C22.1156 5.41701 22.3061 5.7511 22.5858 6.01333C22.8655 6.27555 23.2219 6.45413 23.6098 6.52647C23.9978 6.59882 24.3999 6.56169 24.7654 6.41978C25.1308 6.27786 25.4432 6.03754 25.6629 5.7292C25.8827 5.42085 26 5.05834 26 4.6875C25.9984 4.19067 25.7872 3.7146 25.4125 3.36329C25.0378 3.01197 24.53 2.81396 24 2.8125Z" fill="white"/>
<path id="Vector_3" d="M10 18.9224V11.25H8.00001V18.9224C7.33279 19.1436 6.77045 19.5787 6.41237 20.151C6.0543 20.7232 5.92354 21.3958 6.04321 22.0497C6.16288 22.7036 6.52528 23.2967 7.06635 23.7244C7.60742 24.152 8.29232 24.3866 9.00001 24.3866C9.70769 24.3866 10.3926 24.152 10.9337 23.7244C11.4747 23.2967 11.8371 22.7036 11.9568 22.0497C12.0765 21.3958 11.9457 20.7232 11.5876 20.151C11.2296 19.5787 10.6672 19.1436 10 18.9224Z" fill="white"/>
<path id="Vector_4" d="M8.99995 28.125C7.6221 28.1263 6.27457 27.7459 5.1265 27.0317C3.97843 26.3175 3.081 25.3012 2.54686 24.1105C2.01272 22.9198 1.86568 21.6077 2.1242 20.3389C2.38272 19.0701 3.03527 17.9012 3.99995 16.9789V6.5625C3.99995 5.3193 4.52673 4.12701 5.46441 3.24794C6.40209 2.36886 7.67386 1.875 8.99995 1.875C10.326 1.875 11.5978 2.36886 12.5355 3.24794C13.4732 4.12701 13.9999 5.3193 13.9999 6.5625V16.9789C14.9646 17.9012 15.6172 19.0701 15.8757 20.3389C16.1342 21.6077 15.9872 22.9198 15.453 24.1105C14.9189 25.3012 14.0215 26.3175 12.8734 27.0317C11.7253 27.7459 10.3778 28.1263 8.99995 28.125ZM8.99995 3.75C8.20456 3.75082 7.44201 4.0474 6.87959 4.57467C6.31717 5.10194 6.00082 5.81683 5.99995 6.5625V17.7969L5.66795 18.0766C4.91282 18.7093 4.38046 19.5421 4.14133 20.4648C3.90219 21.3874 3.96755 22.3563 4.32877 23.2434C4.68998 24.1304 5.33001 24.8937 6.16414 25.4322C6.99827 25.9707 7.98717 26.2591 8.99995 26.2591C10.0127 26.2591 11.0016 25.9707 11.8358 25.4322C12.6699 24.8937 13.3099 24.1304 13.6711 23.2434C14.0323 22.3563 14.0977 21.3874 13.8586 20.4648C13.6194 19.5421 13.0871 18.7093 12.3319 18.0766L11.9999 17.7969V6.5625C11.9991 5.81683 11.6827 5.10194 11.1203 4.57467C10.5579 4.0474 9.79533 3.75082 8.99995 3.75Z" fill="white"/>
</g>
<defs>
<clipPath id="clip0_15_249">
<rect width="32" height="30" fill="white"/>
</clipPath>
</defs>
</svg>
