<?xml version="1.0" encoding="UTF-8"?><svg id="a" xmlns="http://www.w3.org/2000/svg" xmlns:xlink="http://www.w3.org/1999/xlink" viewBox="0 0 63.97 63.92"><defs><style>.f{fill:url(#b);stroke:#e6effc;stroke-miterlimit:10;stroke-width:.5px;}.g{fill:url(#e);opacity:.6;}.h{fill:url(#d);}.i{fill:none;}.j{fill:url(#c);opacity:.8;}</style><linearGradient id="b" x1="22.57" y1="43.46" x2="39.2" y2="14.64" gradientTransform="translate(0 65.39) scale(1 -1)" gradientUnits="userSpaceOnUse"><stop offset="0" stop-color="#f3f7fe"/><stop offset=".45" stop-color="#f3f7fe"/><stop offset="1" stop-color="#deeafb"/></linearGradient><linearGradient id="c" x1="21.42" y1="21.13" x2="24.1" y2="16.49" gradientTransform="translate(0 65.39) scale(1 -1)" gradientUnits="userSpaceOnUse"><stop offset="0" stop-color="#86c3db"/><stop offset=".45" stop-color="#86c3db"/><stop offset="1" stop-color="#5eafcf"/></linearGradient><linearGradient id="d" x1="28.73" y1="53.76" x2="31.41" y2="49.12" gradientTransform="translate(30.41 -8.61) rotate(30.29)" gradientUnits="userSpaceOnUse"><stop offset="0" stop-color="#86c3db"/><stop offset=".45" stop-color="#86c3db"/><stop offset="1" stop-color="#5eafcf"/></linearGradient><linearGradient id="e" x1="35.11" y1="44.87" x2="37.79" y2="40.23" gradientTransform="translate(15.78 -9.55) rotate(18.03)" gradientUnits="userSpaceOnUse"><stop offset="0" stop-color="#86c3db"/><stop offset=".45" stop-color="#86c3db"/><stop offset="1" stop-color="#5eafcf"/></linearGradient></defs><rect class="i" width="63.97" height="63.92"/><path class="f" d="M46.48,31.46h-.32c1.37-5.63-2.09-11.3-7.72-12.67-4.41-1.07-9,.81-11.39,4.67-3.33-1.97-7.62-.87-9.59,2.45-.64,1.07-.97,2.3-.98,3.55,0,.38,.04,.76,.1,1.14-4.06,.8-6.71,4.74-5.92,8.8,.69,3.5,3.75,6.04,7.32,6.06,.17,0,.33,0,.5,0h28c3.87,0,7-3.13,7-7s-3.13-7-7-7Z"/><path class="j" d="M25.2,47.4l-.73-.41c.07-.27,.07-.54,0-.81l.73-.42c.24-.13,.32-.43,.19-.67h0c-.14-.25-.45-.33-.69-.19l-.72,.41c-.2-.19-.44-.33-.71-.41v-.82c-.06-.28-.32-.46-.6-.4-.2,.04-.36,.2-.4,.4v.83c-.26,.08-.51,.21-.71,.4l-.72-.41c-.24-.14-.55-.06-.69,.18-.14,.23-.06,.53,.17,.67h.01l.73,.42c-.07,.27-.07,.54,0,.81l-.73,.42c-.24,.13-.32,.43-.19,.67h0c.09,.17,.26,.27,.44,.26,.09,0,.17-.02,.25-.07l.72-.41c.1,.09,.21,.18,.33,.25,.12,.07,.25,.12,.38,.15v.83c.06,.28,.32,.46,.6,.4,.2-.04,.36-.2,.4-.4v-.83c.26-.08,.51-.21,.71-.4l.72,.41c.08,.05,.16,.07,.25,.07,.18,0,.35-.09,.44-.25,.14-.23,.06-.53-.17-.67h-.01Zm-2.83-.18c-.36-.21-.48-.67-.28-1.02,.13-.23,.39-.38,.66-.38,.13,0,.26,.03,.38,.1,.35,.2,.47,.65,.28,1-.21,.37-.67,.5-1.04,.3Z"/><path class="h" d="M32.13,52.92l-.42-.72c.19-.19,.34-.43,.41-.7h.84c.27,.01,.49-.21,.5-.48,0,0,0,0,0-.01,0-.28-.23-.5-.51-.5h-.83c-.07-.28-.21-.52-.41-.72l.41-.71c.09-.27-.05-.56-.32-.65-.19-.07-.41-.01-.55,.14l-.42,.72c-.27-.07-.55-.07-.81-.01l-.41-.72c-.14-.24-.44-.33-.69-.19-.24,.13-.32,.43-.19,.66h0l.42,.74c-.19,.19-.34,.43-.41,.7h-.84c-.27-.01-.49,.21-.5,.48,0,0,0,0,0,.01,0,.18,.1,.35,.25,.44,.08,.05,.16,.07,.25,.07h.83c.04,.14,.09,.27,.16,.39,.07,.12,.15,.23,.25,.32l-.42,.72c-.09,.27,.05,.56,.32,.65,.19,.07,.41,.01,.55-.14l.42-.72c.27,.07,.55,.07,.81,.01l.41,.72c.04,.08,.1,.14,.18,.19,.16,.09,.35,.1,.51,0,.24-.13,.32-.43,.19-.66h0Zm-2.36-1.59c-.21-.36-.08-.82,.28-1.02,.23-.13,.52-.13,.76,0,.12,.07,.21,.16,.28,.28,.2,.35,.08,.79-.26,1-.36,.21-.83,.1-1.05-.27Z"/><path class="g" d="M39.35,43.72l-.57-.62c.15-.23,.24-.5,.25-.77l.82-.17c.27-.05,.44-.31,.38-.58h0c-.06-.28-.33-.46-.6-.4l-.81,.17c-.13-.25-.32-.46-.55-.61l.25-.78c.03-.28-.17-.53-.45-.57-.2-.02-.4,.08-.5,.26l-.26,.79c-.28-.01-.55,.04-.8,.16l-.56-.61c-.19-.21-.5-.22-.71-.04-.2,.18-.23,.49-.05,.69h0l.57,.63c-.15,.23-.24,.5-.25,.77l-.82,.17c-.27,.05-.44,.31-.38,.58h0c.04,.19,.17,.33,.34,.39,.08,.03,.17,.03,.26,.01l.81-.17c.07,.12,.15,.24,.24,.34,.09,.1,.2,.19,.31,.26l-.26,.79c-.03,.28,.17,.53,.45,.57,.2,.02,.4-.08,.5-.26l.26-.79c.28,.01,.55-.04,.8-.16l.56,.61c.06,.07,.13,.12,.22,.14,.17,.06,.36,.02,.5-.1,.2-.18,.23-.49,.05-.69h0Zm-2.64-1.05c-.28-.31-.25-.78,.05-1.06,.2-.18,.48-.24,.74-.15,.13,.04,.24,.11,.33,.21,.27,.3,.25,.76-.04,1.04-.31,.29-.79,.27-1.08-.04Z"/></svg>