<?xml version="1.0" encoding="UTF-8"?><svg id="a" xmlns="http://www.w3.org/2000/svg" xmlns:xlink="http://www.w3.org/1999/xlink" viewBox="0 0 63.97 63.92"><defs><style>.h{opacity:.6;stroke:url(#g);}.h,.i,.j,.k{stroke-miterlimit:10;}.h,.j,.k{stroke-linecap:round;stroke-width:2px;}.h,.j,.k,.l{fill:none;}.i{fill:url(#b);stroke:#e6effc;stroke-width:.5px;}.j{opacity:.8;stroke:url(#f);}.m{fill:url(#c);opacity:.7;}.n{fill:url(#d);}.k{stroke:url(#e);}</style><linearGradient id="b" x1="22.57" y1="43.46" x2="39.2" y2="14.64" gradientTransform="translate(0 65.39) scale(1 -1)" gradientUnits="userSpaceOnUse"><stop offset="0" stop-color="#f3f7fe"/><stop offset=".45" stop-color="#f3f7fe"/><stop offset="1" stop-color="#deeafb"/></linearGradient><linearGradient id="c" x1="23.61" y1="52.74" x2="26.29" y2="48.1" gradientTransform="translate(13.87 -4.48) rotate(14.9)" gradientUnits="userSpaceOnUse"><stop offset="0" stop-color="#86c3db"/><stop offset=".45" stop-color="#86c3db"/><stop offset="1" stop-color="#5eafcf"/></linearGradient><linearGradient id="d" x1="37.59" y1="47.5" x2="40.27" y2="42.86" gradientTransform="translate(-13.04 15.62) rotate(-19.9)" gradientUnits="userSpaceOnUse"><stop offset="0" stop-color="#86c3db"/><stop offset=".45" stop-color="#86c3db"/><stop offset="1" stop-color="#5eafcf"/></linearGradient><linearGradient id="e" x1="24.32" y1="21" x2="25.71" y2="18.6" gradientTransform="translate(0 65.39) scale(1 -1)" gradientUnits="userSpaceOnUse"><stop offset="0" stop-color="#4286ee"/><stop offset=".45" stop-color="#4286ee"/><stop offset="1" stop-color="#0950bc"/></linearGradient><linearGradient id="f" x1="31.24" y1="18.27" x2="32.63" y2="15.87" gradientTransform="translate(0 65.39) scale(1 -1)" gradientUnits="userSpaceOnUse"><stop offset="0" stop-color="#4286ee"/><stop offset=".45" stop-color="#4286ee"/><stop offset="1" stop-color="#0950bc"/></linearGradient><linearGradient id="g" x1="37.57" y1="15.19" x2="38.95" y2="12.79" gradientTransform="translate(0 65.39) scale(1 -1)" gradientUnits="userSpaceOnUse"><stop offset="0" stop-color="#4286ee"/><stop offset=".45" stop-color="#4286ee"/><stop offset="1" stop-color="#0950bc"/></linearGradient></defs><rect class="l" width="63.97" height="63.92"/><path class="i" d="M46.48,31.46h-.32c1.37-5.63-2.09-11.3-7.72-12.67-4.41-1.07-9,.81-11.39,4.67-3.33-1.97-7.62-.87-9.59,2.45-.64,1.07-.97,2.3-.98,3.55,0,.38,.04,.76,.1,1.14-4.06,.8-6.71,4.74-5.92,8.8,.69,3.5,3.75,6.04,7.32,6.06,.17,0,.33,0,.5,0h28c3.87,0,7-3.13,7-7s-3.13-7-7-7Z"/><path class="m" d="M27.16,52.08l-.6-.58c.14-.24,.21-.51,.21-.78l.81-.22c.26-.07,.42-.33,.35-.6h0c-.08-.28-.35-.44-.62-.37l-.8,.21c-.14-.24-.34-.44-.58-.58l.21-.79c.02-.28-.2-.52-.48-.54-.21-.01-.4,.1-.49,.28l-.21,.8c-.28,0-.55,.07-.79,.2l-.59-.58c-.2-.19-.51-.2-.71,0-.19,.19-.2,.5-.01,.69h.01l.6,.59c-.14,.24-.21,.51-.21,.78l-.81,.22c-.26,.07-.42,.33-.35,.6h0c.05,.19,.19,.32,.36,.37,.09,.02,.18,.02,.26,0l.8-.21c.07,.12,.16,.23,.25,.33,.1,.1,.21,.18,.33,.24l-.21,.8c-.02,.28,.2,.52,.48,.54,.21,.01,.4-.1,.49-.28l.21-.8c.28,0,.55-.07,.79-.2l.59,.58c.06,.06,.14,.11,.22,.13,.17,.05,.36,0,.49-.13,.19-.19,.2-.5,.01-.69h-.01Zm-2.69-.9c-.29-.29-.3-.77,0-1.06,.19-.19,.47-.27,.73-.19,.13,.03,.25,.1,.34,.19,.28,.29,.29,.74,.01,1.04-.29,.3-.78,.31-1.08,.02Z"/><path class="n" d="M41.52,44.78l-.83-.14c-.02-.27-.12-.54-.28-.76l.54-.64c.18-.2,.15-.51-.05-.69h-.01c-.22-.18-.53-.16-.71,.06l-.54,.63c-.25-.11-.53-.16-.81-.14l-.28-.77c-.15-.24-.46-.32-.7-.17-.18,.11-.27,.31-.24,.51l.28,.78c-.22,.16-.41,.37-.53,.62l-.82-.14c-.27-.05-.53,.13-.59,.4-.05,.27,.12,.52,.39,.58h.01l.83,.14c.02,.27,.12,.54,.28,.76l-.54,.64c-.18,.2-.15,.51,.05,.69h.01c.14,.13,.33,.16,.5,.09,.08-.03,.16-.08,.21-.15l.54-.63c.13,.05,.26,.1,.4,.12,.13,.02,.27,.03,.41,.01l.28,.78c.15,.24,.46,.32,.7,.17,.18-.11,.27-.31,.24-.51l-.28-.78c.22-.16,.41-.37,.53-.62l.82,.14c.09,.02,.18,.01,.26-.02,.17-.06,.3-.21,.33-.38,.05-.27-.12-.52-.39-.58h-.01Zm-2.72,.8c-.41-.07-.68-.46-.61-.87,.05-.27,.23-.49,.49-.58,.12-.05,.26-.06,.39-.04,.4,.07,.66,.45,.6,.84-.07,.42-.46,.7-.88,.64Z"/><path class="k" d="M25.09,45.1l-.16,.98"/><path class="j" d="M32.01,47.83l-.16,.98"/><path class="h" d="M38.34,50.9l-.16,.98"/></svg>