<?xml version="1.0" encoding="UTF-8"?><svg id="a" xmlns="http://www.w3.org/2000/svg" xmlns:xlink="http://www.w3.org/1999/xlink" viewBox="0 0 63.97 63.92"><defs><style>.i{fill:url(#b);stroke:#72b9d5;stroke-linejoin:round;}.i,.j,.k,.l{stroke-linecap:round;}.i,.m{stroke-width:.5px;}.j{opacity:.6;stroke:url(#h);}.j,.m,.k,.l{stroke-miterlimit:10;}.j,.k,.n,.l{fill:none;}.j,.k,.l{stroke-width:2px;}.m{fill:url(#c);stroke:#e6effc;}.k{stroke:url(#f);}.o{fill:url(#e);}.l{opacity:.8;stroke:url(#g);}.p{fill:url(#d);opacity:.7;}</style><linearGradient id="b" x1="13.65" y1="49.91" x2="24.22" y2="31.61" gradientTransform="translate(0 65.39) scale(1 -1)" gradientUnits="userSpaceOnUse"><stop offset="0" stop-color="#86c3db"/><stop offset=".45" stop-color="#86c3db"/><stop offset="1" stop-color="#5eafcf"/></linearGradient><linearGradient id="c" x1="22.57" y1="43.46" x2="39.2" y2="14.64" gradientTransform="translate(0 65.39) scale(1 -1)" gradientUnits="userSpaceOnUse"><stop offset="0" stop-color="#f3f7fe"/><stop offset=".45" stop-color="#f3f7fe"/><stop offset="1" stop-color="#deeafb"/></linearGradient><linearGradient id="d" x1="23.53" y1="52.47" x2="26.21" y2="47.83" gradientTransform="translate(13.87 -4.48) rotate(14.9)" xlink:href="#b"/><linearGradient id="e" x1="37.68" y1="47.23" x2="40.36" y2="42.59" gradientTransform="translate(-13.04 15.62) rotate(-19.9)" xlink:href="#b"/><linearGradient id="f" x1="24.32" y1="21.28" x2="25.71" y2="18.88" gradientTransform="translate(0 65.39) scale(1 -1)" gradientUnits="userSpaceOnUse"><stop offset="0" stop-color="#4286ee"/><stop offset=".45" stop-color="#4286ee"/><stop offset="1" stop-color="#0950bc"/></linearGradient><linearGradient id="g" x1="31.24" y1="18.55" x2="32.63" y2="16.15" xlink:href="#f"/><linearGradient id="h" x1="37.57" y1="15.48" x2="38.95" y2="13.07" xlink:href="#f"/></defs><rect class="n" width="63.97" height="63.92"/><path class="i" d="M29.31,26.64c-5.86,.04-10.64-4.68-10.68-10.54h0c0-.89,.12-1.78,.35-2.64-5.78,.72-9.88,5.98-9.16,11.76,.72,5.78,5.98,9.88,11.76,9.16,4.29-.53,7.82-3.63,8.9-7.81-.39,.04-.78,.07-1.17,.07Z"/><path class="m" d="M46.48,31.46h-.32c1.37-5.63-2.09-11.3-7.72-12.67-4.41-1.07-9,.81-11.39,4.67-3.33-1.97-7.62-.87-9.59,2.45-.64,1.07-.97,2.3-.98,3.55,0,.38,.04,.76,.1,1.14-4.06,.8-6.71,4.74-5.92,8.8,.69,3.5,3.75,6.04,7.32,6.06,.17,0,.33,0,.5,0h28c3.87,0,7-3.13,7-7s-3.13-7-7-7Z"/><path class="p" d="M27.16,51.79l-.6-.58c.14-.24,.21-.51,.21-.78l.81-.22c.26-.07,.42-.33,.35-.6h0c-.08-.28-.35-.44-.62-.37l-.8,.21c-.14-.24-.34-.44-.58-.58l.21-.79c.02-.28-.2-.52-.48-.54-.21-.01-.4,.1-.49,.28l-.21,.8c-.28,0-.55,.07-.79,.2l-.59-.58c-.2-.19-.51-.2-.71,0-.19,.19-.2,.5-.01,.69h.01l.6,.59c-.14,.24-.21,.51-.21,.78l-.81,.22c-.26,.07-.42,.33-.35,.6h0c.05,.19,.19,.32,.36,.37,.09,.02,.18,.02,.26,0l.8-.21c.07,.12,.16,.23,.25,.33,.1,.1,.21,.18,.33,.24l-.21,.8c-.02,.28,.2,.52,.48,.54,.21,.01,.4-.1,.49-.28l.21-.8c.28,0,.55-.07,.79-.2l.59,.58c.06,.06,.14,.11,.22,.13,.17,.05,.36,0,.49-.13,.19-.19,.2-.5,.01-.69h-.01Zm-2.69-.9c-.29-.29-.3-.77,0-1.06,.19-.19,.47-.27,.73-.19,.13,.03,.25,.1,.34,.19,.28,.29,.29,.74,.01,1.04-.29,.3-.78,.31-1.08,.02Z"/><path class="o" d="M41.52,44.49l-.83-.14c-.02-.27-.12-.54-.28-.76l.54-.64c.18-.2,.15-.51-.05-.69h-.01c-.22-.18-.53-.16-.71,.06l-.54,.63c-.25-.11-.53-.16-.81-.14l-.28-.77c-.15-.24-.46-.32-.7-.17-.18,.11-.27,.31-.24,.51l.28,.78c-.22,.16-.41,.37-.53,.62l-.82-.14c-.27-.05-.53,.13-.59,.4-.05,.27,.12,.52,.39,.58h.01l.83,.14c.02,.27,.12,.54,.28,.76l-.54,.64c-.18,.2-.15,.51,.05,.69h.01c.14,.13,.33,.16,.5,.09,.08-.03,.16-.08,.21-.15l.54-.63c.13,.05,.26,.1,.4,.12,.13,.02,.27,.03,.41,.01l.28,.78c.15,.24,.46,.32,.7,.17,.18-.11,.27-.31,.24-.51l-.28-.78c.22-.16,.41-.37,.53-.62l.82,.14c.09,.02,.18,.01,.26-.02,.17-.06,.3-.21,.33-.38,.05-.27-.12-.52-.39-.58h-.01Zm-2.72,.8c-.41-.07-.68-.46-.61-.87,.05-.27,.23-.49,.49-.58,.12-.05,.26-.06,.39-.04,.4,.07,.66,.45,.6,.84-.07,.42-.46,.7-.88,.64Z"/><path class="k" d="M25.09,44.82l-.16,.98"/><path class="l" d="M32.01,47.54l-.16,.98"/><path class="j" d="M38.34,50.62l-.16,.98"/></svg>