<?xml version="1.0" encoding="UTF-8"?><svg id="a" xmlns="http://www.w3.org/2000/svg" xmlns:xlink="http://www.w3.org/1999/xlink" viewBox="0 0 63.97 63.92"><defs><style>.g{fill:url(#b);stroke:#72b9d5;stroke-linejoin:round;}.g,.h{stroke-width:.5px;}.g,.i,.j,.k{stroke-linecap:round;}.h{fill:url(#c);stroke:#e6effc;}.h,.i,.j,.k{stroke-miterlimit:10;}.i{stroke:url(#f);}.i,.l,.j,.k{fill:none;}.i,.j,.k{stroke-width:2px;}.j{opacity:.6;stroke:url(#e);}.k{opacity:.8;stroke:url(#d);}</style><linearGradient id="b" x1="13.65" y1="49.91" x2="24.22" y2="31.61" gradientTransform="translate(0 65.39) scale(1 -1)" gradientUnits="userSpaceOnUse"><stop offset="0" stop-color="#86c3db"/><stop offset=".45" stop-color="#86c3db"/><stop offset="1" stop-color="#5eafcf"/></linearGradient><linearGradient id="c" x1="22.57" y1="43.46" x2="39.2" y2="14.64" gradientTransform="translate(0 65.39) scale(1 -1)" gradientUnits="userSpaceOnUse"><stop offset="0" stop-color="#f3f7fe"/><stop offset=".45" stop-color="#f3f7fe"/><stop offset="1" stop-color="#deeafb"/></linearGradient><linearGradient id="d" x1="23.1" y1="24.03" x2="26.05" y2="18.93" gradientTransform="translate(0 65.39) scale(1 -1)" gradientUnits="userSpaceOnUse"><stop offset="0" stop-color="#4286ee"/><stop offset=".45" stop-color="#4286ee"/><stop offset="1" stop-color="#0950bc"/></linearGradient><linearGradient id="e" x1="28.93" y1="17.31" x2="31.88" y2="12.21" xlink:href="#d"/><linearGradient id="f" x1="36.32" y1="20.17" x2="39.27" y2="15.07" xlink:href="#d"/></defs><rect class="l" width="63.97" height="63.92"/><path class="g" d="M29.31,26.64c-5.86,.04-10.64-4.68-10.68-10.54h0c0-.89,.12-1.78,.35-2.64-5.78,.72-9.88,5.98-9.16,11.76,.72,5.78,5.98,9.88,11.76,9.16,4.29-.53,7.82-3.63,8.9-7.81-.39,.04-.78,.07-1.17,.07Z"/><path class="h" d="M46.48,31.46h-.32c1.37-5.63-2.09-11.3-7.72-12.67-4.41-1.07-9,.81-11.39,4.67-3.33-1.97-7.62-.87-9.59,2.45-.64,1.07-.97,2.3-.98,3.55,0,.38,.04,.76,.1,1.14-4.06,.8-6.71,4.74-5.92,8.8,.69,3.5,3.75,6.04,7.32,6.06,.17,0,.33,0,.5,0h28c3.87,0,7-3.13,7-7s-3.13-7-7-7Z"/><path class="k" d="M24.97,41.44l-.78,4.94"/><path class="j" d="M30.8,48.16l-.78,4.94"/><path class="i" d="M38.19,45.3l-.78,4.94"/></svg>