<?xml version="1.0" encoding="UTF-8"?><svg id="a" xmlns="http://www.w3.org/2000/svg" xmlns:xlink="http://www.w3.org/1999/xlink" viewBox="0 0 63.97 63.92"><defs><style>.f{stroke:url(#d);}.f,.g,.h,.i{stroke-miterlimit:10;}.f,.j,.h,.i{fill:none;}.f,.h,.i{stroke-linecap:round;stroke-width:2px;}.g{fill:url(#b);stroke:#e6effc;stroke-width:.5px;}.h{opacity:.6;stroke:url(#e);}.i{opacity:.8;stroke:url(#c);}</style><linearGradient id="b" x1="22.57" y1="43.46" x2="39.2" y2="14.64" gradientTransform="translate(0 65.39) scale(1 -1)" gradientUnits="userSpaceOnUse"><stop offset="0" stop-color="#f3f7fe"/><stop offset=".45" stop-color="#f3f7fe"/><stop offset="1" stop-color="#deeafb"/></linearGradient><linearGradient id="c" x1="24.33" y1="22.26" x2="25.71" y2="19.86" gradientTransform="translate(0 65.39) scale(1 -1)" gradientUnits="userSpaceOnUse"><stop offset="0" stop-color="#4286ee"/><stop offset=".45" stop-color="#4286ee"/><stop offset="1" stop-color="#0950bc"/></linearGradient><linearGradient id="d" x1="30.29" y1="18.13" x2="31.67" y2="15.73" gradientTransform="translate(0 65.39) scale(1 -1)" gradientUnits="userSpaceOnUse"><stop offset="0" stop-color="#4286ee"/><stop offset=".45" stop-color="#4286ee"/><stop offset="1" stop-color="#0950bc"/></linearGradient><linearGradient id="e" x1="37.29" y1="24.13" x2="38.67" y2="21.73" gradientTransform="translate(0 65.39) scale(1 -1)" gradientUnits="userSpaceOnUse"><stop offset="0" stop-color="#4286ee"/><stop offset=".45" stop-color="#4286ee"/><stop offset="1" stop-color="#0950bc"/></linearGradient></defs><rect class="j" width="63.97" height="63.92"/><path class="g" d="M46.48,31.46h-.32c1.37-5.63-2.09-11.3-7.72-12.67-4.41-1.07-9,.81-11.39,4.67-3.33-1.97-7.62-.87-9.59,2.45-.64,1.07-.97,2.3-.98,3.55,0,.38,.04,.76,.1,1.14-4.06,.8-6.71,4.74-5.92,8.8,.69,3.5,3.75,6.04,7.32,6.06,.17,0,.33,0,.5,0h28c3.87,0,7-3.13,7-7s-3.13-7-7-7Z"/><path class="i" d="M25.1,43.84l-.16,.98"/><path class="f" d="M31.06,47.97l-.16,.98"/><path class="h" d="M38.06,41.97l-.16,.98"/></svg>