<?xml version="1.0" encoding="UTF-8"?><svg id="a" xmlns="http://www.w3.org/2000/svg" xmlns:xlink="http://www.w3.org/1999/xlink" viewBox="0 0 63.97 63.92"><defs><style>.d{fill:url(#b);stroke:#72b9d5;stroke-linecap:round;stroke-linejoin:round;}.d,.e{stroke-width:.5px;}.e{fill:url(#c);stroke:#e6effc;stroke-miterlimit:10;}.f{fill:none;}</style><linearGradient id="b" x1="14.17" y1="49.99" x2="24.74" y2="31.69" gradientTransform="translate(0 65.39) scale(1 -1)" gradientUnits="userSpaceOnUse"><stop offset="0" stop-color="#86c3db"/><stop offset=".45" stop-color="#86c3db"/><stop offset="1" stop-color="#5eafcf"/></linearGradient><linearGradient id="c" x1="22.57" y1="43.46" x2="39.2" y2="14.64" gradientTransform="translate(0 65.39) scale(1 -1)" gradientUnits="userSpaceOnUse"><stop offset="0" stop-color="#f3f7fe"/><stop offset=".45" stop-color="#f3f7fe"/><stop offset="1" stop-color="#deeafb"/></linearGradient></defs><rect class="f" width="63.97" height="63.92"/><path class="d" d="M29.83,26.56c-5.86,.04-10.64-4.68-10.68-10.54h0c0-.89,.12-1.78,.35-2.64-5.78,.72-9.88,5.98-9.16,11.76,.72,5.78,5.98,9.88,11.76,9.16,4.29-.53,7.82-3.63,8.9-7.81-.39,.04-.78,.07-1.17,.07Z"/><path class="e" d="M46.48,31.46h-.32c1.37-5.63-2.09-11.3-7.72-12.67-4.41-1.07-9,.81-11.39,4.67-3.33-1.97-7.62-.87-9.59,2.45-.64,1.07-.97,2.3-.98,3.55,0,.38,.04,.76,.1,1.14-4.06,.8-6.71,4.74-5.92,8.8,.69,3.5,3.75,6.04,7.32,6.06,.17,0,.33,0,.5,0h28c3.87,0,7-3.13,7-7s-3.13-7-7-7Z"/></svg>