<?xml version="1.0" encoding="UTF-8"?><svg id="a" xmlns="http://www.w3.org/2000/svg" xmlns:xlink="http://www.w3.org/1999/xlink" viewBox="0 0 63.97 63.92"><defs><style>.d{fill:url(#c);stroke:#e6effc;}.d,.e{stroke-width:.5px;}.d,.e,.f{stroke-miterlimit:10;}.e{fill:url(#b);stroke:#f8af18;}.g,.f{fill:none;}.f{stroke:#fbbf24;stroke-linecap:round;stroke-width:2px;}</style><linearGradient id="b" x1="16.48" y1="45.76" x2="21.48" y2="37.1" gradientTransform="translate(0 65.39) scale(1 -1)" gradientUnits="userSpaceOnUse"><stop offset="0" stop-color="#fbbf24"/><stop offset=".45" stop-color="#fbbf24"/><stop offset="1" stop-color="#f59e0b"/></linearGradient><linearGradient id="c" x1="22.57" y1="43.46" x2="39.2" y2="14.64" gradientTransform="translate(0 65.39) scale(1 -1)" gradientUnits="userSpaceOnUse"><stop offset="0" stop-color="#f3f7fe"/><stop offset=".45" stop-color="#f3f7fe"/><stop offset="1" stop-color="#deeafb"/></linearGradient></defs><rect class="g" width="63.97" height="63.92"/><circle class="e" cx="18.98" cy="23.96" r="5"/><path class="f" d="M15.8,16.27l-1.21-2.93m8.8,21.25l-1.21-2.93m0-15.39l1.21-2.93m-8.8,21.24l1.21-2.93m-4.51-10.88l-2.93-1.21m21.24,8.8l-2.93-1.21m-18.32,1.21l2.93-1.21m18.32-7.59l-2.93,1.21"/><path class="d" d="M46.48,31.46h-.32c1.37-5.63-2.09-11.3-7.72-12.67-4.41-1.07-9,.81-11.39,4.67-3.33-1.97-7.62-.87-9.59,2.45-.64,1.07-.97,2.3-.98,3.55,0,.38,.04,.76,.1,1.14-4.06,.8-6.71,4.74-5.92,8.8,.69,3.5,3.75,6.04,7.32,6.06,.17,0,.33,0,.5,0h28c3.87,0,7-3.13,7-7s-3.13-7-7-7Z"/></svg>