<svg width="411" height="369" viewBox="0 0 411 369" fill="none" xmlns="http://www.w3.org/2000/svg">
<g clip-path="url(#clip0_2_201)">
<g clip-path="url(#clip1_2_201)">
<path d="M98 138C120.091 138 138 120.091 138 98C138 75.9086 120.091 58 98 58C75.9086 58 58 75.9086 58 98C58 120.091 75.9086 138 98 138Z" fill="url(#paint0_linear_2_201)" stroke="#F8AF18" stroke-width="4" stroke-miterlimit="10"/>
<path d="M98 31.4V6M98 190V164.6M145.1 51L163.1 33.1M33 163L51 145.1M51 51L33 33M163.1 163.1L145.1 145.1M6 98H31.4M190 98H164.6" stroke="#FBBF24" stroke-width="12" stroke-miterlimit="10" stroke-linecap="round"/>
</g>
<g clip-path="url(#clip2_2_201)">
<g clip-path="url(#clip3_2_201)">
<path d="M211.34 156.2C211.34 164.793 214.754 173.034 220.83 179.11C226.906 185.186 235.147 188.6 243.74 188.6H373.54V188.5L375.84 188.6C384.429 188.494 392.674 185.215 398.991 179.394C405.307 173.573 409.248 165.623 410.055 157.071C410.861 148.52 408.477 139.972 403.361 133.073C398.244 126.174 390.757 121.411 382.34 119.7C383.313 113.623 382.534 107.395 380.096 101.744C377.658 96.0938 373.662 91.2544 368.574 87.7924C363.485 84.3304 357.517 82.3891 351.366 82.1957C345.214 82.0022 339.135 83.5646 333.84 86.7001C327.774 76.8124 318.372 69.4204 307.332 65.8597C296.292 62.2991 284.342 62.8046 273.643 67.285C262.943 71.7654 254.198 79.9251 248.99 90.2898C243.781 100.654 242.451 112.54 245.24 123.8H243.74C235.164 123.8 226.938 127.2 220.865 133.254C214.792 139.309 211.366 147.524 211.34 156.1V156.2Z" fill="url(#paint1_linear_2_201)" stroke="#848B98" stroke-miterlimit="10"/>
</g>
<g clip-path="url(#clip4_2_201)">
<path d="M303.84 143L301.34 143.1C306.138 123.674 303.835 103.174 294.848 85.2966C285.86 67.4194 270.779 53.343 252.326 45.6068C233.872 37.8707 213.262 36.9843 194.212 43.1075C175.163 49.2308 158.929 61.9605 148.44 79.0001C139.949 73.9559 130.274 71.2472 120.398 71.1488C110.522 71.0503 100.795 73.5656 92.205 78.4396C83.6147 83.3135 76.4662 90.3726 71.4847 98.901C66.5032 107.429 63.8658 117.123 63.84 127C63.8664 130.017 64.1339 133.026 64.64 136C49.8991 138.725 36.712 146.868 27.6746 158.828C18.6371 170.789 14.4041 185.698 15.8088 200.623C17.2135 215.548 24.1541 229.406 35.2643 239.47C46.3746 249.533 60.8496 255.074 75.84 255L79.84 254.8V255H303.84C318.692 255 332.936 249.1 343.438 238.598C353.94 228.096 359.84 213.852 359.84 199C359.84 184.148 353.94 169.904 343.438 159.402C332.936 148.9 318.692 143 303.84 143Z" fill="url(#paint2_linear_2_201)" stroke="#5B6472" stroke-width="6" stroke-miterlimit="10"/>
</g>
</g>
</g>
<g clip-path="url(#clip5_2_201)">
<path d="M184.03 184L152.03 280H184.03L168.03 360L248.03 248H200.03L232.03 184H184.03Z" fill="url(#paint3_linear_2_201)" stroke="#F6A823" stroke-width="4" stroke-miterlimit="10"/>
</g>
<defs>
<linearGradient id="paint0_linear_2_201" x1="78" y1="63.4" x2="118" y2="132.7" gradientUnits="userSpaceOnUse">
<stop stop-color="#FBBF24"/>
<stop offset="0.5" stop-color="#FBBF24"/>
<stop offset="1" stop-color="#F59E0B"/>
</linearGradient>
<linearGradient id="paint1_linear_2_201" x1="263.54" y1="72.6001" x2="344.24" y2="212.3" gradientUnits="userSpaceOnUse">
<stop stop-color="#9CA3AF"/>
<stop offset="0.5" stop-color="#9CA3AF"/>
<stop offset="1" stop-color="#6B7280"/>
</linearGradient>
<linearGradient id="paint2_linear_2_201" x1="112.34" y1="66.7001" x2="245.44" y2="297.4" gradientUnits="userSpaceOnUse">
<stop stop-color="#6B7280"/>
<stop offset="0.5" stop-color="#6B7280"/>
<stop offset="1" stop-color="#4B5563"/>
</linearGradient>
<linearGradient id="paint3_linear_2_201" x1="157.93" y1="199.1" x2="230.13" y2="324.1" gradientUnits="userSpaceOnUse">
<stop stop-color="#F7B23B"/>
<stop offset="0.5" stop-color="#F7B23B"/>
<stop offset="1" stop-color="#F59E0B"/>
</linearGradient>
<clipPath id="clip0_2_201">
<rect width="410.8" height="258" fill="white"/>
</clipPath>
<clipPath id="clip1_2_201">
<rect width="196" height="196" fill="white"/>
</clipPath>
<clipPath id="clip2_2_201">
<rect width="398" height="222" fill="white" transform="translate(12.84 36)"/>
</clipPath>
<clipPath id="clip3_2_201">
<rect width="200.3" height="126.1" fill="white" transform="translate(210.84 63)"/>
</clipPath>
<clipPath id="clip4_2_201">
<rect width="350" height="222" fill="white" transform="translate(12.84 36)"/>
</clipPath>
<clipPath id="clip5_2_201">
<rect width="102.7" height="186.8" fill="white" transform="translate(149.23 182)"/>
</clipPath>
</defs>
</svg>
