<svg width="411" height="368" viewBox="0 0 411 368" fill="none" xmlns="http://www.w3.org/2000/svg">
<g clip-path="url(#clip0_2_197)">
<g clip-path="url(#clip1_2_197)">
<path d="M98 138C120.091 138 138 120.091 138 98C138 75.9086 120.091 58 98 58C75.9086 58 58 75.9086 58 98C58 120.091 75.9086 138 98 138Z" fill="url(#paint0_linear_2_197)" stroke="#F8AF18" stroke-width="4" stroke-miterlimit="10"/>
<path d="M98 31.4V6M98 190V164.6M145.1 51L163.1 33.1M33 163L51 145.1M51 51L33 33M163.1 163.1L145.1 145.1M6 98H31.4M190 98H164.6" stroke="#FBBF24" stroke-width="12" stroke-miterlimit="10" stroke-linecap="round"/>
</g>
<g clip-path="url(#clip2_2_197)">
<g clip-path="url(#clip3_2_197)">
<path d="M211.34 156.2C211.34 164.793 214.754 173.034 220.83 179.11C226.906 185.186 235.147 188.6 243.74 188.6H373.54V188.5L375.84 188.6C384.429 188.494 392.674 185.215 398.991 179.394C405.307 173.573 409.248 165.623 410.055 157.071C410.861 148.52 408.477 139.972 403.361 133.073C398.244 126.174 390.757 121.411 382.34 119.7C383.313 113.623 382.534 107.395 380.096 101.744C377.658 96.0938 373.662 91.2544 368.574 87.7924C363.486 84.3304 357.517 82.3891 351.366 82.1957C345.215 82.0022 339.136 83.5646 333.84 86.7001C327.774 76.8124 318.372 69.4204 307.332 65.8597C296.292 62.2991 284.342 62.8046 273.643 67.285C262.943 71.7654 254.199 79.9251 248.99 90.2898C243.781 100.654 242.451 112.54 245.24 123.8H243.74C235.164 123.8 226.938 127.2 220.865 133.254C214.792 139.309 211.366 147.524 211.34 156.1V156.2Z" fill="url(#paint1_linear_2_197)" stroke="#848B98" stroke-miterlimit="10"/>
</g>
<g clip-path="url(#clip4_2_197)">
<path d="M303.84 143L301.34 143.1C306.138 123.674 303.835 103.174 294.848 85.2966C285.86 67.4194 270.779 53.343 252.326 45.6068C233.872 37.8707 213.262 36.9843 194.212 43.1075C175.163 49.2308 158.929 61.9605 148.44 79.0001C139.949 73.9559 130.274 71.2472 120.398 71.1488C110.522 71.0503 100.795 73.5656 92.205 78.4396C83.6147 83.3135 76.4662 90.3726 71.4847 98.901C66.5032 107.429 63.8658 117.123 63.84 127C63.8664 130.017 64.1339 133.026 64.64 136C49.8991 138.725 36.712 146.868 27.6746 158.828C18.6371 170.789 14.4041 185.698 15.8088 200.623C17.2135 215.548 24.1541 229.406 35.2643 239.47C46.3746 249.533 60.8496 255.074 75.84 255L79.84 254.8V255H303.84C318.692 255 332.936 249.1 343.438 238.598C353.94 228.096 359.84 213.852 359.84 199C359.84 184.148 353.94 169.904 343.438 159.402C332.936 148.9 318.692 143 303.84 143Z" fill="url(#paint2_linear_2_197)" stroke="#E6EFFC" stroke-width="6" stroke-miterlimit="10"/>
</g>
</g>
</g>
<g clip-path="url(#clip5_2_197)">
<path d="M163.6 259.5L157.8 256.2C158.321 254.065 158.321 251.835 157.8 249.7L163.6 246.5C164.063 246.24 164.469 245.891 164.796 245.473C165.122 245.055 165.362 244.576 165.502 244.064C165.641 243.552 165.678 243.018 165.609 242.492C165.54 241.966 165.367 241.459 165.1 241C164.841 240.524 164.487 240.105 164.061 239.77C163.635 239.434 163.146 239.189 162.622 239.049C162.098 238.908 161.551 238.876 161.015 238.954C160.478 239.031 159.963 239.217 159.5 239.5L153.7 242.8C152.917 242.031 152.044 241.359 151.1 240.8C150.155 240.249 149.148 239.813 148.1 239.5V233C148.1 231.926 147.673 230.896 146.914 230.136C146.154 229.377 145.124 228.95 144.05 228.95C142.976 228.95 141.946 229.377 141.186 230.136C140.427 230.896 140 231.926 140 233V239.6C137.878 240.212 135.927 241.308 134.3 242.8L128.5 239.5C128.037 239.217 127.522 239.031 126.985 238.954C126.449 238.876 125.902 238.908 125.378 239.049C124.854 239.189 124.365 239.434 123.939 239.77C123.513 240.105 123.159 240.524 122.9 241C122.633 241.459 122.46 241.966 122.391 242.492C122.322 243.018 122.359 243.552 122.498 244.064C122.638 244.576 122.878 245.055 123.204 245.473C123.531 245.891 123.937 246.24 124.4 246.5L130.2 249.8C129.679 251.935 129.679 254.165 130.2 256.3L124.4 259.5C123.937 259.76 123.531 260.109 123.204 260.527C122.878 260.945 122.638 261.424 122.498 261.936C122.359 262.448 122.322 262.982 122.391 263.508C122.46 264.034 122.633 264.541 122.9 265C123.254 265.613 123.765 266.122 124.38 266.473C124.995 266.825 125.692 267.006 126.4 267C127.099 267.011 127.788 266.839 128.4 266.5L134.2 263.2C134.983 263.969 135.856 264.641 136.8 265.2C137.75 265.716 138.756 266.119 139.8 266.4V273C139.8 274.087 140.232 275.13 141.001 275.899C141.77 276.668 142.813 277.1 143.9 277.1C144.987 277.1 146.03 276.668 146.799 275.899C147.568 275.13 148 274.087 148 273V266.4C150.087 265.777 152.003 264.682 153.6 263.2L159.6 266.5C160.212 266.839 160.901 267.011 161.6 267C162.291 266.989 162.968 266.799 163.564 266.448C164.16 266.098 164.654 265.599 165 265C165.271 264.547 165.45 264.046 165.526 263.524C165.602 263.002 165.574 262.47 165.444 261.959C165.314 261.448 165.084 260.967 164.768 260.545C164.451 260.123 164.054 259.768 163.6 259.5ZM140.9 258.2C140.208 257.815 139.6 257.296 139.11 256.675C138.619 256.053 138.257 255.341 138.043 254.579C137.829 253.817 137.768 253.02 137.864 252.234C137.959 251.448 138.21 250.689 138.6 250C139.143 249.079 139.919 248.318 140.849 247.791C141.779 247.265 142.831 246.992 143.9 247C144.952 247.008 145.984 247.283 146.9 247.8C147.583 248.194 148.182 248.718 148.662 249.343C149.143 249.969 149.495 250.682 149.7 251.444C149.904 252.206 149.956 253 149.853 253.782C149.75 254.563 149.494 255.317 149.1 256C148.287 257.36 146.976 258.35 145.446 258.761C143.915 259.171 142.285 258.97 140.9 258.2Z" fill="url(#paint3_linear_2_197)" stroke="#86C3DB" stroke-miterlimit="10"/>
<path d="M219.6 349.5L213.8 346.2C214.321 344.065 214.321 341.835 213.8 339.7L219.6 336.5C220.063 336.24 220.469 335.891 220.796 335.473C221.122 335.055 221.362 334.576 221.502 334.064C221.641 333.552 221.678 333.018 221.609 332.492C221.54 331.966 221.367 331.459 221.1 331C220.841 330.524 220.487 330.105 220.061 329.77C219.635 329.434 219.146 329.189 218.622 329.049C218.098 328.908 217.551 328.876 217.015 328.954C216.478 329.031 215.963 329.217 215.5 329.5L209.7 332.8C208.917 332.031 208.044 331.359 207.1 330.8C206.155 330.249 205.148 329.813 204.1 329.5V323C204.1 321.926 203.673 320.896 202.914 320.136C202.154 319.377 201.124 318.95 200.05 318.95C198.976 318.95 197.946 319.377 197.186 320.136C196.427 320.896 196 321.926 196 323V329.6C193.878 330.212 191.927 331.308 190.3 332.8L184.5 329.5C184.037 329.217 183.522 329.031 182.985 328.954C182.449 328.876 181.902 328.908 181.378 329.049C180.854 329.189 180.365 329.434 179.939 329.77C179.513 330.105 179.159 330.524 178.9 331C178.633 331.459 178.46 331.966 178.391 332.492C178.322 333.018 178.359 333.552 178.498 334.064C178.638 334.576 178.878 335.055 179.204 335.473C179.531 335.891 179.937 336.24 180.4 336.5L186.2 339.8C185.679 341.935 185.679 344.165 186.2 346.3L180.4 349.5C179.937 349.76 179.531 350.109 179.204 350.527C178.878 350.945 178.638 351.424 178.498 351.936C178.359 352.448 178.322 352.982 178.391 353.508C178.46 354.034 178.633 354.541 178.9 355C179.254 355.613 179.765 356.122 180.38 356.473C180.995 356.825 181.692 357.006 182.4 357C183.099 357.011 183.788 356.839 184.4 356.5L190.2 353.2C191.014 353.976 191.921 354.648 192.9 355.2C193.85 355.716 194.856 356.119 195.9 356.4V363C195.9 364.061 196.321 365.078 197.072 365.828C197.822 366.579 198.839 367 199.9 367C200.961 367 201.978 366.579 202.728 365.828C203.479 365.078 203.9 364.061 203.9 363V356.5C206.023 355.891 207.975 354.795 209.6 353.3L215.4 356.6C216.012 356.939 216.701 357.111 217.4 357.1C218.108 357.106 218.805 356.925 219.42 356.573C220.035 356.222 220.546 355.713 220.9 355.1C221.456 354.198 221.631 353.112 221.388 352.081C221.144 351.05 220.501 350.158 219.6 349.6V349.5ZM196.9 348.2C196.208 347.815 195.6 347.296 195.11 346.675C194.619 346.053 194.257 345.341 194.043 344.579C193.829 343.817 193.768 343.02 193.864 342.234C193.959 341.448 194.21 340.689 194.6 340C195.143 339.079 195.919 338.318 196.849 337.791C197.779 337.265 198.831 336.992 199.9 337C200.952 337.008 201.984 337.283 202.9 337.8C203.583 338.194 204.182 338.718 204.662 339.343C205.143 339.969 205.495 340.682 205.7 341.444C205.904 342.206 205.956 343 205.853 343.782C205.75 344.563 205.494 345.317 205.1 346C204.287 347.36 202.976 348.35 201.446 348.761C199.915 349.171 198.285 348.97 196.9 348.2Z" fill="url(#paint4_linear_2_197)" stroke="#86C3DB" stroke-miterlimit="10"/>
<path d="M275.6 299.5L269.8 296.2C270.321 294.065 270.321 291.835 269.8 289.7L275.6 286.5C276.063 286.24 276.469 285.891 276.796 285.473C277.122 285.055 277.362 284.576 277.502 284.064C277.641 283.552 277.678 283.018 277.609 282.492C277.54 281.966 277.367 281.459 277.1 281C276.841 280.524 276.487 280.105 276.061 279.77C275.635 279.434 275.146 279.189 274.622 279.049C274.098 278.908 273.551 278.876 273.015 278.954C272.478 279.031 271.963 279.217 271.5 279.5L265.7 282.8C264.917 282.031 264.044 281.359 263.1 280.8C262.155 280.249 261.148 279.813 260.1 279.5V273C260.1 271.926 259.673 270.896 258.914 270.136C258.154 269.377 257.124 268.95 256.05 268.95C254.976 268.95 253.946 269.377 253.186 270.136C252.427 270.896 252 271.926 252 273V279.6C249.878 280.212 247.927 281.308 246.3 282.8L240.5 279.5C240.037 279.217 239.522 279.031 238.985 278.954C238.449 278.876 237.902 278.908 237.378 279.049C236.854 279.189 236.365 279.434 235.939 279.77C235.513 280.105 235.159 280.524 234.9 281C234.633 281.459 234.46 281.966 234.391 282.492C234.322 283.018 234.359 283.552 234.498 284.064C234.638 284.576 234.878 285.055 235.204 285.473C235.531 285.891 235.937 286.24 236.4 286.5L242.2 289.8C241.679 291.935 241.679 294.165 242.2 296.3L236.4 299.5C235.937 299.76 235.531 300.109 235.204 300.527C234.878 300.945 234.638 301.424 234.498 301.936C234.359 302.448 234.322 302.982 234.391 303.508C234.46 304.034 234.633 304.541 234.9 305C235.254 305.613 235.765 306.122 236.38 306.473C236.995 306.825 237.692 307.006 238.4 307C239.099 307.011 239.788 306.839 240.4 306.5L246.2 303.2C247.014 303.976 247.921 304.648 248.9 305.2C249.85 305.716 250.856 306.119 251.9 306.4V313C251.9 314.061 252.321 315.078 253.072 315.828C253.822 316.579 254.839 317 255.9 317C256.961 317 257.978 316.579 258.728 315.828C259.479 315.078 259.9 314.061 259.9 313V306.4C262.023 305.791 263.975 304.695 265.6 303.2L271.4 306.5C272.012 306.839 272.701 307.011 273.4 307C274.108 307.006 274.805 306.825 275.42 306.473C276.035 306.122 276.546 305.613 276.9 305C277.456 304.098 277.631 303.012 277.388 301.981C277.144 300.95 276.501 300.058 275.6 299.5ZM252.9 298.2C252.208 297.815 251.6 297.296 251.11 296.675C250.619 296.053 250.257 295.341 250.043 294.579C249.829 293.817 249.768 293.02 249.864 292.234C249.959 291.448 250.21 290.689 250.6 290C251.143 289.079 251.919 288.318 252.849 287.791C253.779 287.265 254.831 286.992 255.9 287C256.952 287.008 257.984 287.283 258.9 287.8C259.583 288.194 260.182 288.718 260.662 289.343C261.143 289.969 261.495 290.682 261.7 291.444C261.904 292.206 261.956 293 261.853 293.782C261.75 294.563 261.494 295.317 261.1 296C260.287 297.36 258.976 298.35 257.446 298.761C255.915 299.171 254.285 298.97 252.9 298.2Z" fill="url(#paint5_linear_2_197)" stroke="#86C3DB" stroke-miterlimit="10"/>
</g>
<defs>
<linearGradient id="paint0_linear_2_197" x1="78" y1="63.4" x2="118" y2="132.7" gradientUnits="userSpaceOnUse">
<stop stop-color="#FBBF24"/>
<stop offset="0.5" stop-color="#FBBF24"/>
<stop offset="1" stop-color="#F59E0B"/>
</linearGradient>
<linearGradient id="paint1_linear_2_197" x1="263.54" y1="72.6001" x2="344.24" y2="212.3" gradientUnits="userSpaceOnUse">
<stop stop-color="#9CA3AF"/>
<stop offset="0.5" stop-color="#9CA3AF"/>
<stop offset="1" stop-color="#6B7280"/>
</linearGradient>
<linearGradient id="paint2_linear_2_197" x1="112.34" y1="66.7001" x2="245.44" y2="297.4" gradientUnits="userSpaceOnUse">
<stop stop-color="#F3F7FE"/>
<stop offset="0.5" stop-color="#F3F7FE"/>
<stop offset="1" stop-color="#DEEAFB"/>
</linearGradient>
<linearGradient id="paint3_linear_2_197" x1="133.3" y1="234.4" x2="154.7" y2="271.6" gradientUnits="userSpaceOnUse">
<stop stop-color="#86C3DB"/>
<stop offset="0.5" stop-color="#86C3DB"/>
<stop offset="1" stop-color="#5EAFCF"/>
</linearGradient>
<linearGradient id="paint4_linear_2_197" x1="189.3" y1="324.4" x2="210.7" y2="361.6" gradientUnits="userSpaceOnUse">
<stop stop-color="#86C3DB"/>
<stop offset="0.5" stop-color="#86C3DB"/>
<stop offset="1" stop-color="#5EAFCF"/>
</linearGradient>
<linearGradient id="paint5_linear_2_197" x1="245.3" y1="274.4" x2="266.7" y2="311.6" gradientUnits="userSpaceOnUse">
<stop stop-color="#86C3DB"/>
<stop offset="0.5" stop-color="#86C3DB"/>
<stop offset="1" stop-color="#5EAFCF"/>
</linearGradient>
<clipPath id="clip0_2_197">
<rect width="410.8" height="258" fill="white"/>
</clipPath>
<clipPath id="clip1_2_197">
<rect width="196" height="196" fill="white"/>
</clipPath>
<clipPath id="clip2_2_197">
<rect width="398" height="222" fill="white" transform="translate(12.84 36)"/>
</clipPath>
<clipPath id="clip3_2_197">
<rect width="200.3" height="126.1" fill="white" transform="translate(210.84 63)"/>
</clipPath>
<clipPath id="clip4_2_197">
<rect width="350" height="222" fill="white" transform="translate(12.84 36)"/>
</clipPath>
<clipPath id="clip5_2_197">
<rect width="156.2" height="139" fill="white" transform="translate(121.9 228.5)"/>
</clipPath>
</defs>
</svg>
