<svg width="411" height="348" viewBox="0 0 411 348" fill="none" xmlns="http://www.w3.org/2000/svg">
<g clip-path="url(#clip0_2_180)">
<g clip-path="url(#clip1_2_180)">
<path d="M98 138C120.091 138 138 120.091 138 98C138 75.9086 120.091 58 98 58C75.9086 58 58 75.9086 58 98C58 120.091 75.9086 138 98 138Z" fill="url(#paint0_linear_2_180)" stroke="#F8AF18" stroke-width="4" stroke-miterlimit="10"/>
<path d="M98 31.4V6M98 190V164.6M145.1 51L163.1 33.1M33 163L51 145.1M51 51L33 33M163.1 163.1L145.1 145.1M6 98H31.4M190 98H164.6" stroke="#FBBF24" stroke-width="12" stroke-miterlimit="10" stroke-linecap="round"/>
</g>
<g clip-path="url(#clip2_2_180)">
<g clip-path="url(#clip3_2_180)">
<path d="M211.34 156.2C211.34 164.793 214.754 173.034 220.83 179.11C226.906 185.186 235.147 188.6 243.74 188.6H373.54V188.5L375.84 188.6C384.429 188.493 392.674 185.214 398.991 179.394C405.307 173.573 409.248 165.622 410.055 157.071C410.861 148.52 408.477 139.972 403.361 133.073C398.244 126.174 390.757 121.411 382.34 119.7C383.313 113.623 382.534 107.395 380.096 101.744C377.658 96.0938 373.662 91.2543 368.574 87.7923C363.485 84.3304 357.517 82.3891 351.366 82.1956C345.214 82.0022 339.135 83.5646 333.84 86.7C327.774 76.8123 318.372 69.4203 307.332 65.8597C296.292 62.299 284.342 62.8046 273.643 67.285C262.943 71.7654 254.198 79.9251 248.99 90.2897C243.781 100.654 242.451 112.54 245.24 123.8H243.74C235.164 123.8 226.938 127.2 220.865 133.254C214.792 139.309 211.366 147.524 211.34 156.1V156.2Z" fill="url(#paint1_linear_2_180)" stroke="#848B98" stroke-miterlimit="10"/>
</g>
<g clip-path="url(#clip4_2_180)">
<path d="M303.84 143L301.34 143.1C306.138 123.674 303.835 103.174 294.848 85.2966C285.86 67.4194 270.779 53.3429 252.326 45.6068C233.872 37.8706 213.262 36.9842 194.212 43.1075C175.163 49.2307 158.929 61.9605 148.44 79C139.949 73.9558 130.274 71.2471 120.398 71.1487C110.522 71.0503 100.795 73.5656 92.205 78.4395C83.6147 83.3134 76.4662 90.3726 71.4847 98.9009C66.5032 107.429 63.8658 117.123 63.84 127C63.8664 130.017 64.1339 133.026 64.64 136C49.8991 138.724 36.712 146.868 27.6746 158.828C18.6371 170.788 14.4041 185.698 15.8088 200.623C17.2135 215.548 24.1541 229.406 35.2643 239.47C46.3746 249.533 60.8496 255.074 75.84 255L79.84 254.8V255H303.84C318.692 255 332.936 249.1 343.438 238.598C353.94 228.096 359.84 213.852 359.84 199C359.84 184.148 353.94 169.904 343.438 159.402C332.936 148.9 318.692 143 303.84 143Z" fill="url(#paint2_linear_2_180)" stroke="#E6EFFC" stroke-width="6" stroke-miterlimit="10"/>
</g>
</g>
</g>
<g clip-path="url(#clip5_2_180)">
<path d="M144 267C141.878 267 139.843 266.157 138.343 264.657C136.843 263.157 136 261.122 136 259V247C136 244.878 136.843 242.843 138.343 241.343C139.843 239.843 141.878 239 144 239C146.122 239 148.157 239.843 149.657 241.343C151.157 242.843 152 244.878 152 247V259C152 261.122 151.157 263.157 149.657 264.657C148.157 266.157 146.122 267 144 267Z" fill="url(#paint3_linear_2_180)" stroke="#0A5AD4" stroke-miterlimit="10"/>
<path d="M200 347C197.878 347 195.843 346.157 194.343 344.657C192.843 343.157 192 341.122 192 339V327C192 324.878 192.843 322.843 194.343 321.343C195.843 319.843 197.878 319 200 319C202.122 319 204.157 319.843 205.657 321.343C207.157 322.843 208 324.878 208 327V339C208 341.122 207.157 343.157 205.657 344.657C204.157 346.157 202.122 347 200 347Z" fill="url(#paint4_linear_2_180)" stroke="#0A5AD4" stroke-miterlimit="10"/>
<path d="M256 297C253.878 297 251.843 296.157 250.343 294.657C248.843 293.157 248 291.122 248 289V277C248 274.878 248.843 272.843 250.343 271.343C251.843 269.843 253.878 269 256 269C258.122 269 260.157 269.843 261.657 271.343C263.157 272.843 264 274.878 264 277V289C264 291.122 263.157 293.157 261.657 294.657C260.157 296.157 258.122 297 256 297Z" fill="url(#paint5_linear_2_180)" stroke="#0A5AD4" stroke-miterlimit="10"/>
</g>
<defs>
<linearGradient id="paint0_linear_2_180" x1="78" y1="63.4" x2="118" y2="132.7" gradientUnits="userSpaceOnUse">
<stop stop-color="#FBBF24"/>
<stop offset="0.5" stop-color="#FBBF24"/>
<stop offset="1" stop-color="#F59E0B"/>
</linearGradient>
<linearGradient id="paint1_linear_2_180" x1="263.54" y1="72.6" x2="344.24" y2="212.3" gradientUnits="userSpaceOnUse">
<stop stop-color="#9CA3AF"/>
<stop offset="0.5" stop-color="#9CA3AF"/>
<stop offset="1" stop-color="#6B7280"/>
</linearGradient>
<linearGradient id="paint2_linear_2_180" x1="112.34" y1="66.7" x2="245.44" y2="297.4" gradientUnits="userSpaceOnUse">
<stop stop-color="#F3F7FE"/>
<stop offset="0.5" stop-color="#F3F7FE"/>
<stop offset="1" stop-color="#DEEAFB"/>
</linearGradient>
<linearGradient id="paint3_linear_2_180" x1="137.369" y1="241.539" x2="150.616" y2="264.449" gradientUnits="userSpaceOnUse">
<stop stop-color="#0B65ED"/>
<stop offset="0.5" stop-color="#0A5AD4"/>
<stop offset="1" stop-color="#0950BC"/>
</linearGradient>
<linearGradient id="paint4_linear_2_180" x1="193.377" y1="321.563" x2="206.624" y2="344.472" gradientUnits="userSpaceOnUse">
<stop stop-color="#0B65ED"/>
<stop offset="0.5" stop-color="#0A5AD4"/>
<stop offset="1" stop-color="#0950BC"/>
</linearGradient>
<linearGradient id="paint5_linear_2_180" x1="249.349" y1="271.592" x2="262.58" y2="294.403" gradientUnits="userSpaceOnUse">
<stop stop-color="#0B65ED"/>
<stop offset="0.5" stop-color="#0A5AD4"/>
<stop offset="1" stop-color="#0950BC"/>
</linearGradient>
<clipPath id="clip0_2_180">
<rect width="410.8" height="258" fill="white"/>
</clipPath>
<clipPath id="clip1_2_180">
<rect width="196" height="196" fill="white"/>
</clipPath>
<clipPath id="clip2_2_180">
<rect width="398" height="222" fill="white" transform="translate(12.84 36)"/>
</clipPath>
<clipPath id="clip3_2_180">
<rect width="200.3" height="126.1" fill="white" transform="translate(210.84 63)"/>
</clipPath>
<clipPath id="clip4_2_180">
<rect width="350" height="222" fill="white" transform="translate(12.84 36)"/>
</clipPath>
<clipPath id="clip5_2_180">
<rect width="129" height="109" fill="white" transform="translate(135.5 238.5)"/>
</clipPath>
</defs>
</svg>
