<svg width="399" height="336" viewBox="0 0 399 336" fill="none" xmlns="http://www.w3.org/2000/svg">
<g clip-path="url(#clip0_2_179)">
<g clip-path="url(#clip1_2_179)">
<path d="M160.6 107.4C149.455 107.479 138.405 105.361 128.079 101.166C117.754 96.9706 108.357 90.7815 100.426 82.9522C92.4943 75.1229 86.1839 65.8069 81.8555 55.537C77.527 45.267 75.2654 34.2446 75.2 23.1C75.2272 15.9759 76.1682 8.88466 78 2C57.2476 4.14248 38.016 13.8686 23.9914 29.3141C9.9668 44.7596 2.13601 64.8377 2 85.7C2.06543 96.8446 4.32704 107.867 8.65549 118.137C12.9839 128.407 19.2943 137.723 27.2258 145.552C35.1573 153.382 44.5543 159.571 54.8795 163.766C65.2047 167.961 76.2555 170.079 87.4 170C106.201 170.07 124.497 163.919 139.437 152.505C154.378 141.092 165.123 125.058 170 106.9C166.878 107.234 163.74 107.401 160.6 107.4Z" fill="url(#paint0_linear_2_179)" stroke="#72B9D5" stroke-width="4" stroke-linecap="round" stroke-linejoin="round"/>
</g>
<g clip-path="url(#clip2_2_179)">
<g clip-path="url(#clip3_2_179)">
<path d="M199.34 144.2C199.34 152.793 202.754 161.034 208.83 167.11C214.906 173.186 223.147 176.6 231.74 176.6H361.54V176.5L363.84 176.6C372.429 176.493 380.674 173.214 386.991 167.394C393.307 161.573 397.248 153.622 398.055 145.071C398.861 136.52 396.477 127.972 391.361 121.073C386.244 114.174 378.757 109.411 370.34 107.7C371.313 101.623 370.534 95.3951 368.096 89.7444C365.658 84.0938 361.662 79.2543 356.574 75.7923C351.486 72.3304 345.517 70.3891 339.366 70.1956C333.215 70.0022 327.136 71.5646 321.84 74.7C315.774 64.8123 306.372 57.4203 295.332 53.8597C284.292 50.299 272.342 50.8046 261.643 55.285C250.943 59.7654 242.199 67.9251 236.99 78.2897C231.781 88.6544 230.451 100.54 233.24 111.8H231.74C223.164 111.8 214.938 115.2 208.865 121.254C202.792 127.309 199.366 135.524 199.34 144.1V144.2Z" fill="url(#paint1_linear_2_179)" stroke="#848B98" stroke-miterlimit="10"/>
</g>
<g clip-path="url(#clip4_2_179)">
<path d="M291.84 131L289.34 131.1C294.138 111.674 291.835 91.1737 282.848 73.2966C273.86 55.4194 258.779 41.3429 240.326 33.6068C221.872 25.8706 201.262 24.9842 182.212 31.1075C163.163 37.2307 146.929 49.9605 136.44 67C127.949 61.9558 118.274 59.2471 108.398 59.1487C98.5218 59.0503 88.7953 61.5656 80.205 66.4395C71.6147 71.3134 64.4662 78.3726 59.4847 86.9009C54.5032 95.4292 51.8658 105.123 51.84 115C51.8664 118.017 52.1339 121.026 52.64 124C37.8991 126.724 24.712 134.868 15.6746 146.828C6.63713 158.788 2.40413 173.698 3.8088 188.623C5.21347 203.548 12.1541 217.406 23.2643 227.47C34.3746 237.533 48.8496 243.074 63.84 243L67.84 242.8V243H291.84C306.692 243 320.936 237.1 331.438 226.598C341.94 216.096 347.84 201.852 347.84 187C347.84 172.148 341.94 157.904 331.438 147.402C320.936 136.9 306.692 131 291.84 131Z" fill="url(#paint2_linear_2_179)" stroke="#E6EFFC" stroke-width="6" stroke-miterlimit="10"/>
</g>
</g>
</g>
<g clip-path="url(#clip5_2_179)">
<path d="M132 255C129.878 255 127.843 254.157 126.343 252.657C124.843 251.157 124 249.122 124 247V235C124 232.878 124.843 230.843 126.343 229.343C127.843 227.843 129.878 227 132 227C134.122 227 136.157 227.843 137.657 229.343C139.157 230.843 140 232.878 140 235V247C140 249.122 139.157 251.157 137.657 252.657C136.157 254.157 134.122 255 132 255Z" fill="url(#paint3_linear_2_179)" stroke="#0A5AD4" stroke-miterlimit="10"/>
<path d="M188 335C185.878 335 183.843 334.157 182.343 332.657C180.843 331.157 180 329.122 180 327V315C180 312.878 180.843 310.843 182.343 309.343C183.843 307.843 185.878 307 188 307C190.122 307 192.157 307.843 193.657 309.343C195.157 310.843 196 312.878 196 315V327C196 329.122 195.157 331.157 193.657 332.657C192.157 334.157 190.122 335 188 335Z" fill="url(#paint4_linear_2_179)" stroke="#0A5AD4" stroke-miterlimit="10"/>
<path d="M244 285C241.878 285 239.843 284.157 238.343 282.657C236.843 281.157 236 279.122 236 277V265C236 262.878 236.843 260.843 238.343 259.343C239.843 257.843 241.878 257 244 257C246.122 257 248.157 257.843 249.657 259.343C251.157 260.843 252 262.878 252 265V277C252 279.122 251.157 281.157 249.657 282.657C248.157 284.157 246.122 285 244 285Z" fill="url(#paint5_linear_2_179)" stroke="#0A5AD4" stroke-miterlimit="10"/>
</g>
<defs>
<linearGradient id="paint0_linear_2_179" x1="34.7" y1="18.6" x2="119.2" y2="165" gradientUnits="userSpaceOnUse">
<stop stop-color="#86C3DB"/>
<stop offset="0.5" stop-color="#86C3DB"/>
<stop offset="1" stop-color="#5EAFCF"/>
</linearGradient>
<linearGradient id="paint1_linear_2_179" x1="251.54" y1="60.6" x2="332.24" y2="200.3" gradientUnits="userSpaceOnUse">
<stop stop-color="#9CA3AF"/>
<stop offset="0.5" stop-color="#9CA3AF"/>
<stop offset="1" stop-color="#6B7280"/>
</linearGradient>
<linearGradient id="paint2_linear_2_179" x1="100.34" y1="54.7" x2="233.44" y2="285.4" gradientUnits="userSpaceOnUse">
<stop stop-color="#F3F7FE"/>
<stop offset="0.5" stop-color="#F3F7FE"/>
<stop offset="1" stop-color="#DEEAFB"/>
</linearGradient>
<linearGradient id="paint3_linear_2_179" x1="125.369" y1="229.539" x2="138.616" y2="252.449" gradientUnits="userSpaceOnUse">
<stop stop-color="#0B65ED"/>
<stop offset="0.5" stop-color="#0A5AD4"/>
<stop offset="1" stop-color="#0950BC"/>
</linearGradient>
<linearGradient id="paint4_linear_2_179" x1="181.377" y1="309.563" x2="194.624" y2="332.472" gradientUnits="userSpaceOnUse">
<stop stop-color="#0B65ED"/>
<stop offset="0.5" stop-color="#0A5AD4"/>
<stop offset="1" stop-color="#0950BC"/>
</linearGradient>
<linearGradient id="paint5_linear_2_179" x1="237.349" y1="259.592" x2="250.58" y2="282.403" gradientUnits="userSpaceOnUse">
<stop stop-color="#0B65ED"/>
<stop offset="0.5" stop-color="#0A5AD4"/>
<stop offset="1" stop-color="#0950BC"/>
</linearGradient>
<clipPath id="clip0_2_179">
<rect width="398.8" height="246" fill="white"/>
</clipPath>
<clipPath id="clip1_2_179">
<rect width="172" height="172" fill="white"/>
</clipPath>
<clipPath id="clip2_2_179">
<rect width="398" height="222" fill="white" transform="translate(0.840027 24)"/>
</clipPath>
<clipPath id="clip3_2_179">
<rect width="200.3" height="126.1" fill="white" transform="translate(198.84 51)"/>
</clipPath>
<clipPath id="clip4_2_179">
<rect width="350" height="222" fill="white" transform="translate(0.840027 24)"/>
</clipPath>
<clipPath id="clip5_2_179">
<rect width="129" height="109" fill="white" transform="translate(123.5 226.5)"/>
</clipPath>
</defs>
</svg>
