<svg width="399" height="356" viewBox="0 0 399 356" fill="none" xmlns="http://www.w3.org/2000/svg">
<g clip-path="url(#clip0_2_198)">
<g clip-path="url(#clip1_2_198)">
<path d="M160.6 107.4C149.455 107.479 138.405 105.361 128.079 101.166C117.754 96.9706 108.357 90.7815 100.426 82.9522C92.4943 75.1229 86.1839 65.8069 81.8555 55.537C77.527 45.267 75.2654 34.2446 75.2 23.1C75.2272 15.9759 76.1682 8.88466 78 2C57.2476 4.14248 38.016 13.8686 23.9914 29.3141C9.9668 44.7596 2.13601 64.8377 2 85.7C2.06543 96.8446 4.32704 107.867 8.65549 118.137C12.9839 128.407 19.2943 137.723 27.2258 145.552C35.1573 153.382 44.5543 159.571 54.8795 163.766C65.2047 167.961 76.2555 170.079 87.4 170C106.201 170.07 124.497 163.919 139.437 152.505C154.378 141.092 165.123 125.058 170 106.9C166.878 107.234 163.74 107.401 160.6 107.4Z" fill="url(#paint0_linear_2_198)" stroke="#72B9D5" stroke-width="4" stroke-linecap="round" stroke-linejoin="round"/>
</g>
<g clip-path="url(#clip2_2_198)">
<g clip-path="url(#clip3_2_198)">
<path d="M199.34 144.2C199.34 152.793 202.754 161.034 208.83 167.11C214.906 173.186 223.147 176.6 231.74 176.6H361.54V176.5L363.84 176.6C372.429 176.494 380.674 173.215 386.991 167.394C393.307 161.573 397.248 153.623 398.055 145.071C398.861 136.52 396.477 127.972 391.361 121.073C386.244 114.174 378.757 109.411 370.34 107.7C371.313 101.623 370.534 95.3951 368.096 89.7445C365.658 84.0938 361.662 79.2544 356.574 75.7924C351.485 72.3304 345.517 70.3891 339.366 70.1957C333.215 70.0022 327.136 71.5646 321.84 74.7001C315.774 64.8124 306.372 57.4204 295.332 53.8597C284.292 50.2991 272.342 50.8046 261.643 55.285C250.943 59.7654 242.198 67.9251 236.99 78.2898C231.781 88.6545 230.451 100.54 233.24 111.8H231.74C223.164 111.8 214.938 115.2 208.865 121.254C202.792 127.309 199.366 135.524 199.34 144.1V144.2Z" fill="url(#paint1_linear_2_198)" stroke="#848B98" stroke-miterlimit="10"/>
</g>
<g clip-path="url(#clip4_2_198)">
<path d="M291.84 131L289.34 131.1C294.138 111.674 291.835 91.1738 282.848 73.2966C273.86 55.4194 258.779 41.343 240.326 33.6068C221.872 25.8707 201.262 24.9843 182.212 31.1075C163.163 37.2308 146.929 49.9605 136.44 67.0001C127.949 61.9559 118.274 59.2472 108.398 59.1488C98.5218 59.0503 88.7952 61.5656 80.205 66.4396C71.6147 71.3135 64.4662 78.3726 59.4847 86.901C54.5031 95.4293 51.8657 105.123 51.84 115C51.8664 118.017 52.1339 121.026 52.64 124C37.8991 126.725 24.7119 134.868 15.6745 146.828C6.6371 158.789 2.4041 173.698 3.80877 188.623C5.21344 203.548 12.154 217.406 23.2643 227.47C34.3745 237.533 48.8496 243.074 63.84 243L67.84 242.8V243H291.84C306.692 243 320.936 237.1 331.438 226.598C341.94 216.096 347.84 201.852 347.84 187C347.84 172.148 341.94 157.904 331.438 147.402C320.936 136.9 306.692 131 291.84 131Z" fill="url(#paint2_linear_2_198)" stroke="#5B6472" stroke-width="6" stroke-miterlimit="10"/>
</g>
</g>
</g>
<g clip-path="url(#clip5_2_198)">
<path d="M151.6 247.5L145.8 244.2C146.321 242.065 146.321 239.835 145.8 237.7L151.6 234.5C152.063 234.24 152.469 233.891 152.796 233.473C153.122 233.055 153.362 232.576 153.502 232.064C153.641 231.552 153.678 231.018 153.609 230.492C153.54 229.966 153.367 229.459 153.1 229C152.841 228.524 152.487 228.105 152.061 227.77C151.635 227.434 151.146 227.189 150.622 227.049C150.098 226.908 149.551 226.876 149.015 226.954C148.478 227.031 147.963 227.217 147.5 227.5L141.7 230.8C140.917 230.031 140.044 229.359 139.1 228.8C138.155 228.249 137.148 227.813 136.1 227.5V221C136.1 219.926 135.673 218.896 134.914 218.136C134.154 217.377 133.124 216.95 132.05 216.95C130.976 216.95 129.946 217.377 129.186 218.136C128.427 218.896 128 219.926 128 221V227.6C125.878 228.212 123.927 229.308 122.3 230.8L116.5 227.5C116.037 227.217 115.522 227.031 114.985 226.954C114.449 226.876 113.902 226.908 113.378 227.049C112.854 227.189 112.365 227.434 111.939 227.77C111.513 228.105 111.159 228.524 110.9 229C110.633 229.459 110.46 229.966 110.391 230.492C110.322 231.018 110.359 231.552 110.498 232.064C110.638 232.576 110.878 233.055 111.204 233.473C111.531 233.891 111.937 234.24 112.4 234.5L118.2 237.8C117.679 239.935 117.679 242.165 118.2 244.3L112.4 247.5C111.937 247.76 111.531 248.109 111.204 248.527C110.878 248.945 110.638 249.424 110.498 249.936C110.359 250.448 110.322 250.982 110.391 251.508C110.46 252.034 110.633 252.541 110.9 253C111.254 253.613 111.765 254.122 112.38 254.473C112.995 254.825 113.692 255.006 114.4 255C115.099 255.011 115.788 254.839 116.4 254.5L122.2 251.2C122.983 251.969 123.856 252.641 124.8 253.2C125.75 253.716 126.756 254.119 127.8 254.4V261C127.8 262.087 128.232 263.13 129.001 263.899C129.77 264.668 130.813 265.1 131.9 265.1C132.987 265.1 134.03 264.668 134.799 263.899C135.568 263.13 136 262.087 136 261V254.4C138.087 253.777 140.003 252.682 141.6 251.2L147.6 254.5C148.212 254.839 148.901 255.011 149.6 255C150.291 254.989 150.968 254.799 151.564 254.448C152.16 254.098 152.654 253.599 153 253C153.271 252.547 153.45 252.046 153.526 251.524C153.602 251.002 153.574 250.47 153.444 249.959C153.314 249.448 153.084 248.967 152.768 248.545C152.451 248.123 152.054 247.768 151.6 247.5ZM128.9 246.2C128.208 245.815 127.6 245.296 127.11 244.675C126.619 244.053 126.257 243.341 126.043 242.579C125.829 241.817 125.768 241.02 125.864 240.234C125.959 239.448 126.21 238.689 126.6 238C127.143 237.079 127.919 236.318 128.849 235.791C129.779 235.265 130.831 234.992 131.9 235C132.952 235.008 133.984 235.283 134.9 235.8C135.583 236.194 136.182 236.718 136.662 237.343C137.143 237.969 137.495 238.682 137.7 239.444C137.904 240.206 137.956 241 137.853 241.782C137.75 242.563 137.494 243.317 137.1 244C136.287 245.36 134.976 246.35 133.446 246.761C131.915 247.171 130.285 246.97 128.9 246.2Z" fill="url(#paint3_linear_2_198)" stroke="#86C3DB" stroke-miterlimit="10"/>
<path d="M207.6 337.5L201.8 334.2C202.321 332.065 202.321 329.835 201.8 327.7L207.6 324.5C208.063 324.24 208.469 323.891 208.796 323.473C209.122 323.055 209.362 322.576 209.502 322.064C209.641 321.552 209.678 321.018 209.609 320.492C209.54 319.966 209.367 319.459 209.1 319C208.841 318.524 208.487 318.105 208.061 317.77C207.635 317.434 207.146 317.189 206.622 317.049C206.098 316.908 205.551 316.876 205.015 316.954C204.478 317.031 203.963 317.217 203.5 317.5L197.7 320.8C196.917 320.031 196.044 319.359 195.1 318.8C194.155 318.249 193.148 317.813 192.1 317.5V311C192.1 309.926 191.673 308.896 190.914 308.136C190.154 307.377 189.124 306.95 188.05 306.95C186.976 306.95 185.946 307.377 185.186 308.136C184.427 308.896 184 309.926 184 311V317.6C181.878 318.212 179.927 319.308 178.3 320.8L172.5 317.5C172.037 317.217 171.522 317.031 170.985 316.954C170.449 316.876 169.902 316.908 169.378 317.049C168.854 317.189 168.365 317.434 167.939 317.77C167.513 318.105 167.159 318.524 166.9 319C166.633 319.459 166.46 319.966 166.391 320.492C166.322 321.018 166.359 321.552 166.498 322.064C166.638 322.576 166.878 323.055 167.204 323.473C167.531 323.891 167.937 324.24 168.4 324.5L174.2 327.8C173.679 329.935 173.679 332.165 174.2 334.3L168.4 337.5C167.937 337.76 167.531 338.109 167.204 338.527C166.878 338.945 166.638 339.424 166.498 339.936C166.359 340.448 166.322 340.982 166.391 341.508C166.46 342.034 166.633 342.541 166.9 343C167.254 343.613 167.765 344.122 168.38 344.473C168.995 344.825 169.692 345.006 170.4 345C171.099 345.011 171.788 344.839 172.4 344.5L178.2 341.2C179.014 341.976 179.921 342.648 180.9 343.2C181.85 343.716 182.856 344.119 183.9 344.4V351C183.9 352.061 184.321 353.078 185.072 353.828C185.822 354.579 186.839 355 187.9 355C188.961 355 189.978 354.579 190.728 353.828C191.479 353.078 191.9 352.061 191.9 351V344.5C194.023 343.891 195.975 342.795 197.6 341.3L203.4 344.6C204.012 344.939 204.701 345.111 205.4 345.1C206.108 345.106 206.805 344.925 207.42 344.573C208.035 344.222 208.546 343.713 208.9 343.1C209.456 342.198 209.631 341.112 209.388 340.081C209.144 339.05 208.501 338.158 207.6 337.6V337.5ZM184.9 336.2C184.208 335.815 183.6 335.296 183.11 334.675C182.619 334.053 182.257 333.341 182.043 332.579C181.829 331.817 181.768 331.02 181.864 330.234C181.959 329.448 182.21 328.689 182.6 328C183.143 327.079 183.919 326.318 184.849 325.791C185.779 325.265 186.831 324.992 187.9 325C188.952 325.008 189.984 325.283 190.9 325.8C191.583 326.194 192.182 326.718 192.662 327.343C193.143 327.969 193.495 328.682 193.7 329.444C193.904 330.206 193.956 331 193.853 331.782C193.75 332.563 193.494 333.317 193.1 334C192.287 335.36 190.976 336.35 189.446 336.761C187.915 337.171 186.285 336.97 184.9 336.2Z" fill="url(#paint4_linear_2_198)" stroke="#86C3DB" stroke-miterlimit="10"/>
<path d="M263.6 287.5L257.8 284.2C258.321 282.065 258.321 279.835 257.8 277.7L263.6 274.5C264.063 274.24 264.469 273.891 264.796 273.473C265.122 273.055 265.362 272.576 265.502 272.064C265.641 271.552 265.678 271.018 265.609 270.492C265.54 269.966 265.367 269.459 265.1 269C264.841 268.524 264.487 268.105 264.061 267.77C263.635 267.434 263.146 267.189 262.622 267.049C262.098 266.908 261.551 266.876 261.015 266.954C260.478 267.031 259.963 267.217 259.5 267.5L253.7 270.8C252.917 270.031 252.044 269.359 251.1 268.8C250.155 268.249 249.148 267.813 248.1 267.5V261C248.1 259.926 247.673 258.896 246.914 258.136C246.154 257.377 245.124 256.95 244.05 256.95C242.976 256.95 241.946 257.377 241.186 258.136C240.427 258.896 240 259.926 240 261V267.6C237.878 268.212 235.927 269.308 234.3 270.8L228.5 267.5C228.037 267.217 227.522 267.031 226.985 266.954C226.449 266.876 225.902 266.908 225.378 267.049C224.854 267.189 224.365 267.434 223.939 267.77C223.513 268.105 223.159 268.524 222.9 269C222.633 269.459 222.46 269.966 222.391 270.492C222.322 271.018 222.359 271.552 222.498 272.064C222.638 272.576 222.878 273.055 223.204 273.473C223.531 273.891 223.937 274.24 224.4 274.5L230.2 277.8C229.679 279.935 229.679 282.165 230.2 284.3L224.4 287.5C223.937 287.76 223.531 288.109 223.204 288.527C222.878 288.945 222.638 289.424 222.498 289.936C222.359 290.448 222.322 290.982 222.391 291.508C222.46 292.034 222.633 292.541 222.9 293C223.254 293.613 223.765 294.122 224.38 294.473C224.995 294.825 225.692 295.006 226.4 295C227.099 295.011 227.788 294.839 228.4 294.5L234.2 291.2C235.014 291.976 235.921 292.648 236.9 293.2C237.85 293.716 238.856 294.119 239.9 294.4V301C239.9 302.061 240.321 303.078 241.072 303.828C241.822 304.579 242.839 305 243.9 305C244.961 305 245.978 304.579 246.728 303.828C247.479 303.078 247.9 302.061 247.9 301V294.4C250.023 293.791 251.975 292.695 253.6 291.2L259.4 294.5C260.012 294.839 260.701 295.011 261.4 295C262.108 295.006 262.805 294.825 263.42 294.473C264.035 294.122 264.546 293.613 264.9 293C265.456 292.098 265.631 291.012 265.388 289.981C265.144 288.95 264.501 288.058 263.6 287.5ZM240.9 286.2C240.208 285.815 239.6 285.296 239.11 284.675C238.619 284.053 238.257 283.341 238.043 282.579C237.829 281.817 237.768 281.02 237.864 280.234C237.959 279.448 238.21 278.689 238.6 278C239.143 277.079 239.919 276.318 240.849 275.791C241.779 275.265 242.831 274.992 243.9 275C244.952 275.008 245.984 275.283 246.9 275.8C247.583 276.194 248.182 276.718 248.662 277.343C249.143 277.969 249.495 278.682 249.7 279.444C249.904 280.206 249.956 281 249.853 281.782C249.75 282.563 249.494 283.317 249.1 284C248.287 285.36 246.976 286.35 245.446 286.761C243.915 287.171 242.285 286.97 240.9 286.2Z" fill="url(#paint5_linear_2_198)" stroke="#86C3DB" stroke-miterlimit="10"/>
</g>
<defs>
<linearGradient id="paint0_linear_2_198" x1="34.7" y1="18.6" x2="119.2" y2="165" gradientUnits="userSpaceOnUse">
<stop stop-color="#86C3DB"/>
<stop offset="0.5" stop-color="#86C3DB"/>
<stop offset="1" stop-color="#5EAFCF"/>
</linearGradient>
<linearGradient id="paint1_linear_2_198" x1="251.54" y1="60.6001" x2="332.24" y2="200.3" gradientUnits="userSpaceOnUse">
<stop stop-color="#9CA3AF"/>
<stop offset="0.5" stop-color="#9CA3AF"/>
<stop offset="1" stop-color="#6B7280"/>
</linearGradient>
<linearGradient id="paint2_linear_2_198" x1="100.34" y1="54.7001" x2="233.44" y2="285.4" gradientUnits="userSpaceOnUse">
<stop stop-color="#6B7280"/>
<stop offset="0.5" stop-color="#6B7280"/>
<stop offset="1" stop-color="#4B5563"/>
</linearGradient>
<linearGradient id="paint3_linear_2_198" x1="121.3" y1="222.4" x2="142.7" y2="259.6" gradientUnits="userSpaceOnUse">
<stop stop-color="#86C3DB"/>
<stop offset="0.5" stop-color="#86C3DB"/>
<stop offset="1" stop-color="#5EAFCF"/>
</linearGradient>
<linearGradient id="paint4_linear_2_198" x1="177.3" y1="312.4" x2="198.7" y2="349.6" gradientUnits="userSpaceOnUse">
<stop stop-color="#86C3DB"/>
<stop offset="0.5" stop-color="#86C3DB"/>
<stop offset="1" stop-color="#5EAFCF"/>
</linearGradient>
<linearGradient id="paint5_linear_2_198" x1="233.3" y1="262.4" x2="254.7" y2="299.6" gradientUnits="userSpaceOnUse">
<stop stop-color="#86C3DB"/>
<stop offset="0.5" stop-color="#86C3DB"/>
<stop offset="1" stop-color="#5EAFCF"/>
</linearGradient>
<clipPath id="clip0_2_198">
<rect width="398.8" height="246" fill="white"/>
</clipPath>
<clipPath id="clip1_2_198">
<rect width="172" height="172" fill="white"/>
</clipPath>
<clipPath id="clip2_2_198">
<rect width="398" height="222" fill="white" transform="translate(0.839996 24)"/>
</clipPath>
<clipPath id="clip3_2_198">
<rect width="200.3" height="126.1" fill="white" transform="translate(198.84 51)"/>
</clipPath>
<clipPath id="clip4_2_198">
<rect width="350" height="222" fill="white" transform="translate(0.839996 24)"/>
</clipPath>
<clipPath id="clip5_2_198">
<rect width="156.2" height="139" fill="white" transform="translate(109.9 216.5)"/>
</clipPath>
</defs>
</svg>
