<svg width="399" height="222" viewBox="0 0 399 222" fill="none" xmlns="http://www.w3.org/2000/svg">
<g clip-path="url(#clip0_2_129)">
<g clip-path="url(#clip1_2_129)">
<path d="M199.34 120.2C199.34 128.793 202.754 137.034 208.83 143.11C214.906 149.186 223.147 152.6 231.74 152.6H361.54V152.5L363.84 152.6C372.429 152.493 380.674 149.214 386.991 143.394C393.307 137.573 397.248 129.622 398.055 121.071C398.861 112.52 396.477 103.972 391.361 97.0732C386.244 90.1741 378.757 85.4108 370.34 83.7C371.313 77.6232 370.534 71.3951 368.096 65.7444C365.658 60.0938 361.662 55.2543 356.574 51.7923C351.485 48.3304 345.517 46.3891 339.366 46.1956C333.215 46.0022 327.136 47.5646 321.84 50.7C315.774 40.8123 306.372 33.4203 295.332 29.8597C284.292 26.299 272.342 26.8046 261.643 31.285C250.943 35.7654 242.198 43.9251 236.99 54.2897C231.781 64.6544 230.451 76.5404 233.24 87.8H231.74C223.164 87.8 214.938 91.1998 208.865 97.2544C202.792 103.309 199.366 111.524 199.34 120.1V120.2Z" fill="url(#paint0_linear_2_129)" stroke="#848B98" stroke-miterlimit="10"/>
</g>
<g clip-path="url(#clip2_2_129)">
<path d="M291.84 107L289.34 107.1C294.138 87.6744 291.835 67.1737 282.848 49.2966C273.86 31.4194 258.779 17.3429 240.326 9.60676C221.872 1.87062 201.262 0.984217 182.212 7.10748C163.163 13.2307 146.929 25.9605 136.44 43C127.949 37.9558 118.274 35.2471 108.398 35.1487C98.5218 35.0503 88.7952 37.5656 80.205 42.4395C71.6147 47.3134 64.4662 54.3726 59.4847 62.9009C54.5031 71.4292 51.8657 81.1234 51.84 91C51.8664 94.0165 52.1339 97.0261 52.64 100C37.8991 102.724 24.7119 110.868 15.6745 122.828C6.6371 134.788 2.4041 149.698 3.80877 164.623C5.21344 179.548 12.154 193.406 23.2643 203.47C34.3745 213.533 48.8496 219.074 63.84 219L67.84 218.8V219H291.84C306.692 219 320.936 213.1 331.438 202.598C341.94 192.096 347.84 177.852 347.84 163C347.84 148.148 341.94 133.904 331.438 123.402C320.936 112.9 306.692 107 291.84 107Z" fill="url(#paint1_linear_2_129)" stroke="#5B6472" stroke-width="6" stroke-miterlimit="10"/>
</g>
</g>
<defs>
<linearGradient id="paint0_linear_2_129" x1="251.54" y1="36.6" x2="332.24" y2="176.3" gradientUnits="userSpaceOnUse">
<stop stop-color="#9CA3AF"/>
<stop offset="0.5" stop-color="#9CA3AF"/>
<stop offset="1" stop-color="#6B7280"/>
</linearGradient>
<linearGradient id="paint1_linear_2_129" x1="100.34" y1="30.7" x2="233.44" y2="261.4" gradientUnits="userSpaceOnUse">
<stop stop-color="#6B7280"/>
<stop offset="0.5" stop-color="#6B7280"/>
<stop offset="1" stop-color="#4B5563"/>
</linearGradient>
<clipPath id="clip0_2_129">
<rect width="398" height="222" fill="white" transform="translate(0.839996)"/>
</clipPath>
<clipPath id="clip1_2_129">
<rect width="200.3" height="126.1" fill="white" transform="translate(198.84 27)"/>
</clipPath>
<clipPath id="clip2_2_129">
<rect width="350" height="222" fill="white" transform="translate(0.839996)"/>
</clipPath>
</defs>
</svg>
