<svg width="351" height="246" viewBox="0 0 351 246" fill="none" xmlns="http://www.w3.org/2000/svg">
<g clip-path="url(#clip0_2_167)">
<g clip-path="url(#clip1_2_167)">
<path d="M160.6 107.4C149.455 107.479 138.405 105.361 128.079 101.166C117.754 96.9706 108.357 90.7815 100.426 82.9522C92.4943 75.1229 86.1839 65.8069 81.8555 55.537C77.527 45.267 75.2654 34.2446 75.2 23.1C75.2272 15.9759 76.1682 8.88466 78 2C57.2476 4.14248 38.016 13.8686 23.9914 29.3141C9.9668 44.7596 2.13601 64.8377 2 85.7C2.06543 96.8446 4.32704 107.867 8.65549 118.137C12.9839 128.407 19.2943 137.723 27.2258 145.552C35.1573 153.382 44.5543 159.571 54.8795 163.766C65.2047 167.961 76.2555 170.079 87.4 170C106.201 170.07 124.497 163.919 139.437 152.505C154.378 141.092 165.123 125.058 170 106.9C166.878 107.234 163.74 107.401 160.6 107.4Z" fill="url(#paint0_linear_2_167)" stroke="#72B9D5" stroke-width="4" stroke-linecap="round" stroke-linejoin="round"/>
</g>
<g clip-path="url(#clip2_2_167)">
<path d="M292 131L289.5 131.1C294.298 111.674 291.995 91.1737 283.008 73.2965C274.02 55.4194 258.939 41.3429 240.486 33.6068C222.032 25.8706 201.422 24.9842 182.372 31.1075C163.323 37.2307 147.089 49.9605 136.6 67C128.109 61.9558 118.434 59.2471 108.558 59.1487C98.6818 59.0503 88.9553 61.5656 80.365 66.4395C71.7747 71.3134 64.6262 78.3726 59.6447 86.9009C54.6631 95.4292 52.0257 105.123 52 115C52.0264 118.017 52.2939 121.026 52.8 124C38.0591 126.724 24.8719 134.868 15.8345 146.828C6.79711 158.788 2.5641 173.698 3.96877 188.623C5.37345 203.548 12.314 217.406 23.4243 227.47C34.5345 237.533 49.0096 243.074 64 243L68 242.8V243H292C306.852 243 321.096 237.1 331.598 226.598C342.1 216.096 348 201.852 348 187C348 172.148 342.1 157.904 331.598 147.402C321.096 136.9 306.852 131 292 131Z" fill="url(#paint1_linear_2_167)" stroke="#E6EFFC" stroke-width="6" stroke-miterlimit="10"/>
</g>
</g>
<defs>
<linearGradient id="paint0_linear_2_167" x1="34.7" y1="18.6" x2="119.2" y2="165" gradientUnits="userSpaceOnUse">
<stop stop-color="#86C3DB"/>
<stop offset="0.5" stop-color="#86C3DB"/>
<stop offset="1" stop-color="#5EAFCF"/>
</linearGradient>
<linearGradient id="paint1_linear_2_167" x1="100.5" y1="54.7" x2="233.6" y2="285.4" gradientUnits="userSpaceOnUse">
<stop stop-color="#F3F7FE"/>
<stop offset="0.5" stop-color="#F3F7FE"/>
<stop offset="1" stop-color="#DEEAFB"/>
</linearGradient>
<clipPath id="clip0_2_167">
<rect width="351" height="246" fill="white"/>
</clipPath>
<clipPath id="clip1_2_167">
<rect width="172" height="172" fill="white"/>
</clipPath>
<clipPath id="clip2_2_167">
<rect width="350" height="222" fill="white" transform="translate(1 24)"/>
</clipPath>
</defs>
</svg>
