<svg width="384" height="384" viewBox="0 0 384 384" fill="none" xmlns="http://www.w3.org/2000/svg">
<g clip-path="url(#clip0_2_173)">
<path d="M192 276C238.392 276 276 238.392 276 192C276 145.608 238.392 108 192 108C145.608 108 108 145.608 108 192C108 238.392 145.608 276 192 276Z" fill="url(#paint0_linear_2_173)" stroke="#F8AF18" stroke-width="6" stroke-miterlimit="10"/>
<path d="M192 61.7V12M192 372V322.3M284.2 99.8L319.2 64.8M64.8 319.2L99.9 284.1M99.9 99.7L64.9 64.7M319.4 319.2L284.3 284.1M61.7 192H12M372 192H322.3" stroke="#FBBF24" stroke-width="24" stroke-miterlimit="10" stroke-linecap="round"/>
</g>
<defs>
<linearGradient id="paint0_linear_2_173" x1="150" y1="119.2" x2="234" y2="264.8" gradientUnits="userSpaceOnUse">
<stop stop-color="#FBBF24"/>
<stop offset="0.5" stop-color="#FBBF24"/>
<stop offset="1" stop-color="#F59E0B"/>
</linearGradient>
<clipPath id="clip0_2_173">
<rect width="384" height="384" fill="white"/>
</clipPath>
</defs>
</svg>
