<?xml version="1.0" encoding="utf-8"?>
<!-- Generator: Adobe Illustrator 28.0.0, SVG Export Plug-In . SVG Version: 6.00 Build 0)  -->
<svg version="1.1" id="Layer_1" xmlns="http://www.w3.org/2000/svg" xmlns:xlink="http://www.w3.org/1999/xlink" x="0px" y="0px"
	 viewBox="0 0 278 278" style="enable-background:new 0 0 278 278;" xml:space="preserve">
<style type="text/css">
	.st0{fill:url(#SVGID_1_);stroke:#F8AF18;stroke-width:6;stroke-miterlimit:10;}
	.st1{fill:none;stroke:#FBBF24;stroke-width:24;stroke-linecap:round;stroke-miterlimit:10;}
	.st2{display:none;}
	.st3{display:inline;}
	.st4{display:none;fill:#FFFFFF;}
	.st5{clip-path:url(#SVGID_00000028288229225902527250000011846255812249548478_);}
	.st6{fill:#EF4444;}
	.st7{fill:none;stroke:#EF4444;stroke-width:24;stroke-linecap:round;stroke-miterlimit:10;}
	.st8{clip-path:url(#SVGID_00000119838303175982943720000003000799176512748433_);}
	.st9{fill:url(#SVGID_00000172421347793607543810000004064216358879652239_);}
	
		.st10{fill:none;stroke:url(#SVGID_00000160167479221780164100000008567328552924980410_);stroke-width:6;stroke-linecap:round;stroke-linejoin:round;}
	.st11{fill:none;}
</style>
<symbol  id="b" viewBox="-192 -192 384 384">
	
		<linearGradient id="SVGID_1_" gradientUnits="userSpaceOnUse" x1="-617.9837" y1="-648.7718" x2="-534.0163" y2="-503.2282" gradientTransform="matrix(1 0 0 1 576 576)">
		<stop  offset="0" style="stop-color:#FBBF24"/>
		<stop  offset="0.5" style="stop-color:#FBBF24"/>
		<stop  offset="1" style="stop-color:#F59E0B"/>
	</linearGradient>
	<circle class="st0" cx="0" cy="0" r="84"/>
	<path class="st1" d="M0-130.3V-180 M0,180v-49.7 M92.2-92.2l35-35 M-127.2,127.2l35.1-35.1 M-92.1-92.3l-35-35 M127.4,127.2
		L92.3,92.1 M-130.3,0H-180 M180,0h-49.7"/>
</symbol>
<g class="st2">
	<g class="st3">
		<defs>
			
				<rect id="SVGID_00000136409008558592285570000000750320929103458995_" x="33.5" y="24.2" transform="matrix(0.6441 -0.765 0.765 0.6441 -34.2135 109.9179)" width="135" height="135"/>
		</defs>
		<clipPath id="SVGID_00000151533383308536383440000000367785515585987977_">
			<use xlink:href="#SVGID_00000136409008558592285570000000750320929103458995_"  style="overflow:visible;"/>
		</clipPath>
	</g>
</g>
<polygon class="st4" points="104,38.2 113.4,13.5 139,0 166.2,15.7 174,38.2 174,167.1 104,167.1 "/>
<g>
	<g>
		<defs>
			<polygon id="SVGID_00000145046962751449621400000014034359654080614547_" points="5.9,99.8 92.9,-3.4 107,23.6 109.2,186.8 			
				"/>
		</defs>
		<clipPath id="SVGID_00000021096062503412152600000017723586431020164026_">
			<use xlink:href="#SVGID_00000145046962751449621400000014034359654080614547_"  style="overflow:visible;"/>
		</clipPath>
		
			<g transform="matrix(1 -2.980232e-08 2.980232e-08 1 -7.629395e-06 0)" style="clip-path:url(#SVGID_00000021096062503412152600000017723586431020164026_);">
			
				<use xlink:href="#b"  width="384" height="384" x="-192" y="-192" transform="matrix(0.2264 -0.2689 0.2689 0.2264 101.0178 91.677)" style="overflow:visible;"/>
		</g>
	</g>
	<g>
		<g>
			<g>
				<g>
					<g>
						<defs>
							<rect id="SVGID_00000146492377140096989800000001150614474973190022_" x="103" y="87" width="72" height="168"/>
						</defs>
						<clipPath id="SVGID_00000048498550026210141530000007225940974728940429_">
							<use xlink:href="#SVGID_00000146492377140096989800000001150614474973190022_"  style="overflow:visible;"/>
						</clipPath>
						<g style="clip-path:url(#SVGID_00000048498550026210141530000007225940974728940429_);">
							<path class="st6" d="M139,255c19.9,0,36-16.1,36-36s-16.1-36-36-36s-36,16.1-36,36S119.1,255,139,255z"/>
							<path class="st7" d="M139,99v120"/>
						</g>
					</g>
				</g>
			</g>
		</g>
	</g>
	<g>
		<g>
			<g>
				<g>
					<g>
						<defs>
							<rect id="SVGID_00000101065213164226864770000017886096242696642476_" x="80" width="118" height="278"/>
						</defs>
						<clipPath id="SVGID_00000060711706622169024450000006814527238109944213_">
							<use xlink:href="#SVGID_00000101065213164226864770000017886096242696642476_"  style="overflow:visible;"/>
						</clipPath>
						<g style="clip-path:url(#SVGID_00000060711706622169024450000006814527238109944213_);">
							
								<linearGradient id="SVGID_00000000215062216349052860000006276384439753515163_" gradientUnits="userSpaceOnUse" x1="72.7407" y1="-1356.3342" x2="196.3407" y2="-1570.4342" gradientTransform="matrix(1 0 0 -1 0 -1320)">
								<stop  offset="0" style="stop-color:#515A69;stop-opacity:0.1"/>
								<stop  offset="0.5" style="stop-color:#6B7280;stop-opacity:0.1"/>
								<stop  offset="1" style="stop-color:#384354;stop-opacity:0.1"/>
							</linearGradient>
							<path style="fill:url(#SVGID_00000000215062216349052860000006276384439753515163_);" d="M195,218.2c0,31.4-25,56.8-56,56.8
								s-56-25.4-56-56.8c0-9.1,2.1-18.1,6.3-26.2c4.2-8.1,10.2-15.1,17.7-20.4V35.5c0-8.5,3.4-16.6,9.4-22.6s14.1-9.4,22.6-9.4
								s16.6,3.4,22.6,9.4S171,27,171,35.5v136c7.5,5.3,13.5,12.3,17.7,20.4C192.9,200,195,209.1,195,218.2z M143,83h28H143z
								 M143,51h28H143z M143,115h28H143z"/>
							
								<linearGradient id="SVGID_00000181048252760577295790000002113126693296869764_" gradientUnits="userSpaceOnUse" x1="71.2407" y1="-1353.7344" x2="197.8407" y2="-1573.0343" gradientTransform="matrix(1 0 0 -1 0 -1320)">
								<stop  offset="0" style="stop-color:#D4D7DD"/>
								<stop  offset="0.5" style="stop-color:#D4D7DD"/>
								<stop  offset="1" style="stop-color:#BEC1C6"/>
							</linearGradient>
							
								<path style="fill:none;stroke:url(#SVGID_00000181048252760577295790000002113126693296869764_);stroke-width:6;stroke-linecap:round;stroke-linejoin:round;" d="
								M143,83h28 M143,51h28 M143,115h28 M195,218.2c0,31.4-25,56.8-56,56.8s-56-25.4-56-56.8c0-9.1,2.1-18.1,6.3-26.2
								c4.2-8.1,10.2-15.1,17.7-20.4V35.5c0-8.5,3.4-16.6,9.4-22.6s14.1-9.4,22.6-9.4s16.6,3.4,22.6,9.4S171,27,171,35.5v136
								c7.5,5.3,13.5,12.3,17.7,20.4C192.9,200,195,209.1,195,218.2z"/>
						</g>
					</g>
				</g>
			</g>
		</g>
	</g>
	<rect x="80" class="st11" width="118" height="278"/>
</g>
</svg>
