<?xml version="1.0" encoding="utf-8"?>
<!-- Generator: Adobe Illustrator 28.0.0, SVG Export Plug-In . SVG Version: 6.00 Build 0)  -->
<svg version="1.1" id="Layer_1" xmlns="http://www.w3.org/2000/svg" xmlns:xlink="http://www.w3.org/1999/xlink" x="0px" y="0px"
	 viewBox="0 0 23.2 23.9" style="enable-background:new 0 0 23.2 23.9;" xml:space="preserve">
<style type="text/css">
	.st0{fill:#808080;fill-opacity:0.502;}
</style>
<path d="M4,15.7l-4,8.2c1,0,4.5,0,10.1,0c-6.3-1.4-4.6-5.9-4.4-6.8C4.8,16.9,4.2,16.1,4,15.7z"/>
<path d="M23.2,23.8L11.7,0c-1.2,2.3-3.5,7.2-3.8,7.8C9,7.7,10,8.2,10.4,8.5l1.3-2.2L18,16.8c0.6,1,0.8,2.6,0.1,4.1
	c-1.7,2.4-4,2.9-5.1,2.9H23.2z"/>
<circle class="st0" cx="7.5" cy="12.5" r="3.9"/>
</svg>
