<svg width="23" height="23" viewBox="0 0 23 23" fill="none" xmlns="http://www.w3.org/2000/svg">
<path id="Vector" d="M1 1V17.3333C1 19.5337 1 20.6327 1.68367 21.3163C2.36733 22 3.46633 22 5.66667 22H22M5.08333 17.3333L5.66433 15.7828C6.00267 14.8845 6.17067 14.4353 6.42617 14.2335C6.59232 14.1026 6.79092 14.0194 7.00074 13.9927C7.21055 13.9659 7.42369 13.9968 7.61733 14.0818C7.916 14.2137 8.19133 14.6068 8.742 15.3932C9.358 16.2728 9.666 16.7127 9.98333 16.8433C10.1885 16.9273 10.4134 16.951 10.6316 16.9117C10.8498 16.8725 11.0523 16.7719 11.2153 16.6217C11.4673 16.3883 11.6027 15.8692 11.8733 14.8308L13.3247 9.26817C13.6327 8.08983 13.7867 7.4995 14.0632 7.2615C14.2348 7.11396 14.4456 7.01953 14.6699 6.9897C14.8943 6.95987 15.1225 6.99593 15.3267 7.0935C15.6557 7.251 15.9567 7.78067 16.5633 8.83767C17.2575 10.0545 17.6052 10.6623 17.954 10.8175C18.1702 10.9137 18.4104 10.9418 18.643 10.8983C18.8755 10.8547 19.0893 10.7415 19.256 10.5737C19.5243 10.303 19.6293 9.61 19.837 8.22517L20.8333 1.58333" stroke="black" stroke-width="2" stroke-linecap="round" stroke-linejoin="round"/>
</svg>
