<?xml version="1.0" encoding="UTF-8"?>
<svg id="Layer_1" data-name="Layer 1" xmlns="http://www.w3.org/2000/svg" xmlns:xlink="http://www.w3.org/1999/xlink" viewBox="0 0 300 300">
  <defs>
    <linearGradient id="linear-gradient" x1="77.98" y1="803.27" x2="222.02" y2="1052.73" gradientTransform="translate(0 -778)" gradientUnits="userSpaceOnUse">
      <stop offset="0" stop-color="#6b7280"/>
      <stop offset=".5" stop-color="#6b7280"/>
      <stop offset="1" stop-color="#374151"/>
    </linearGradient>
  </defs>
  <circle cx="150" cy="150" r="144" style="fill: url(#linear-gradient); stroke: #e5e7eb; stroke-miterlimit: 10; stroke-width: 12px;"/>
  <path d="m153.2,46v-10.4h4.6v18h-4.7l-6.3-10.4v10.4h-4.6v-18h4.7l6.3,10.4Zm103.3,105.7v3.3h9.8v4h-14.5v-18h14.2v4h-9.5v3h8.3v3.8l-8.3-.1Zm-106.4,116c-1.9.1-3.8-.5-5.4-1.6-1.3-1.1-2-2.7-2-4.4h4.4c0,1.6,1.1,2.4,3.1,2.4,1.8,0,2.6-.6,2.6-1.7,0-.4-.1-.7-.4-1-.5-.3-1-.6-1.6-.7l-3.4-.7c-2.9-.7-4.4-2.4-4.4-4.9,0-1.5.6-2.9,1.7-3.9,1.5-1.1,3.3-1.6,5.1-1.5,1.8-.1,3.5.5,5,1.5,1.2,1,2,2.4,2,4h-4.3c-.2-1.4-1-2-2.7-2-.6,0-1.1.1-1.6.4-.3.2-.6.6-.6,1,0,.8.5,1.3,1.6,1.6l3.5.8c3.1.7,4.7,2.4,4.7,5.1,0,1.6-.7,3.1-2,4.1-1.6,1.1-3.4,1.6-5.3,1.5h0Zm-99.9-118.7l2-8h4.7l-5.2,18h-4.5l-2.5-11.5-2.3,11.5h-4.6l-5.2-18h4.7l2,8,.9,4.2.7-4.3,1.7-7.9h4.4l1.8,8,.6,4.1.8-4.1Z" style="fill: #9ca3af; stroke-width: 0px;"/>
  <g id="rotateElement">
    <path d="m150.1,66l-22.2,77.8-.9,6.2h46.1l-.8-6.1-.3-1.2-21.9-76.7Z" style="fill: #ef4444; stroke-width: 0px;"/>
    <circle cx="150.1" cy="150" r="23.1" style="fill: #ef4444; stroke-width: 0px;"/>
  </g>
</svg>