<?xml version="1.0" encoding="utf-8"?>
<!-- Generator: Adobe Illustrator 28.0.0, SVG Export Plug-In . SVG Version: 6.00 Build 0)  -->
<svg version="1.1" id="Layer_1" xmlns="http://www.w3.org/2000/svg" xmlns:xlink="http://www.w3.org/1999/xlink" x="0px" y="0px"
	 viewBox="0 0 278.5 287" style="enable-background:new 0 0 278.5 287;" xml:space="preserve">
<style type="text/css">
	.st0{fill:none;stroke:#E5E7EB;stroke-width:17.4;stroke-linecap:round;stroke-linejoin:round;stroke-dasharray:16.9,56.2;}
	.st1{fill:url(#SVGID_1_);stroke:#F8AF18;stroke-width:6;stroke-linecap:round;stroke-linejoin:round;}
</style>
<path class="st0" d="M264,145.5c0-70.7-57.3-128-128-128c-169.8,6.7-169.7,249.3,0,256C206.7,273.5,264,216.2,264,145.5z"/>
<linearGradient id="SVGID_1_" gradientUnits="userSpaceOnUse" x1="73.791" y1="252.8108" x2="205.5763" y2="24.5362" gradientTransform="matrix(1 0 0 -1 0 290)">
	<stop  offset="0" style="stop-color:#FEC83D"/>
	<stop  offset="0.5" style="stop-color:#FDBB10"/>
	<stop  offset="1" style="stop-color:#FDBA0D"/>
</linearGradient>
<path class="st1" d="M190,15.6C172.1,7.5,152.7,3.2,133,3c38.3,40.9,48.6,100.8,26,152.1c-23,51.1-74.3,83.5-130.3,82.4
	c14,17.3,25.6,24.1,47.5,33.9c72,32,156,0.8,187.4-69.8S262.1,47.7,190,15.6L190,15.6z"/>
</svg>
