<?xml version="1.0" encoding="utf-8"?>
<!-- Generator: Adobe Illustrator 28.0.0, SVG Export Plug-In . SVG Version: 6.00 Build 0)  -->
<svg version="1.1" id="Layer_1" xmlns="http://www.w3.org/2000/svg" xmlns:xlink="http://www.w3.org/1999/xlink" x="0px" y="0px"
	 viewBox="0 0 279.6 284" style="enable-background:new 0 0 279.6 284;" xml:space="preserve">
<style type="text/css">
	.st0{fill:none;stroke:#E5E7EB;stroke-width:17.4;stroke-linecap:round;stroke-linejoin:round;stroke-dasharray:16.9,56.2;}
	.st1{fill:url(#SVGID_1_);stroke:#F8AF18;stroke-width:6;stroke-linecap:round;stroke-linejoin:round;}
</style>
<path class="st0" d="M270.9,142c0-70.7-57.3-128-128-128c-169.8,6.7-169.7,249.3,0,256C213.6,270,270.9,212.7,270.9,142z"/>
<linearGradient id="SVGID_1_" gradientUnits="userSpaceOnUse" x1="13226.4678" y1="253.0737" x2="13359.7061" y2="22.2066" gradientTransform="matrix(-1 0 0 -1 13432.0635 282.9384)">
	<stop  offset="1.598337e-08" style="stop-color:#FEC83D"/>
	<stop  offset="0.5" style="stop-color:#FDBB10"/>
	<stop  offset="1" style="stop-color:#FDBA0D"/>
</linearGradient>
<path class="st1" d="M8.1,100.8c19-67.5,86.8-109,155.6-95.1c-5.9,10-10.6,20.7-13.8,31.9c-20.7,73.2,22,151,95.4,173.8
	c4.9,1.5,9.9,2.7,14.9,3.6c-32,53.9-97,78.7-156.7,59.6C30,251.8-12.2,174.9,8.1,100.8L8.1,100.8z"/>
</svg>
