<?xml version="1.0" encoding="utf-8"?>
<!-- Generator: Adobe Illustrator 28.0.0, SVG Export Plug-In . SVG Version: 6.00 Build 0)  -->
<svg version="1.1" id="Layer_1" xmlns="http://www.w3.org/2000/svg" xmlns:xlink="http://www.w3.org/1999/xlink" x="0px" y="0px"
	 viewBox="0 0 276.5 281" style="enable-background:new 0 0 276.5 281;" xml:space="preserve">
<style type="text/css">
	.st0{fill:none;stroke:#E5E7EB;stroke-width:17.4;stroke-linecap:round;stroke-linejoin:round;stroke-dasharray:16.9,56.2;}
	.st1{fill:url(#SVGID_1_);stroke:#F8AF18;stroke-width:6;stroke-linecap:round;stroke-linejoin:round;}
</style>
<path class="st0" d="M264,138.5c0-70.7-57.3-128-128-128c-169.8,6.7-169.7,249.3,0,256C206.7,266.5,264,209.2,264,138.5z"/>
<linearGradient id="SVGID_1_" gradientUnits="userSpaceOnUse" x1="91.4216" y1="226.8658" x2="210.3916" y2="20.8445" gradientTransform="matrix(1 0 0 -1 0 276)">
	<stop  offset="0" style="stop-color:#FEC83D"/>
	<stop  offset="0.5" style="stop-color:#FDBB10"/>
	<stop  offset="1" style="stop-color:#FDBA0D"/>
</linearGradient>
<path class="st1" d="M190.3,10c-6.2-2.8-12.5-5.1-19-7l0.7,0.6l0,0c92.2,96.7,21,256.7-112.6,252.8l-0.8-0.1
	c5.7,3.6,11.6,6.8,17.8,9.5c70.6,31.5,153.4-0.3,184.9-70.9S261,41.5,190.4,10c0,0,0,0,0,0L190.3,10z"/>
</svg>
