<?xml version="1.0" encoding="utf-8"?>
<!-- Generator: Adobe Illustrator 28.0.0, SVG Export Plug-In . SVG Version: 6.00 Build 0)  -->
<svg version="1.1" id="Layer_1" xmlns="http://www.w3.org/2000/svg" xmlns:xlink="http://www.w3.org/1999/xlink" x="0px" y="0px"
	 viewBox="0 0 279.6 287" style="enable-background:new 0 0 279.6 287;" xml:space="preserve">
<style type="text/css">
	.st0{fill:none;stroke:#E5E7EB;stroke-width:17.4;stroke-linecap:round;stroke-linejoin:round;stroke-dasharray:16.9,56.2;}
	.st1{fill:url(#SVGID_1_);stroke:#F8AF18;stroke-width:6;stroke-linecap:round;stroke-linejoin:round;}
</style>
<path class="st0" d="M270.9,145.5c0-70.7-57.3-128-128-128c-169.8,6.7-169.7,249.3,0,256C213.6,273.5,270.9,216.2,270.9,145.5z"/>
<linearGradient id="SVGID_1_" gradientUnits="userSpaceOnUse" x1="12714.8242" y1="252.7523" x2="12846.5723" y2="24.5423" gradientTransform="matrix(-1 0 0 -1 12919.584 290)">
	<stop  offset="0" style="stop-color:#FEC83D"/>
	<stop  offset="0.5" style="stop-color:#FDBB10"/>
	<stop  offset="1" style="stop-color:#FDBA0D"/>
</linearGradient>
<path class="st1" d="M88.4,15.6c17.9-8.2,37.3-12.4,57-12.6C107,43.9,96.7,103.7,119.2,155.1c23.1,51.2,74.5,83.6,130.7,82.4
	c-14,17.3-25.7,24.1-47.5,33.9c-72.1,32-156,0.8-187.5-69.8s1.5-153.9,73.6-186L88.4,15.6z"/>
</svg>
