<?xml version="1.0" encoding="utf-8"?>
<!-- Generator: Adobe Illustrator 28.0.0, SVG Export Plug-In . SVG Version: 6.00 Build 0)  -->
<svg version="1.1" id="Layer_1" xmlns="http://www.w3.org/2000/svg" xmlns:xlink="http://www.w3.org/1999/xlink" x="0px" y="0px"
	 viewBox="0 0 279.5 280.8" style="enable-background:new 0 0 279.5 280.8;" xml:space="preserve">
<style type="text/css">
	.st0{fill:none;stroke:#E5E7EB;stroke-width:17.4;stroke-linecap:round;stroke-linejoin:round;stroke-dasharray:16.9,56.2;}
	.st1{fill:url(#SVGID_1_);stroke:#F8AF18;stroke-width:6;stroke-linecap:round;stroke-linejoin:round;}
</style>
<path class="st0" d="M270.8,138.5c0-70.7-57.3-128-128-128c-169.8,6.7-169.7,249.3,0,256C213.5,266.5,270.8,209.2,270.8,138.5z"/>
<linearGradient id="SVGID_1_" gradientUnits="userSpaceOnUse" x1="3" y1="140.4164" x2="217.5917" y2="140.4164">
	<stop  offset="2.770450e-07" style="stop-color:#FEC83D"/>
	<stop  offset="0.5" style="stop-color:#FDBB10"/>
	<stop  offset="1" style="stop-color:#FDBA0D"/>
</linearGradient>
<path class="st1" d="M85.8,10C92,7.2,98.4,4.9,105,3l-0.8,0.6l0,0c-92.2,96.7-21,256.7,112.6,252.8l0.8-0.1
	c-65.4,41.2-151.9,21.5-193.1-43.9S3,60.5,68.4,19.3C74,15.8,79.9,12.7,85.8,10L85.8,10z"/>
</svg>
